<?xml version="1.0" encoding="UTF-8"?>
<svg xmlns="http://www.w3.org/2000/svg"
     xmlns:xlink="http://www.w3.org/1999/xlink"
     version="1.2"
     width="100mm" height="100mm" viewBox="0 0 100 100"
     stroke="none"
     fill="#000000"
     stroke-width="0.3"
     font-size="3.88"
>
<defs>
  <marker id="arrow" markerWidth="15" markerHeight="7" refX="5" refY="3.5" orient="auto" markerUnits="strokeWidth">
    <path d="M0,0 L15,3.5 L0,7 z" stroke="context-stroke" fill="context-stroke"/>
  </marker>
</defs>
<g fill="#000000" fill-opacity="0.000" id="img-0b15a8ab-1">
  <g transform="translate(50,50)">
    <path d="M-50,-50 L50,-50 50,50 -50,50  z" class="primitive"/>
  </g>
</g>
<g stroke-width="0.83" stroke="#D3D3D3" id="img-0b15a8ab-2">
  <g transform="translate(35.37,43.96)">
    <path fill="none" d="M3.92,-3.82 C11.26,1.52 -11.26,3.82 -3.92,-1.52" class="primitive"/>
  </g>
</g>
<g stroke-width="0.83" stroke="#D3D3D3" id="img-0b15a8ab-3">
  <g transform="translate(25.45,29.65)">
    <path fill="none" d="M3.95,-8.14 L-3.95,8.14 " class="primitive"/>
  </g>
  <g transform="translate(39.01,30.24)">
    <path fill="none" d="M-5.46,-12.21 L5.46,12.21 " class="primitive"/>
  </g>
  <g transform="translate(44.58,21.58)">
    <path fill="none" d="M-9.63,-4.89 L9.63,4.89 " class="primitive"/>
  </g>
  <g transform="translate(44.47,21.6)">
    <path fill="none" d="M4.74,-10.63 L-4.74,10.63 " class="primitive"/>
  </g>
  <g transform="translate(48.97,26.55)">
    <path fill="none" d="M1.2,-15.33 L-1.2,15.33 " class="primitive"/>
  </g>
  <g transform="translate(54.51,17.16)">
    <path fill="none" d="M-2.9,-6.21 L2.9,6.21 " class="primitive"/>
  </g>
  <g transform="translate(19.83,65.57)">
    <path fill="none" d="M-4.76,0.7 L4.76,-0.7 " class="primitive"/>
  </g>
  <g transform="translate(85.46,23.58)">
    <path fill="none" d="M4.75,-8.14 L-4.75,8.14 " class="primitive"/>
  </g>
  <g transform="translate(15.24,79.34)">
    <path fill="none" d="M3.53,6.17 L-3.53,-6.17 " class="primitive"/>
  </g>
  <g transform="translate(24.94,77.72)">
    <path fill="none" d="M-3.53,7.67 L3.53,-7.67 " class="primitive"/>
  </g>
  <g transform="translate(24.02,51.46)">
    <path fill="none" d="M10.9,-10.97 L-10.9,10.97 " class="primitive"/>
  </g>
  <g transform="translate(29.62,40.62)">
    <path fill="none" d="M4.56,-1.36 L-4.56,1.36 " class="primitive"/>
  </g>
  <g transform="translate(36.98,90.08)">
    <path fill="none" d="M10.03,1.23 L-10.03,-1.23 " class="primitive"/>
  </g>
  <g transform="translate(58.81,80.14)">
    <path fill="none" d="M-7.16,9.24 L7.16,-9.24 " class="primitive"/>
  </g>
  <g transform="translate(25.45,29.65)">
    <path fill="none" d="M-3.95,8.14 L3.95,-8.14 " class="primitive"/>
  </g>
  <g transform="translate(19.29,64.01)">
    <path fill="none" d="M-0.65,-17.21 L0.65,17.21 " class="primitive"/>
  </g>
  <g transform="translate(48.44,68.21)">
    <path fill="none" d="M-1.02,-16.67 L1.02,16.67 " class="primitive"/>
  </g>
  <g transform="translate(34.82,46.61)">
    <path fill="none" d="M9.57,1.58 L-9.57,-1.58 " class="primitive"/>
  </g>
  <g transform="translate(57.12,55.93)">
    <path fill="none" d="M-7.55,-5.56 L7.55,5.56 " class="primitive"/>
  </g>
  <g transform="translate(59.08,37.97)">
    <path fill="none" d="M15.32,-0.32 L-15.32,0.32 " class="primitive"/>
  </g>
  <g transform="translate(73.71,51.56)">
    <path fill="none" d="M1.88,-7.37 L-1.88,7.37 " class="primitive"/>
  </g>
  <g transform="translate(74.24,22.16)">
    <path fill="none" d="M-11.41,6.03 L11.41,-6.03 " class="primitive"/>
  </g>
  <g transform="translate(47.06,45.21)">
    <path fill="none" d="M11.35,-13.46 L-11.35,13.46 " class="primitive"/>
  </g>
  <g transform="translate(64.69,45.64)">
    <path fill="none" d="M-3.65,-13.31 L3.65,13.31 " class="primitive"/>
  </g>
  <g transform="translate(19.83,65.57)">
    <path fill="none" d="M4.76,-0.7 L-4.76,0.7 " class="primitive"/>
  </g>
  <g transform="translate(33.72,53.07)">
    <path fill="none" d="M-1.77,7.98 L1.77,-7.98 " class="primitive"/>
  </g>
  <g transform="translate(73.71,51.56)">
    <path fill="none" d="M-1.88,7.37 L1.88,-7.37 " class="primitive"/>
  </g>
</g>
<g fill="#D3D3D3" id="img-0b15a8ab-4">
  <g transform="translate(32.51,41.67)">
    <path d="M-1.89,-0.39 L2.11,-1.53 -0.22,1.92  z" class="primitive"/>
  </g>
</g>
<g fill="#D3D3D3" id="img-0b15a8ab-5">
  <g transform="translate(20.93,38.97)">
    <path d="M1.85,-0.55 L-1.14,2.35 -0.71,-1.8  z" class="primitive"/>
  </g>
  <g transform="translate(45,43.64)">
    <path d="M0.77,-1.77 L1.07,2.38 -1.83,-0.61  z" class="primitive"/>
  </g>
  <g transform="translate(55.38,27.06)">
    <path d="M-0.52,-1.86 L2.33,1.18 -1.81,0.68  z" class="primitive"/>
  </g>
  <g transform="translate(39.2,33.42)">
    <path d="M1.83,-0.61 L-1.06,2.38 -0.77,-1.77  z" class="primitive"/>
  </g>
  <g transform="translate(47.67,43.18)">
    <path d="M1.52,-1.19 L-0.2,2.6 -1.32,-1.41  z" class="primitive"/>
  </g>
  <g transform="translate(57.96,24.56)">
    <path d="M0.74,-1.79 L1.1,2.37 -1.84,-0.58  z" class="primitive"/>
  </g>
  <g transform="translate(25.88,64.67)">
    <path d="M-1.5,-1.22 L2.58,-0.38 -1.08,1.6  z" class="primitive"/>
  </g>
  <g transform="translate(80.06,32.84)">
    <path d="M1.89,-0.41 L-1.32,2.25 -0.57,-1.85  z" class="primitive"/>
  </g>
  <g transform="translate(11.06,72.04)">
    <path d="M-0.59,1.84 L-1.3,-2.27 1.89,0.43  z" class="primitive"/>
  </g>
  <g transform="translate(29.02,68.86)">
    <path d="M-1.84,0.59 L1.09,-2.37 0.75,1.78  z" class="primitive"/>
  </g>
  <g transform="translate(12.21,63.36)">
    <path d="M1.93,0.08 L-1.84,1.85 -0.09,-1.93  z" class="primitive"/>
  </g>
  <g transform="translate(23.8,42.35)">
    <path d="M1.66,0.99 L-2.5,0.74 0.85,-1.74  z" class="primitive"/>
  </g>
  <g transform="translate(25.66,88.69)">
    <path d="M1.12,1.57 L-2.59,-0.32 1.47,-1.26  z" class="primitive"/>
  </g>
  <g transform="translate(66.78,69.87)">
    <path d="M-1.93,0.16 L1.6,-2.06 0.33,1.9  z" class="primitive"/>
  </g>
  <g transform="translate(29.97,20.33)">
    <path d="M-1.85,0.55 L1.14,-2.35 0.71,1.8  z" class="primitive"/>
  </g>
  <g transform="translate(19.99,82.52)">
    <path d="M1.37,-1.36 L0.1,2.61 -1.47,-1.25  z" class="primitive"/>
  </g>
  <g transform="translate(49.54,86.18)">
    <path d="M1.34,-1.39 L0.16,2.61 -1.5,-1.22  z" class="primitive"/>
  </g>
  <g transform="translate(23.96,44.81)">
    <path d="M1.06,1.62 L-2.58,-0.43 1.52,-1.19  z" class="primitive"/>
  </g>
  <g transform="translate(65.72,62.26)">
    <path d="M-0.21,-1.92 L2.1,1.55 -1.9,0.37  z" class="primitive"/>
  </g>
  <g transform="translate(42.45,38.32)">
    <path d="M1.33,1.4 L-2.61,0.05 1.27,-1.45  z" class="primitive"/>
  </g>
  <g transform="translate(71.51,60.19)">
    <path d="M1.7,-0.91 L-0.65,2.53 -1.06,-1.62  z" class="primitive"/>
  </g>
  <g transform="translate(86.81,15.52)">
    <path d="M-1.82,-0.65 L2.31,-1.22 -0.49,1.87  z" class="primitive"/>
  </g>
  <g transform="translate(34.87,59.67)">
    <path d="M1.93,-0.08 L-1.68,2 -0.25,-1.92  z" class="primitive"/>
  </g>
  <g transform="translate(68.69,60.22)">
    <path d="M1.03,-1.64 L0.69,2.52 -1.72,-0.88  z" class="primitive"/>
  </g>
  <g transform="translate(13.77,66.46)">
    <path d="M1.5,1.22 L-2.58,0.38 1.08,-1.6  z" class="primitive"/>
  </g>
  <g transform="translate(35.77,43.81)">
    <path d="M-1.67,0.97 L0.56,-2.55 1.11,1.58  z" class="primitive"/>
  </g>
  <g transform="translate(75.92,42.92)">
    <path d="M-1.7,0.91 L0.65,-2.53 1.06,1.62  z" class="primitive"/>
  </g>
</g>
<g font-size="4" fill="#000000" id="img-0b15a8ab-6">
</g>
<g stroke-width="0" stroke="#000000" stroke-opacity="0.000" fill="#40E0D0" id="img-0b15a8ab-7">
  <g transform="translate(32.37,15.39)">
    <circle cx="0" cy="0" r="2.77" class="primitive"/>
  </g>
  <g transform="translate(50.39,8.33)">
    <circle cx="0" cy="0" r="2.77" class="primitive"/>
  </g>
  <g transform="translate(8.33,67.27)">
    <circle cx="0" cy="0" r="2.77" class="primitive"/>
  </g>
  <g transform="translate(91.67,12.95)">
    <circle cx="0" cy="0" r="2.77" class="primitive"/>
  </g>
  <g transform="translate(20.2,88.02)">
    <circle cx="0" cy="0" r="2.77" class="primitive"/>
  </g>
  <g transform="translate(36.95,38.44)">
    <circle cx="0" cy="0" r="2.77" class="primitive"/>
  </g>
  <g transform="translate(49.88,91.67)">
    <circle cx="0" cy="0" r="2.77" class="primitive"/>
  </g>
  <g transform="translate(18.53,43.91)">
    <circle cx="0" cy="0" r="2.77" class="primitive"/>
  </g>
  <g transform="translate(47.25,48.66)">
    <circle cx="0" cy="0" r="2.77" class="primitive"/>
  </g>
  <g transform="translate(77.28,37.59)">
    <circle cx="0" cy="0" r="2.77" class="primitive"/>
  </g>
  <g transform="translate(60.28,29.54)">
    <circle cx="0" cy="0" r="2.77" class="primitive"/>
  </g>
  <g transform="translate(31.32,63.87)">
    <circle cx="0" cy="0" r="2.77" class="primitive"/>
  </g>
  <g transform="translate(70.14,65.52)">
    <circle cx="0" cy="0" r="2.77" class="primitive"/>
  </g>
</g>
<g font-family="Helvetica" font-size="4" fill="#000000" id="img-0b15a8ab-8">
</g>
<g font-family="Helvetica" font-size="4" fill="#000000" id="img-0b15a8ab-9">
  <g transform="translate(50,0)">
    <g class="primitive">
      <text text-anchor="middle" dy="0.35em"></text>
    </g>
  </g>
</g>
</svg>
