<svg xmlns="http://www.w3.org/2000/svg" width="197.6625" height="46.2938" viewBox="0 0 197.6625 46.2938">
  <defs>
    <style>
      .cls-1 {
        fill: #fff;
      }

      .cls-2 {
        fill: #1d7161;
      }

      .cls-3 {
        fill: #299f88;
      }

      .cls-4 {
        fill: #37493e;
      }
    </style>
  </defs>
  <g id="Layer_2" data-name="Layer 2">
    <g id="Capa_1" data-name="Capa 1">
      <g id="Layer_2-2" data-name="Layer 2">
        <g id="Capa_1-2" data-name="Capa 1-2">
          <rect class="cls-1" x="12.375" y="12.6562" width="20.9812" height="19.5188"/>
          <path class="cls-2" d="M26.775,13.05h0c-.0562,0-.0562,0-.0562.0563l.0562-.0563Z"/>
          <path class="cls-2" d="M26.7188,13.1063a4.978,4.978,0,0,0-.6751.9562c-.2812.5625-.5062,1.1813-.7312,1.7438L29.7,20.1938c.3938-.1688.7875-.2251,1.1812-.3938l.7875-.3938.8438-.5625-5.7937-5.7374Z"/>
          <path class="cls-2" d="M30.5438,12.9937l-2.3063.1126,5.1188,5.1187.45-.45a16.8521,16.8521,0,0,0,2.5875-2.3062c.0562-.0563.1687-.225.225-.2813a10.4093,10.4093,0,0,0-6.075-2.1938Z"/>
          <path class="cls-2" d="M24.9188,16.9313c-.1125.3374-.2813.6187-.3938.9-.5625,1.1813-.45,2.5875-.7312,3.8813.1125,0,.1687-.0562.2812-.0562a31.5242,31.5242,0,0,0,4.5563-1.0688Z"/>
          <path class="cls-2" d="M20.5875,23.0625A25.9094,25.9094,0,0,0,17.7188,24.3l3.2624,3.2625c.2813-.6187.675-1.2375.9-1.8563a31.1433,31.1433,0,0,0,.7875-3.0937C22.1625,22.7812,21.15,22.8937,20.5875,23.0625Z"/>
          <path class="cls-3" d="M9.7313,30.2062c.3937-.675.9-1.35,1.35-1.9687a14.7159,14.7159,0,0,1,2.7-2.5875l.7875-.5625.7875-.45a15.1664,15.1664,0,0,1,1.6313-.9,23.4116,23.4116,0,0,1,3.4875-1.2937,15.4325,15.4325,0,0,1,2.1937-.5063c0-.0562.2813,0,.2813-.0562.6187-2.7.9562-5.6813,2.3062-8.2125.1126-.1688.1688-.3938.2813-.5625h-10.35A9.3745,9.3745,0,0,0,5.7937,22.5a9.2407,9.2407,0,0,0,3.9376,7.7062Z"/>
          <path class="cls-2" d="M13.5,27.0563A15.8828,15.8828,0,0,0,9.9563,30.6a10.5089,10.5089,0,0,0,5.175,1.4063l3.2625-.1125c0,.0562-4.8938-4.8375-4.8938-4.8375Z"/>
          <path class="cls-3" d="M37.1813,15.8625c-.0563.0562-.0563.1125-.1126.1125a16.7933,16.7933,0,0,1-2.6437,2.6438,9.3765,9.3765,0,0,1-1.575,1.0125l-.7875.45-.8437.3938C29.025,21.6,26.55,21.7687,24.1875,22.1625c-.225.0562-.45.0562-.675.1125a31.07,31.07,0,0,1-2.5875,7.5938,16.7723,16.7723,0,0,1-1.4625,2.0249H30.5437A9.41,9.41,0,0,0,39.9375,22.5a8.8394,8.8394,0,0,0-.9-3.9937,9.3885,9.3885,0,0,0-1.8562-2.6438Z"/>
          <path class="cls-2" d="M20.5312,28.6313l-3.8249-3.825a9.0678,9.0678,0,0,0-1.0125.5625l-.675.5625-.7313.5062,4.725,4.725a10.1685,10.1685,0,0,0,1.0688-1.6312,4.4564,4.4564,0,0,0,.45-.9Z"/>
          <path class="cls-4" d="M30.5438,32.9625H15.1875a10.4344,10.4344,0,1,1-.0562-20.8687H30.5438a10.4344,10.4344,0,0,1,0,20.8687ZM15.1875,13.1063a9.3938,9.3938,0,1,0,0,18.7875H30.5437a9.3938,9.3938,0,1,0,0-18.7875Z"/>
          <path class="cls-1" d="M14.2875,20.0812a1.9688,1.9688,0,1,1,1.9687-1.9687,1.814,1.814,0,0,1-.675,1.4625,1.7816,1.7816,0,0,1-1.2937.5062Z"/>
          <path class="cls-4" d="M14.2875,16.65a1.4625,1.4625,0,1,1-1.4625,1.4625,1.3853,1.3853,0,0,1,.5062-1.0688,1.3177,1.3177,0,0,1,.9563-.3937m0-1.0125h0a2.4606,2.4606,0,0,0-2.475,2.475,2.475,2.475,0,1,0,4.95,0,2.7128,2.7128,0,0,0-.6188-1.6875A2.46,2.46,0,0,0,14.2875,15.6375Z"/>
          <path class="cls-3" d="M41.2875,20.7563h0a2.2434,2.2434,0,0,1,3.2063.1687h0a2.2436,2.2436,0,0,1-.1688,3.2063h0a2.2434,2.2434,0,0,1-3.2062-.1688h0A2.2459,2.2459,0,0,1,41.2875,20.7563Z"/>
          <path class="cls-4" d="M42.8063,25.2563h-.1688A2.7427,2.7427,0,0,1,40.725,24.3h0a2.7888,2.7888,0,1,1,3.9375.225,2.501,2.501,0,0,1-1.8562.7313Zm0-4.5563a1.7525,1.7525,0,0,0-1.7438,1.7437,1.8152,1.8152,0,0,0,.45,1.1813h0a1.704,1.704,0,0,0,1.2375.5625,1.6061,1.6061,0,0,0,1.2937-.45,1.7177,1.7177,0,0,0,.1125-2.475,1.9641,1.9641,0,0,0-1.35-.5625Z"/>
          <rect class="cls-1" x="28.8082" y="25.0398" width="3.375" height="3.375" transform="translate(-9.967 29.392) rotate(-45)"/>
          <path class="cls-4" d="M30.4875,25.0875l1.6313,1.6313L30.4875,28.35l-1.6312-1.6312,1.6312-1.6313m0-1.4625-.7312.7312L28.125,25.9875l-.7312.7312.7312.7313,1.6313,1.6312.7312.7313.7313-.7313L32.85,27.45l.7312-.7313-.7312-.7312-1.6312-1.6313Z"/>
          <rect class="cls-1" x="29.4847" y="6.5621" width="3.3751" height="3.3751" transform="translate(1.6438 21.2049) rotate(-38.5122)"/>
          <path class="cls-4" d="M31.3313,6.5812l1.4625,1.8-1.8,1.4625-1.4626-1.8,1.8-1.4626M31.5,5.175l-.7875.6188-1.8,1.4625-.7875.6187.6188.7875,1.4625,1.8.6187.7875.7875-.6187,1.8-1.4625L34.2,8.55l-.6187-.7875-1.4625-1.8L31.5,5.175Z"/>
          <rect class="cls-1" x="12.0925" y="35.3751" width="3.3751" height="3.3751" transform="translate(-20.0807 16.6426) rotate(-38.5122)"/>
          <path class="cls-4" d="M13.95,35.4375l1.4625,1.8-1.8,1.4625L12.15,36.9l1.8-1.4625m.1688-1.4625-.7875.6187-1.8,1.4625-.7874.6188.6187.7875,1.4625,1.8.6188.7875.7875-.6188,1.8-1.4625.7875-.6187L16.2,36.5625l-1.4625-1.8-.6187-.7875Z"/>
          <rect class="cls-4" y="18.45" width="5.6813" height="1.2937"/>
          <rect class="cls-4" y="25.1437" width="5.6813" height="1.2937"/>
          <rect class="cls-4" x="45.0563" y="21.6562" width="6.1312" height="1.2937"/>
          <polygon class="cls-1" points="3.994 41.737 8.55 41.119 6.863 45.338 3.994 41.737"/>
          <path class="cls-4" d="M7.7625,41.7937,6.6938,44.325,4.95,42.1312l2.8125-.3375M9.3938,40.5,7.65,40.725l-2.8125.3375-1.8562.225L4.1625,42.75l1.7438,2.1938,1.125,1.35.675-1.6313L8.775,42.1313,9.3938,40.5Z"/>
          <path class="cls-1" d="M39.7688,3.8812a1.6875,1.6875,0,1,1,1.6875-1.6875,1.6,1.6,0,0,1-.6188,1.2938A1.4849,1.4849,0,0,1,39.7688,3.8812Z"/>
          <path class="cls-4" d="M39.7688,1.0687A1.1813,1.1813,0,1,1,38.5875,2.25a1.1741,1.1741,0,0,1,.45-.9,1.0085,1.0085,0,0,1,.7313-.2813m0-1.0687h0A2.1614,2.1614,0,0,0,37.575,2.1938a2.1938,2.1938,0,0,0,4.3875,0,2.2881,2.2881,0,0,0-.45-1.35A2.3627,2.3627,0,0,0,39.7688,0Z"/>
          <path class="cls-4" d="M26.7188,13.1063l-.0563.0562A9.1371,9.1371,0,0,1,30.15,9.675h0l-.225-.45L29.7,8.7188c-.1687.0562-2.3062,1.0687-4.275,4.3875Z"/>
          <path class="cls-4" d="M24.8625,16.9875a12.2268,12.2268,0,0,0-.3937,1.35C24.5813,17.8312,24.75,17.3813,24.8625,16.9875Z"/>
          <path class="cls-4" d="M26.3812,13.6688a2.45,2.45,0,0,0-.225.3937C26.2125,13.95,26.325,13.7812,26.3812,13.6688Z"/>
          <path class="cls-4" d="M24.1312,15.9187a.0551.0551,0,0,1-.0562.0563C24.1312,15.975,24.1312,15.975,24.1312,15.9187Z"/>
          <path class="cls-4" d="M23.7938,21.5437a4.3454,4.3454,0,0,0,.1125-.8437,4.3531,4.3531,0,0,1-.1125.8437Z"/>
          <path class="cls-4" d="M24.075,19.9687c-.0562.2251-.0562.3938-.1125.6188C24.0188,20.3625,24.0188,20.1375,24.075,19.9687Z"/>
          <path class="cls-4" d="M33.6375,17.9438c.0562,0,.0562-.0563,0,0C33.6937,17.8875,33.6937,17.9438,33.6375,17.9438Z"/>
          <path class="cls-4" d="M34.2562,17.4375l.0563-.0562C34.3125,17.4375,34.3125,17.4375,34.2562,17.4375Z"/>
          <path class="cls-4" d="M24.2438,19.1813a1.9963,1.9963,0,0,0-.1126.5625C24.1875,19.575,24.1875,19.35,24.2438,19.1813Z"/>
          <path class="cls-4" d="M24.3,19.0125c.0563-.225.1125-.45.1688-.6188C24.4125,18.5625,24.3563,18.7875,24.3,19.0125Z"/>
          <path class="cls-4" d="M23.4,18.2812c0-.0562,0-.0562.0563-.1125A.1965.1965,0,0,0,23.4,18.2812Z"/>
          <path class="cls-4" d="M32.2313,20.1375a21.6633,21.6633,0,0,1-7.65,2.3625c-.2813.0562-.5625.1125-.9.1687A24.39,24.39,0,0,1,19.6875,31.95H18.3938a17.593,17.593,0,0,1-3.7125,3.6562L15.3,36.45c6.525-4.8375,8.1563-12.6563,8.3813-13.7813.2812-.0562.5625-.1125.9-.1687a24.26,24.26,0,0,0,7.65-2.3625c.45-.2813.9562-.5625,1.35-.8438Z"/>
          <path class="cls-4" d="M11.7562,28.8l.3376-.3375A.9555.9555,0,0,0,11.7562,28.8Z"/>
          <path class="cls-4" d="M10.7438,29.9812,10.8,29.925A.055.055,0,0,1,10.7438,29.9812Z"/>
          <path class="cls-4" d="M11.25,29.4187l.1687-.1687C11.3063,29.3063,11.3063,29.3625,11.25,29.4187Z"/>
          <path class="cls-4" d="M34.9875,18.1687c.1687-.1687.3375-.2812.5063-.45A3.6355,3.6355,0,0,1,34.9875,18.1687Z"/>
          <path class="cls-4" d="M40.6125,3.4312,39.6,3.6562a13.65,13.65,0,0,1,0,4.7813A15.6378,15.6378,0,0,1,36.45,15.3c.2813.225.5063.45.7875.675-.3375.3938-.675.7875-1.0687,1.1812a16.5913,16.5913,0,0,0,4.4437-8.4937,13.6374,13.6374,0,0,0,0-5.2313Z"/>
          <path class="cls-4" d="M34.3688,18.7312c.1687-.1125.3375-.2812.5625-.45A4.9252,4.9252,0,0,0,34.3688,18.7312Z"/>
          <path class="cls-4" d="M35.6063,17.6625l.5062-.5063Z"/>
          <path class="cls-4" d="M33.6375,19.2375c.1688-.1125.3938-.2813.5625-.3938C34.0312,18.9562,33.8625,19.0688,33.6375,19.2375Z"/>
          <path class="cls-4" d="M9.45,29.9812A21.1923,21.1923,0,0,0,5.6813,41.1187H6.6937a20.133,20.133,0,0,1,3.6-10.575A3.67,3.67,0,0,1,9.45,29.9812Z"/>
          <path class="cls-4" d="M23.0062,19.9687v-.1125C23.0625,19.9125,23.0625,19.9125,23.0062,19.9687Z"/>
          <path class="cls-4" d="M22.8938,20.8688v0Z"/>
          <path class="cls-4" d="M11.5312,27.5625Z"/>
          <path class="cls-4" d="M23.625,17.4938v0Z"/>
          <path class="cls-4" d="M10.8,28.35l.1688-.1687Q10.8,28.2656,10.8,28.35Z"/>
          <path class="cls-4" d="M9.6188,29.7563c.0562-.1126.1687-.2251.225-.3375A1.18,1.18,0,0,1,9.6188,29.7563Z"/>
          <path class="cls-4" d="M10.1813,29.0812c.0562-.1125.1687-.1687.2249-.2812A.5613.5613,0,0,0,10.1813,29.0812Z"/>
          <path class="cls-1" d="M19.6875,31.95a24.7713,24.7713,0,0,0,3.9938-9.2813c.2812-.0562.5625-.1125.9-.1687a22.8871,22.8871,0,0,0,7.65-2.3625,17.1166,17.1166,0,0,0,5.0062-4.2188,9.7846,9.7846,0,0,0-.7875-.675,16.11,16.11,0,0,1-4.725,3.9938,22.1773,22.1773,0,0,1-7.3687,2.25c-.1688.0562-.3938.0562-.5625.1125a20.4605,20.4605,0,0,1,2.925-8.4375H25.4813a22.04,22.04,0,0,0-2.7563,8.6062,20.6394,20.6394,0,0,0-8.3812,3.375A19.9924,19.9924,0,0,0,9.45,29.9812a7.3226,7.3226,0,0,0,.8438.5625,17.7629,17.7629,0,0,1,4.6125-4.5562,19.7075,19.7075,0,0,1,7.5937-3.15,23.6562,23.6562,0,0,1-4.1625,9.0562l1.35.0563Z"/>
          <path class="cls-4" d="M66.4875,18.5625a2.468,2.468,0,0,1,.5063,1.5187A2.3965,2.3965,0,0,1,66.15,22.05a3.7558,3.7558,0,0,1-2.4187.675H58.95V12.9937h4.6688a4.0016,4.0016,0,0,1,2.3062.6188,2.2473,2.2473,0,0,1,.8438,1.8562,2.7884,2.7884,0,0,1-.45,1.4625,2.112,2.112,0,0,1-1.1813.7875,2.3188,2.3188,0,0,1,1.35.8438ZM61.65,16.875H63q1.0125,0,1.0125-.8438c0-.5625-.3375-.9-1.0125-.9H61.65V16.875Zm2.5875,2.7563c0-.6188-.3375-.9-1.0687-.9H61.65v1.8h1.5188c.675,0,1.0687-.2813,1.0687-.9Z"/>
          <path class="cls-4" d="M68.1188,11.8687A1.7656,1.7656,0,0,1,69.3,11.475a1.6215,1.6215,0,0,1,1.125.3937,1.4086,1.4086,0,0,1,.45,1.0125,1.2014,1.2014,0,0,1-.45.9563,1.72,1.72,0,0,1-1.125.3937,1.8684,1.8684,0,0,1-1.1812-.3937,1.2877,1.2877,0,0,1-.45-.9563,1.156,1.156,0,0,1,.45-1.0125Zm2.475,3.0938v7.7063h-2.7V14.9625Z"/>
          <path class="cls-4" d="M77.5125,15.3562a3.3969,3.3969,0,0,1,1.4625,1.35,3.8149,3.8149,0,0,1,.5063,2.0813,4.38,4.38,0,0,1-.5063,2.0813,3.3969,3.3969,0,0,1-1.4625,1.35,4.899,4.899,0,0,1-4.1625,0,3.7738,3.7738,0,0,1-1.4625-1.35,3.814,3.814,0,0,1-.5062-2.0813,4.38,4.38,0,0,1,.5062-2.0813,3.3975,3.3975,0,0,1,1.4625-1.35A4.899,4.899,0,0,1,77.5125,15.3562Zm-2.9813,2.3063a1.8686,1.8686,0,0,0-.3937,1.1812,1.5194,1.5194,0,0,0,.3937,1.1813,1.159,1.159,0,0,0,.9563.3937,1.3274,1.3274,0,0,0,.9-.3937,1.8682,1.8682,0,0,0,.3938-1.1813,1.5193,1.5193,0,0,0-.3938-1.1812,1.1194,1.1194,0,0,0-.9-.3938,1.0179,1.0179,0,0,0-.9563.3938Z"/>
          <path class="cls-4" d="M86.3438,15.75a3.9549,3.9549,0,0,1,1.2937,2.3062H84.7687a1.34,1.34,0,0,0-.3375-.6187.8963.8963,0,0,0-.675-.225.9842.9842,0,0,0-.7875.3937,1.8488,1.8488,0,0,0-.2812,1.2375,1.9256,1.9256,0,0,0,.2812,1.2375.9123.9123,0,0,0,.7875.3938,1.0807,1.0807,0,0,0,.675-.225,1.3405,1.3405,0,0,0,.3375-.6187h2.8688a3.44,3.44,0,0,1-1.2937,2.3062,4.0369,4.0369,0,0,1-2.5313.8437,4.8517,4.8517,0,0,1-2.025-.45,4.0414,4.0414,0,0,1-1.4063-1.35A4.5452,4.5452,0,0,1,79.875,18.9a4.38,4.38,0,0,1,.5062-2.0813,3.26,3.26,0,0,1,1.4063-1.35,3.6912,3.6912,0,0,1,2.025-.45,2.9288,2.9288,0,0,1,2.5313.7313Z"/>
          <path class="cls-4" d="M94.1625,15.3562a3.3975,3.3975,0,0,1,1.4625,1.35,3.814,3.814,0,0,1,.5062,2.0813,4.38,4.38,0,0,1-.5062,2.0813,3.3975,3.3975,0,0,1-1.4625,1.35,4.899,4.899,0,0,1-4.1625,0,3.7731,3.7731,0,0,1-1.4625-1.35,3.8149,3.8149,0,0,1-.5063-2.0813,4.38,4.38,0,0,1,.5063-2.0813A3.3969,3.3969,0,0,1,90,15.3562,4.899,4.899,0,0,1,94.1625,15.3562Zm-2.9812,2.3063a1.8681,1.8681,0,0,0-.3938,1.1812,1.5192,1.5192,0,0,0,.3938,1.1813,1.1587,1.1587,0,0,0,.9562.3937,1.3274,1.3274,0,0,0,.9-.3937,1.8682,1.8682,0,0,0,.3938-1.1813,1.5193,1.5193,0,0,0-.3938-1.1812,1.1194,1.1194,0,0,0-.9-.3938,1.0176,1.0176,0,0,0-.9562.3938Z"/>
          <path class="cls-4" d="M109.4062,15.8063a3.3322,3.3322,0,0,1,.8438,2.4187v4.5h-2.7V18.6188a1.5277,1.5277,0,0,0-.3375-.9563,1.2774,1.2774,0,0,0-.9-.3375,1.5277,1.5277,0,0,0-.9563.3375,1.3123,1.3123,0,0,0-.3375,1.0125v4.1062h-2.7V18.675a1.5277,1.5277,0,0,0-.3375-.9563,1.2774,1.2774,0,0,0-.9-.3374,1.5277,1.5277,0,0,0-.9562.3374,1.3121,1.3121,0,0,0-.3375,1.0125v4.1063h-2.7v-7.875h2.7v1.1812a2.75,2.75,0,0,1,.9-.9,3.0482,3.0482,0,0,1,1.4062-.3375,2.9194,2.9194,0,0,1,1.5188.3937,2.463,2.463,0,0,1,1.0125,1.125,3.2343,3.2343,0,0,1,1.0687-1.0687,2.786,2.786,0,0,1,1.5188-.3938,2.6556,2.6556,0,0,1,2.1937.8438Z"/>
          <path class="cls-4" d="M118.0125,15.3562a3.4378,3.4378,0,0,1,1.1813,1.35,5.3255,5.3255,0,0,1,.45,2.0813,4.34,4.34,0,0,1-.45,2.0813,3.0481,3.0481,0,0,1-1.1813,1.35,2.56,2.56,0,0,1-1.6875.45,3.05,3.05,0,0,1-1.4062-.3375,2.4538,2.4538,0,0,1-.9-.9563v4.8938h-2.7V14.9625h2.7V16.2a2.1079,2.1079,0,0,1,.9-.9562,3.0482,3.0482,0,0,1,1.4062-.3375,3.436,3.436,0,0,1,1.6875.45Zm-3.5437,2.3063a1.9686,1.9686,0,0,0,0,2.3625,1.4086,1.4086,0,0,0,1.0124.45,1.3553,1.3553,0,0,0,1.0125-.3938,1.9686,1.9686,0,0,0,0-2.3625,1.1735,1.1735,0,0,0-1.0125-.3937,1.1338,1.1338,0,0,0-1.0124.3375Z"/>
          <path class="cls-4" d="M128.3625,14.9625v7.7063h-2.7V21.375a3.27,3.27,0,0,1-.9562,1.0125,2.7249,2.7249,0,0,1-1.4625.3938,2.5,2.5,0,0,1-2.0813-.9,3.675,3.675,0,0,1-.7875-2.4188V15.0188h2.7V19.125a1.57,1.57,0,0,0,.3375,1.0125,1.1587,1.1587,0,0,0,.9563.3938,1.2728,1.2728,0,0,0,1.2937-1.4625V14.9625Z"/>
          <path class="cls-4" d="M134.2125,20.3625v2.3062h-1.125a3.2,3.2,0,0,1-2.1937-.675,2.9975,2.9975,0,0,1-.7875-2.3062V17.2687h-1.0125v-2.25h1.0125V13.1625h2.7v1.8562h1.4062v2.25h-1.4062v2.4751a.7852.7852,0,0,0,.1687.5062.9075.9075,0,0,0,.5063.1688h.7312Z"/>
          <path class="cls-4" d="M139.4438,15.2438a2.4549,2.4549,0,0,1,.9.9562V14.9625h2.7v7.7063h-2.7V21.4875a2.1092,2.1092,0,0,1-.9.9563,3.05,3.05,0,0,1-1.4063.3374,3.6049,3.6049,0,0,1-1.6875-.45,3.4369,3.4369,0,0,1-1.1812-1.35,5.5459,5.5459,0,0,1-.45-2.0812,4.3382,4.3382,0,0,1,.45-2.0813,3.0479,3.0479,0,0,1,1.1812-1.35,2.56,2.56,0,0,1,1.6875-.45,1.99,1.99,0,0,1,1.4063.2251Zm-1.5188,2.4187a1.969,1.969,0,0,0,0,2.3625,1.1737,1.1737,0,0,0,1.0125.3937,1.4082,1.4082,0,0,0,1.0125-.45,1.5192,1.5192,0,0,0,.3938-1.1812,1.8679,1.8679,0,0,0-.3938-1.1812,1.4082,1.4082,0,0,0-1.0125-.45,1.7454,1.7454,0,0,0-1.0125.5062Z"/>
          <path class="cls-4" d="M148.8375,20.3625v2.3062h-1.125a3.2,3.2,0,0,1-2.1937-.675,2.9975,2.9975,0,0,1-.7875-2.3062V17.2687h-1.0125v-2.25h1.0125V13.1625h2.7v1.8562h1.4062v2.25h-1.4062v2.4751a.7852.7852,0,0,0,.1687.5062.9075.9075,0,0,0,.5063.1688h.7312Z"/>
          <path class="cls-4" d="M150.075,11.8687a1.7659,1.7659,0,0,1,1.1813-.3937,1.6218,1.6218,0,0,1,1.125.3937,1.4089,1.4089,0,0,1,.45,1.0125,1.2017,1.2017,0,0,1-.45.9563,1.72,1.72,0,0,1-1.125.3937,1.8687,1.8687,0,0,1-1.1813-.3937,1.288,1.288,0,0,1-.45-.9563,1.3175,1.3175,0,0,1,.45-1.0125Zm2.475,3.0938v7.7063h-2.7V14.9625Z"/>
          <path class="cls-4" d="M159.525,15.3562a3.3969,3.3969,0,0,1,1.4625,1.35,3.8149,3.8149,0,0,1,.5063,2.0813,4.38,4.38,0,0,1-.5063,2.0813,3.3969,3.3969,0,0,1-1.4625,1.35,4.899,4.899,0,0,1-4.1625,0,3.7738,3.7738,0,0,1-1.4625-1.35,3.814,3.814,0,0,1-.5062-2.0813,4.38,4.38,0,0,1,.5062-2.0813,3.3975,3.3975,0,0,1,1.4625-1.35A4.8994,4.8994,0,0,1,159.525,15.3562Zm-3.0375,2.3063a1.8686,1.8686,0,0,0-.3937,1.1812,1.5194,1.5194,0,0,0,.3937,1.1813,1.1589,1.1589,0,0,0,.9563.3937,1.3274,1.3274,0,0,0,.9-.3937,1.8687,1.8687,0,0,0,.3937-1.1813,1.5192,1.5192,0,0,0-.3937-1.1812,1.29,1.29,0,0,0-1.8563,0Z"/>
          <path class="cls-4" d="M169.5375,15.8063a3.6521,3.6521,0,0,1,.7313,2.4187v4.5h-2.7V18.6188a1.852,1.852,0,0,0-.3375-1.0688,1.1587,1.1587,0,0,0-.9563-.3938,1.2335,1.2335,0,0,0-.9562.3938,1.4422,1.4422,0,0,0-.3375,1.0688V22.725h-2.7V14.9625h2.7v1.2938a3.2683,3.2683,0,0,1,.9562-1.0125,2.8842,2.8842,0,0,1,3.6.5625Z"/>
          <path class="cls-4" d="M176.5125,20.6437H179.55v2.025h-5.7375v-9.675h2.7v7.65Z"/>
          <path class="cls-4" d="M184.5563,15.2438a2.4549,2.4549,0,0,1,.9.9562V14.9625h2.7v7.7063h-2.7V21.4875a2.1092,2.1092,0,0,1-.9.9563,3.05,3.05,0,0,1-1.4063.3374,3.6049,3.6049,0,0,1-1.6875-.45,3.4379,3.4379,0,0,1-1.1813-1.35,5.5478,5.5478,0,0,1-.45-2.0812,4.3393,4.3393,0,0,1,.45-2.0813,3.0481,3.0481,0,0,1,1.1813-1.35,2.56,2.56,0,0,1,1.6875-.45,2.04,2.04,0,0,1,1.4063.2251Zm-1.5188,2.4187a1.969,1.969,0,0,0,0,2.3625,1.1737,1.1737,0,0,0,1.0125.3937,1.4082,1.4082,0,0,0,1.0125-.45,1.5192,1.5192,0,0,0,.3938-1.1812,1.8679,1.8679,0,0,0-.3938-1.1812,1.4082,1.4082,0,0,0-1.0125-.45,1.5938,1.5938,0,0,0-1.0125.5062Z"/>
          <path class="cls-4" d="M196.0313,15.3562a3.4375,3.4375,0,0,1,1.1812,1.35,5.3237,5.3237,0,0,1,.45,2.0813,4.34,4.34,0,0,1-.45,2.0813,3.0485,3.0485,0,0,1-1.1812,1.35,2.56,2.56,0,0,1-1.6875.45,3.05,3.05,0,0,1-1.4063-.3375,2.4545,2.4545,0,0,1-.9-.9563v1.2375h-2.7V12.5438h2.7V16.2a2.1087,2.1087,0,0,1,.9-.9563,3.05,3.05,0,0,1,1.4063-.3375A3.4371,3.4371,0,0,1,196.0313,15.3562Zm-3.5438,2.3063a1.969,1.969,0,0,0,0,2.3625,1.4089,1.4089,0,0,0,1.0125.45,1.3553,1.3553,0,0,0,1.0125-.3938,1.9686,1.9686,0,0,0,0-2.3625A1.1735,1.1735,0,0,0,193.5,17.325a1.0853,1.0853,0,0,0-1.0125.3375Z"/>
          <path class="cls-3" d="M61.8187,29.9812a1.5193,1.5193,0,0,1,.5625.9563h-.45a1.0433,1.0433,0,0,0-.3938-.675,1.0077,1.0077,0,0,0-.7875-.225,1.1342,1.1342,0,0,0-.6188.1687.9921.9921,0,0,0-.45.5063,1.9219,1.9219,0,0,0,0,1.575,1.3281,1.3281,0,0,0,.45.5062,1.1342,1.1342,0,0,0,.6188.1688,1.2912,1.2912,0,0,0,.7875-.225,1.0436,1.0436,0,0,0,.3938-.675h.45a1.3122,1.3122,0,0,1-.5625.9562,1.9842,1.9842,0,0,1-2.025.1125,2.1592,2.1592,0,0,1-.6187-.6187,2.4021,2.4021,0,0,1,0-1.9688,1.1144,1.1144,0,0,1,.6187-.6187,1.6511,1.6511,0,0,1,.9-.225,1.378,1.378,0,0,1,1.125.2812Z"/>
          <path class="cls-3" d="M65.5875,29.8688a1.3186,1.3186,0,0,1,.6188.6187,2.4026,2.4026,0,0,1,0,1.9687,1.3193,1.3193,0,0,1-.6188.6188,2.0258,2.0258,0,0,1-1.8,0,1.6265,1.6265,0,0,1-.6188-.6188,2.4026,2.4026,0,0,1,0-1.9687,1.6261,1.6261,0,0,1,.6188-.6187,1.7261,1.7261,0,0,1,1.8,0Zm-1.575.3374a1.1042,1.1042,0,0,0-.5062.5063,1.9214,1.9214,0,0,0,0,1.575.7981.7981,0,0,0,.5062.45,1.4978,1.4978,0,0,0,.675.1688,1.1342,1.1342,0,0,0,.6188-.1688,1.3275,1.3275,0,0,0,.5062-.45,1.9214,1.9214,0,0,0,0-1.575,1.1042,1.1042,0,0,0-.5062-.5063,1.2823,1.2823,0,0,0-.6188-.1687,1.4977,1.4977,0,0,0-.675.1687Z"/>
          <path class="cls-3" d="M72.5062,29.9812A1.7655,1.7655,0,0,1,72.9,31.1625v2.0812h-.45v-2.025a1.3233,1.3233,0,0,0-.2812-.9.7829.7829,0,0,0-.7875-.2812,1.1449,1.1449,0,0,0-.8438.3375,1.278,1.278,0,0,0-.2812,1.0125V33.3h-.45V31.275a1.3232,1.3232,0,0,0-.2813-.9.7831.7831,0,0,0-.7875-.2813,1.1447,1.1447,0,0,0-.8437.3375,1.2786,1.2786,0,0,0-.2813,1.0125v1.9125h-.45V29.8125h.45v.8437a1.12,1.12,0,0,1,.45-.675,1.4906,1.4906,0,0,1,1.575,0,1.25,1.25,0,0,1,.45.7313,1.3387,1.3387,0,0,1,.5063-.7313,1.0081,1.0081,0,0,1,.7874-.225,1.0931,1.0931,0,0,1,1.125.225Z"/>
          <path class="cls-3" d="M76.5,29.8688a1.4573,1.4573,0,0,1,.5625.6187,2.4018,2.4018,0,0,1,0,1.9687,1.2193,1.2193,0,0,1-.5625.6188,1.5868,1.5868,0,0,1-.8438.225,1.5559,1.5559,0,0,1-.9-.2813,1.3383,1.3383,0,0,1-.5062-.7312v2.6437H73.8V29.7h.45v.9562a1.7126,1.7126,0,0,1,.5062-.7312,1.8672,1.8672,0,0,1,.9-.2813,1.587,1.587,0,0,1,.8438.2251Zm-1.6875.3374a.7985.7985,0,0,0-.45.5063,1.7917,1.7917,0,0,0,0,1.5187,1.3286,1.3286,0,0,0,.45.5063,1.4978,1.4978,0,0,0,.675.1688,1.2337,1.2337,0,0,0,.9563-.3938,1.6159,1.6159,0,0,0,0-2.0812,1.2337,1.2337,0,0,0-.9563-.3938,1.4977,1.4977,0,0,0-.675.1687Z"/>
          <path class="cls-3" d="M81.1125,29.7v3.5438h-.45v-.9a1.1045,1.1045,0,0,1-.5062.7312A1.5788,1.5788,0,0,1,78.3,32.9063a1.7659,1.7659,0,0,1-.3937-1.1813V29.6438h.45v2.025a1.2389,1.2389,0,0,0,.2812.9,1.1107,1.1107,0,0,0,.7875.3375,1.1449,1.1449,0,0,0,.8438-.3375,1.5707,1.5707,0,0,0,.3375-1.0125V29.6438l.5062.0562Z"/>
          <path class="cls-3" d="M83.6438,32.85v.3937h-.45a1.291,1.291,0,0,1-.7875-.225,1.164,1.164,0,0,1-.2813-.8437V30.0937h-.5625V29.7h.5625v-.9h.45v.9h.9563v.3937H82.575V32.175a1.3448,1.3448,0,0,0,.1125.5063.54.54,0,0,0,.5063.1124h.45Z"/>
          <path class="cls-3" d="M84.2625,28.4062a.4272.4272,0,0,1,.225-.1125c.1125,0,.1687,0,.225.1125a.3387.3387,0,0,1-.225.5626c-.1125,0-.1687,0-.225-.1125a.2814.2814,0,0,1,0-.45Zm.45,1.2938v3.5438h-.45V29.7Z"/>
          <path class="cls-3" d="M88.425,29.9812a1.7655,1.7655,0,0,1,.3938,1.1813v2.0812h-.45v-2.025a1.3234,1.3234,0,0,0-.2813-.9,1.11,1.11,0,0,0-.7875-.3375,1.1447,1.1447,0,0,0-.8437.3375,1.5707,1.5707,0,0,0-.3375,1.0125v1.9125h-.45V29.7h.45v.9a1.0035,1.0035,0,0,1,.5062-.675,1.3555,1.3555,0,0,1,.8438-.225,1.038,1.038,0,0,1,.9562.2812Z"/>
          <path class="cls-3" d="M92.0813,29.925a1.3383,1.3383,0,0,1,.5062.7312V29.7h.45v3.6a1.4651,1.4651,0,0,1-.225.8437,1.3545,1.3545,0,0,1-.5625.5625,2.3572,2.3572,0,0,1-.8438.2251,2.0286,2.0286,0,0,1-1.125-.3375,1.5457,1.5457,0,0,1-.5624-.9h.45a1.18,1.18,0,0,0,.45.6187,1.2912,1.2912,0,0,0,.7875.225,1.1342,1.1342,0,0,0,.6188-.1687,1.152,1.152,0,0,0,.45-.45,1.4976,1.4976,0,0,0,.1687-.6749V32.175a1.7135,1.7135,0,0,1-.5062.7313,1.8681,1.8681,0,0,1-.9.2812,1.4645,1.4645,0,0,1-.8438-.225,2.1592,2.1592,0,0,1-.6187-.6187,2.4021,2.4021,0,0,1,0-1.9688,1.2194,1.2194,0,0,1,.5625-.6187,1.5867,1.5867,0,0,1,.8437-.225,2.1933,2.1933,0,0,1,.9.3937Zm-1.7438.5063a1.6159,1.6159,0,0,0,0,2.0812,1.2339,1.2339,0,0,0,.9563.3937,1.4977,1.4977,0,0,0,.675-.1687.7986.7986,0,0,0,.45-.5063,1.7917,1.7917,0,0,0,0-1.5187,1.3286,1.3286,0,0,0-.45-.5063,1.4977,1.4977,0,0,0-.675-.1687,1.2337,1.2337,0,0,0-.9563.3938Z"/>
          <path class="cls-3" d="M100.4062,29.7l-1.0687,3.5438h-.5062l-1.0688-3.0376-1.0687,3.0376h-.45L95.175,29.7h.45l.8438,3.0938L97.5375,29.7h.45l1.0688,3.0938L99.9,29.7Z"/>
          <path class="cls-3" d="M100.8563,28.4062a.4265.4265,0,0,1,.225-.1125c.1125,0,.1687,0,.225.1125a.3387.3387,0,0,1-.225.5626c-.1125,0-.1688,0-.225-.1125a.2814.2814,0,0,1,0-.45Zm.5062,1.2938v3.5438h-.45V29.7Z"/>
          <path class="cls-3" d="M103.8375,32.85v.3937h-.45a1.2912,1.2912,0,0,1-.7875-.225,1.1644,1.1644,0,0,1-.2812-.8437V30.0937h-.5625V29.7h.5625v-.9h.45v.9h.9562v.3937h-.9562V32.175a1.3429,1.3429,0,0,0,.1125.5063.54.54,0,0,0,.5062.1124h.45Z"/>
          <path class="cls-3" d="M107.2688,29.9812a1.7659,1.7659,0,0,1,.3937,1.1813v2.0812h-.45v-2.025a1.3233,1.3233,0,0,0-.2812-.9,1.1107,1.1107,0,0,0-.7875-.3375,1.1449,1.1449,0,0,0-.8438.3375,1.5707,1.5707,0,0,0-.3375,1.0125v1.9125h-.45V28.4062h.45v2.1375a1.0041,1.0041,0,0,1,.5063-.675,1.3558,1.3558,0,0,1,.8437-.225,1.19,1.19,0,0,1,.9563.3375Z"/>
          <path class="cls-3" d="M112.1625,29.925a1.5475,1.5475,0,0,1,.45.8437h-.45a.6924.6924,0,0,0-.2813-.5625.8967.8967,0,0,0-.675-.225.95.95,0,0,0-.5625.1688.6943.6943,0,0,0-.225.45.8.8,0,0,0,.1125.3375,1.1782,1.1782,0,0,0,.3376.225,1.6436,1.6436,0,0,0,.5062.1125c.225.0562.45.1125.6188.1687a1.01,1.01,0,0,1,.3937.2813.95.95,0,0,1,.1688.5625.8022.8022,0,0,1-.3375.675,1.5163,1.5163,0,0,1-.8438.2812,2.1059,2.1059,0,0,1-1.0125-.2812,1.0684,1.0684,0,0,1-.45-.8438h.45a.6922.6922,0,0,0,.2813.5625,1.13,1.13,0,0,0,.7312.225.785.785,0,0,0,.5062-.1687.6384.6384,0,0,0,.1688-.45.6033.6033,0,0,0-.1125-.3375,1.1757,1.1757,0,0,0-.3375-.225l-.5063-.1688c-.225-.0562-.3937-.1125-.6187-.1687a1.0094,1.0094,0,0,1-.3938-.2813.907.907,0,0,1-.1687-.5062.99.99,0,0,1,.3375-.7313,1.516,1.516,0,0,1,.8437-.2812,1.6219,1.6219,0,0,1,1.0688.3375Z"/>
          <path class="cls-3" d="M113.4563,29.7l1.2375,2.9813,1.125-2.9813h.5062l-2.0812,5.2313h-.5063l.7313-1.7438L112.95,29.6438h.5063Z"/>
          <path class="cls-3" d="M119.5875,29.9812a1.7655,1.7655,0,0,1,.3938,1.1813v2.0812h-.45v-2.025a1.3233,1.3233,0,0,0-.2812-.9,1.11,1.11,0,0,0-.7875-.3375,1.1447,1.1447,0,0,0-.8437.3375,1.5707,1.5707,0,0,0-.3376,1.0125v1.9125h-.45V29.7h.45v.9a1.0037,1.0037,0,0,1,.5063-.675,1.3552,1.3552,0,0,1,.8437-.225.9983.9983,0,0,1,.9563.2812Z"/>
          <path class="cls-3" d="M122.5125,32.85v.3937h-.45a1.291,1.291,0,0,1-.7875-.225,1.1644,1.1644,0,0,1-.2812-.8437V30.0937h-.5625V29.7h.5625v-.9h.45v.9H122.4v.3937h-.9562V32.175a1.3429,1.3429,0,0,0,.1125.5063.54.54,0,0,0,.5062.1124h.45Z"/>
          <path class="cls-3" d="M125.9438,29.9812a1.7659,1.7659,0,0,1,.3937,1.1813v2.0812h-.45v-2.025a1.3238,1.3238,0,0,0-.2812-.9,1.1107,1.1107,0,0,0-.7875-.3375,1.1449,1.1449,0,0,0-.8438.3375,1.5707,1.5707,0,0,0-.3375,1.0125v1.9125h-.45V28.4062h.45v2.1375a1.0043,1.0043,0,0,1,.5062-.675,1.3561,1.3561,0,0,1,.8438-.225,1.3372,1.3372,0,0,1,.9563.3375Z"/>
          <path class="cls-3" d="M129.5438,32.6813a1.0437,1.0437,0,0,0,.3937-.675h.5062a1.3132,1.3132,0,0,1-.5625.9,1.9838,1.9838,0,0,1-2.025.1124,2.158,2.158,0,0,1-.6187-.6187,2.4018,2.4018,0,0,1,0-1.9687,1.1142,1.1142,0,0,1,.6187-.6188,1.9125,1.9125,0,0,1,1.8,0,1.3559,1.3559,0,0,1,.5626.5625,1.8325,1.8325,0,0,1,.2249.7875V31.5h-2.925a1.5572,1.5572,0,0,0,.1688.7313,1.7135,1.7135,0,0,0,.45.45,1.1339,1.1339,0,0,0,.6188.1687.9762.9762,0,0,0,.7875-.1687ZM128.1375,30.15a1.1517,1.1517,0,0,0-.45.45,1.7323,1.7323,0,0,0-.1688.7312H130.05a1.0928,1.0928,0,0,0-.1688-.7312,1.2734,1.2734,0,0,0-1.7437-.45Z"/>
          <path class="cls-3" d="M132.8063,32.85v.3937h-.45a1.291,1.291,0,0,1-.7875-.225,1.164,1.164,0,0,1-.2813-.8437V30.0937h-.5625V29.7h.5625v-.9h.45v.9h.9563v.3937h-.9563V32.175a1.3448,1.3448,0,0,0,.1125.5063.54.54,0,0,0,.5063.1124h.45Z"/>
          <path class="cls-3" d="M133.425,28.4062a.4272.4272,0,0,1,.225-.1125c.1125,0,.1688,0,.225.1125a.3387.3387,0,0,1-.225.5626c-.1125,0-.1687,0-.225-.1125a.2814.2814,0,0,1,0-.45Zm.45,1.2938v3.5438h-.45V29.7Z"/>
          <path class="cls-3" d="M137.475,29.9812a1.5193,1.5193,0,0,1,.5625.9563h-.45a1.0432,1.0432,0,0,0-.3937-.675,1.0077,1.0077,0,0,0-.7875-.225,1.1342,1.1342,0,0,0-.6188.1687.9927.9927,0,0,0-.45.5063,1.9219,1.9219,0,0,0,0,1.575,1.3283,1.3283,0,0,0,.45.5062,1.1342,1.1342,0,0,0,.6188.1688,1.2912,1.2912,0,0,0,.7875-.225,1.043,1.043,0,0,0,.3937-.675h.45a1.3122,1.3122,0,0,1-.5625.9562,1.9842,1.9842,0,0,1-2.025.1125,2.16,2.16,0,0,1-.6188-.6187,2.4029,2.4029,0,0,1,0-1.9688,1.1145,1.1145,0,0,1,.6188-.6187,1.6511,1.6511,0,0,1,.9-.225,1.3781,1.3781,0,0,1,1.125.2812Z"/>
          <path class="cls-3" d="M143.1,29.8688a1.4567,1.4567,0,0,1,.5625.6187,2.4018,2.4018,0,0,1,0,1.9687,1.2193,1.2193,0,0,1-.5625.6188,1.5867,1.5867,0,0,1-.8437.225,1.5559,1.5559,0,0,1-.9-.2813,1.338,1.338,0,0,1-.5063-.7312v.9562h-.45V28.4062h.45v2.25a1.7128,1.7128,0,0,1,.5063-.7312,1.8666,1.8666,0,0,1,.9-.2813A1.4644,1.4644,0,0,1,143.1,29.8688Zm-1.6312.3374a.799.799,0,0,0-.45.5063,1.7924,1.7924,0,0,0,0,1.5187,1.328,1.328,0,0,0,.45.5063,1.4974,1.4974,0,0,0,.6749.1688,1.2335,1.2335,0,0,0,.9563-.3938,1.6159,1.6159,0,0,0,0-2.0812,1.2337,1.2337,0,0,0-.9563-.3938,1.3359,1.3359,0,0,0-.6749.1687Z"/>
          <path class="cls-3" d="M144.6188,28.4062a.4265.4265,0,0,1,.225-.1125c.1124,0,.1687,0,.2249.1125a.3387.3387,0,0,1-.2249.5626c-.1125,0-.1688,0-.225-.1125a.2922.2922,0,0,1-.1125-.225C144.5625,28.5187,144.5625,28.4625,144.6188,28.4062ZM145.125,29.7v3.5438h-.45V29.7Z"/>
          <path class="cls-3" d="M148.5,29.8688a1.32,1.32,0,0,1,.6188.6187,2.4026,2.4026,0,0,1,0,1.9687,1.32,1.32,0,0,1-.6188.6188,2.0258,2.0258,0,0,1-1.8,0,1.6279,1.6279,0,0,1-.6188-.6188,2.4026,2.4026,0,0,1,0-1.9687,1.6261,1.6261,0,0,1,.6188-.6187,1.7261,1.7261,0,0,1,1.8,0Zm-1.5187.3374a1.1044,1.1044,0,0,0-.5063.5063,1.9224,1.9224,0,0,0,0,1.575.7983.7983,0,0,0,.5063.45,1.4974,1.4974,0,0,0,.6749.1688,1.134,1.134,0,0,0,.6188-.1688,1.3267,1.3267,0,0,0,.5062-.45,1.9214,1.9214,0,0,0,0-1.575,1.1037,1.1037,0,0,0-.5062-.5063,1.282,1.282,0,0,0-.6188-.1687A1.1992,1.1992,0,0,0,146.9813,30.2062Z"/>
          <path class="cls-3" d="M150.5813,28.4062v4.8376h-.45V28.4063Z"/>
          <path class="cls-3" d="M154.0125,29.8688a1.3191,1.3191,0,0,1,.6188.6187,2.4026,2.4026,0,0,1,0,1.9687,1.3193,1.3193,0,0,1-.6188.6188,2.0258,2.0258,0,0,1-1.8,0,1.6268,1.6268,0,0,1-.6187-.6188,2.4018,2.4018,0,0,1,0-1.9687,1.6252,1.6252,0,0,1,.6187-.6187,1.7231,1.7231,0,0,1,1.8,0Zm-1.575.3374a1.1042,1.1042,0,0,0-.5062.5063,1.9214,1.9214,0,0,0,0,1.575.7981.7981,0,0,0,.5062.45,1.4978,1.4978,0,0,0,.675.1688,1.1342,1.1342,0,0,0,.6188-.1688,1.3282,1.3282,0,0,0,.5062-.45,1.9224,1.9224,0,0,0,0-1.575,1.1047,1.1047,0,0,0-.5062-.5063,1.2823,1.2823,0,0,0-.6188-.1687A1.2,1.2,0,0,0,152.4375,30.2062Z"/>
          <path class="cls-3" d="M158.0063,29.925a1.3378,1.3378,0,0,1,.5062.7312V29.7h.45v3.6a1.4651,1.4651,0,0,1-.225.8437,1.3545,1.3545,0,0,1-.5625.5625,2.3572,2.3572,0,0,1-.8437.2251,2.0281,2.0281,0,0,1-1.125-.3375,1.5454,1.5454,0,0,1-.5625-.9h.45a1.1789,1.1789,0,0,0,.45.6187,1.291,1.291,0,0,0,.7875.225,1.1336,1.1336,0,0,0,.6187-.1687,1.1513,1.1513,0,0,0,.45-.45,1.4977,1.4977,0,0,0,.1688-.6749V32.175a1.7137,1.7137,0,0,1-.5063.7313,1.8675,1.8675,0,0,1-.9.2812,1.4644,1.4644,0,0,1-.8437-.225,2.16,2.16,0,0,1-.6188-.6187,2.4029,2.4029,0,0,1,0-1.9688,1.2194,1.2194,0,0,1,.5625-.6187,1.5871,1.5871,0,0,1,.8438-.225,3.135,3.135,0,0,1,.9.3937Zm-1.8.5063a1.6157,1.6157,0,0,0,0,2.0812,1.2337,1.2337,0,0,0,.9562.3937,1.4977,1.4977,0,0,0,.675-.1687.7983.7983,0,0,0,.45-.5063,1.7917,1.7917,0,0,0,0-1.5187,1.3278,1.3278,0,0,0-.45-.5063,1.4977,1.4977,0,0,0-.675-.1687,1.317,1.317,0,0,0-.9562.3938Z"/>
          <path class="cls-3" d="M159.8625,28.4062a.4272.4272,0,0,1,.225-.1125c.1125,0,.1688,0,.225.1125a.3387.3387,0,0,1-.225.5626c-.1125,0-.1687,0-.225-.1125a.2814.2814,0,0,1,0-.45Zm.45,1.2938v3.5438h-.45V29.7Z"/>
          <path class="cls-3" d="M163.9125,29.9812a1.5193,1.5193,0,0,1,.5625.9563h-.45a1.0428,1.0428,0,0,0-.3937-.675,1.0077,1.0077,0,0,0-.7875-.225,1.1342,1.1342,0,0,0-.6188.1687.9927.9927,0,0,0-.45.5063,1.9219,1.9219,0,0,0,0,1.575,1.3283,1.3283,0,0,0,.45.5062,1.1342,1.1342,0,0,0,.6188.1688,1.2912,1.2912,0,0,0,.7875-.225,1.043,1.043,0,0,0,.3937-.675h.45a1.3122,1.3122,0,0,1-.5625.9562,1.9842,1.9842,0,0,1-2.025.1125,2.16,2.16,0,0,1-.6188-.6187,2.4029,2.4029,0,0,1,0-1.9688,1.1145,1.1145,0,0,1,.6188-.6187,1.6511,1.6511,0,0,1,.9-.225,1.3781,1.3781,0,0,1,1.125.2812Z"/>
          <path class="cls-3" d="M167.625,29.925a1.3378,1.3378,0,0,1,.5062.7312V29.7h.45v3.5438h-.45v-.9563a1.7129,1.7129,0,0,1-.5062.7313,1.8678,1.8678,0,0,1-.9.2812,1.4645,1.4645,0,0,1-.8438-.225,2.158,2.158,0,0,1-.6187-.6187,2.4021,2.4021,0,0,1,0-1.9688,1.2194,1.2194,0,0,1,.5625-.6187,1.5867,1.5867,0,0,1,.8437-.225,1.4718,1.4718,0,0,1,.9563.2812Zm-1.8.5063a1.6159,1.6159,0,0,0,0,2.0812,1.2339,1.2339,0,0,0,.9562.3937,1.4973,1.4973,0,0,0,.675-.1687.7983.7983,0,0,0,.45-.5063,1.7917,1.7917,0,0,0,0-1.5187,1.327,1.327,0,0,0-.45-.5063,1.4973,1.4973,0,0,0-.675-.1687,1.3174,1.3174,0,0,0-.9562.3938Z"/>
          <path class="cls-3" d="M169.9313,28.4062v4.8376h-.45V28.4063Z"/>
          <path class="cls-3" d="M174.4313,29.925a1.5488,1.5488,0,0,1,.45.8437h-.45a.6924.6924,0,0,0-.2813-.5625.8967.8967,0,0,0-.675-.225.95.95,0,0,0-.5625.1688.6943.6943,0,0,0-.225.45.8.8,0,0,0,.1125.3375,1.1778,1.1778,0,0,0,.3375.225,1.6442,1.6442,0,0,0,.5063.1125c.225.0562.45.1125.6187.1687a1.0094,1.0094,0,0,1,.3938.2813.95.95,0,0,1,.1687.5625.802.802,0,0,1-.3375.675,1.516,1.516,0,0,1-.8437.2812,2.1056,2.1056,0,0,1-1.0125-.2812,1.0681,1.0681,0,0,1-.45-.8438h.45a.6924.6924,0,0,0,.2812.5625,1.13,1.13,0,0,0,.7313.225.7852.7852,0,0,0,.5062-.1687.6388.6388,0,0,0,.1688-.45.6033.6033,0,0,0-.1125-.3375,1.1757,1.1757,0,0,0-.3375-.225l-.5063-.1688c-.225-.0562-.3937-.1125-.6187-.1687a1.0094,1.0094,0,0,1-.3938-.2813.907.907,0,0,1-.1687-.5062.99.99,0,0,1,.3375-.7313,1.6292,1.6292,0,0,1,1.9125.0563Z"/>
          <path class="cls-3" d="M175.725,29.7l1.2375,2.9813,1.125-2.9813h.5063l-2.0813,5.2313h-.5062l.7312-1.7438-1.5187-3.5437h.5062Z"/>
          <path class="cls-3" d="M181.125,29.925a1.5482,1.5482,0,0,1,.45.8437h-.45a.6925.6925,0,0,0-.2812-.5625.897.897,0,0,0-.675-.225.95.95,0,0,0-.5625.1688.6943.6943,0,0,0-.225.45.7988.7988,0,0,0,.1125.3375,1.1778,1.1778,0,0,0,.3375.225,1.6436,1.6436,0,0,0,.5062.1125c.225.0562.45.1125.6188.1687a1.01,1.01,0,0,1,.3937.2813.95.95,0,0,1,.1688.5625.802.802,0,0,1-.3375.675,1.516,1.516,0,0,1-.8438.2812,2.1059,2.1059,0,0,1-1.0125-.2812,1.0684,1.0684,0,0,1-.45-.8438h.45a.6922.6922,0,0,0,.2813.5625,1.13,1.13,0,0,0,.7312.225.7852.7852,0,0,0,.5063-.1687.6392.6392,0,0,0,.1687-.45A.6033.6033,0,0,0,180.9,31.95a1.1757,1.1757,0,0,0-.3375-.225l-.5062-.1688c-.225-.0562-.3938-.1125-.6188-.1687a1.0083,1.0083,0,0,1-.3937-.2813.9072.9072,0,0,1-.1688-.5062.99.99,0,0,1,.3375-.7313,1.516,1.516,0,0,1,.8438-.2812,1.6216,1.6216,0,0,1,1.0687.3375Z"/>
          <path class="cls-3" d="M183.9375,32.85v.3937h-.45a1.291,1.291,0,0,1-.7875-.225,1.164,1.164,0,0,1-.2812-.8437V30.0937h-.5625V29.7h.5625v-.9h.45v.9h.9562v.3937h-.9562V32.175a1.3429,1.3429,0,0,0,.1125.5063.54.54,0,0,0,.5062.1124h.45Z"/>
          <path class="cls-3" d="M186.975,32.6813a1.0438,1.0438,0,0,0,.3938-.675h.5062a1.3139,1.3139,0,0,1-.5625.9,1.9838,1.9838,0,0,1-2.025.1124,2.1584,2.1584,0,0,1-.6188-.6187,2.4026,2.4026,0,0,1,0-1.9687,1.1141,1.1141,0,0,1,.6188-.6188,1.9125,1.9125,0,0,1,1.8,0,1.3557,1.3557,0,0,1,.5625.5625,1.8312,1.8312,0,0,1,.225.7875V31.5H184.95a1.5572,1.5572,0,0,0,.1688.7313,1.712,1.712,0,0,0,.45.45,1.1336,1.1336,0,0,0,.6187.1687,1.0686,1.0686,0,0,0,.7875-.1687ZM185.5125,30.15a1.1517,1.1517,0,0,0-.45.45,1.7323,1.7323,0,0,0-.1688.7312h2.5313a1.0928,1.0928,0,0,0-.1688-.7312,1.2734,1.2734,0,0,0-1.7437-.45Z"/>
          <path class="cls-3" d="M193.8938,29.9812a1.7659,1.7659,0,0,1,.3937,1.1813v2.0812h-.45v-2.025a1.3234,1.3234,0,0,0-.2813-.9.7828.7828,0,0,0-.7875-.2812,1.1447,1.1447,0,0,0-.8437.3375,1.2784,1.2784,0,0,0-.2813,1.0125V33.3h-.45V31.275a1.3232,1.3232,0,0,0-.2812-.9.7831.7831,0,0,0-.7875-.2813,1.1449,1.1449,0,0,0-.8438.3375A1.2786,1.2786,0,0,0,189,31.4437v1.9125h-.45V29.8125H189v.8437a1.12,1.12,0,0,1,.45-.675,1.4906,1.4906,0,0,1,1.575,0,1.2508,1.2508,0,0,1,.45.7313,1.3381,1.3381,0,0,1,.5062-.7313,1.0085,1.0085,0,0,1,.7875-.225,1.0933,1.0933,0,0,1,1.1251.225Z"/>
          <path class="cls-3" d="M197.1563,29.925a1.5482,1.5482,0,0,1,.45.8437h-.45a.6924.6924,0,0,0-.2813-.5625.8967.8967,0,0,0-.675-.225.95.95,0,0,0-.5625.1688.6943.6943,0,0,0-.225.45.8.8,0,0,0,.1125.3375,1.1778,1.1778,0,0,0,.3375.225,1.6442,1.6442,0,0,0,.5063.1125c.225.0562.45.1125.6187.1687a1.0094,1.0094,0,0,1,.3938.2813.9508.9508,0,0,1,.1687.5625.802.802,0,0,1-.3375.675,1.516,1.516,0,0,1-.8437.2812,2.1056,2.1056,0,0,1-1.0125-.2812,1.0682,1.0682,0,0,1-.45-.8438h.45a.6924.6924,0,0,0,.2812.5625,1.13,1.13,0,0,0,.7313.225.7852.7852,0,0,0,.5062-.1687.6388.6388,0,0,0,.1688-.45.6033.6033,0,0,0-.1125-.3375,1.1757,1.1757,0,0,0-.3375-.225l-.5063-.1688c-.225-.0562-.3937-.1125-.6187-.1687a1.0094,1.0094,0,0,1-.3938-.2813.907.907,0,0,1-.1687-.5062.99.99,0,0,1,.3375-.7313,1.516,1.516,0,0,1,.8437-.2812,1.6221,1.6221,0,0,1,1.0688.3375Z"/>
        </g>
      </g>
    </g>
  </g>
</svg>
