<?xml version="1.0" encoding="UTF-8" standalone="no"?>
<!-- Created with Inkscape (http://www.inkscape.org/) -->

<svg
   width="263.14166mm"
   height="237.57213mm"
   viewBox="0 0 263.14167 237.57214"
   version="1.1"
   id="svg185107"
   inkscape:version="1.2.2 (b0a8486541, 2022-12-01)"
   sodipodi:docname="electrochemical.svg"
   xml:space="preserve"
   xmlns:inkscape="http://www.inkscape.org/namespaces/inkscape"
   xmlns:sodipodi="http://sodipodi.sourceforge.net/DTD/sodipodi-0.dtd"
   xmlns="http://www.w3.org/2000/svg"
   xmlns:svg="http://www.w3.org/2000/svg"><sodipodi:namedview
     id="namedview185109"
     pagecolor="#ffffff"
     bordercolor="#000000"
     borderopacity="0.25"
     inkscape:showpageshadow="2"
     inkscape:pageopacity="0.0"
     inkscape:pagecheckerboard="0"
     inkscape:deskcolor="#d1d1d1"
     inkscape:document-units="mm"
     showgrid="false"
     inkscape:zoom="0.77593293"
     inkscape:cx="336.36928"
     inkscape:cy="595.41228"
     inkscape:window-width="1271"
     inkscape:window-height="1395"
     inkscape:window-x="1926"
     inkscape:window-y="39"
     inkscape:window-maximized="0"
     inkscape:current-layer="layer1" /><defs
     id="defs185104"><inkscape:path-effect
       effect="bspline"
       id="path-effect5592"
       is_visible="true"
       lpeversion="1"
       weight="33.333333"
       steps="2"
       helper_size="0"
       apply_no_weight="true"
       apply_with_weight="true"
       only_selected="false" /><inkscape:path-effect
       effect="bspline"
       id="path-effect5287"
       is_visible="true"
       lpeversion="1"
       weight="33.333333"
       steps="2"
       helper_size="0"
       apply_no_weight="true"
       apply_with_weight="true"
       only_selected="false" /><marker
       style="overflow:visible"
       id="Arrow4"
       refX="0"
       refY="0"
       orient="auto-start-reverse"
       inkscape:stockid="Arrow4"
       markerWidth="5"
       markerHeight="6"
       viewBox="0 0 5 6"
       inkscape:isstock="true"
       inkscape:collect="always"
       preserveAspectRatio="xMidYMid"><path
         style="fill:context-stroke;fill-rule:evenodd;stroke:none"
         d="m 1,0 -3,3 h -2 l 3,-3 -3,-3 h 2 z"
         id="path1741" /></marker><inkscape:path-effect
       effect="spiro"
       id="path-effect3861"
       is_visible="true"
       lpeversion="1" /><inkscape:path-effect
       effect="spiro"
       id="path-effect186649"
       is_visible="true"
       lpeversion="1" /><inkscape:path-effect
       effect="spiro"
       id="path-effect186645"
       is_visible="true"
       lpeversion="1" /><inkscape:path-effect
       effect="spiro"
       id="path-effect186216"
       is_visible="true"
       lpeversion="1" /><inkscape:path-effect
       effect="spiro"
       id="path-effect186212"
       is_visible="true"
       lpeversion="1" /><inkscape:path-effect
       effect="spiro"
       id="path-effect186036"
       is_visible="true"
       lpeversion="1" /><inkscape:path-effect
       effect="spiro"
       id="path-effect185929"
       is_visible="true"
       lpeversion="1" /><inkscape:path-effect
       effect="spiro"
       id="path-effect185925"
       is_visible="true"
       lpeversion="1" /><inkscape:path-effect
       effect="bspline"
       id="path-effect185915"
       is_visible="true"
       lpeversion="1"
       weight="33.333333"
       steps="2"
       helper_size="0"
       apply_no_weight="true"
       apply_with_weight="true"
       only_selected="false" /><inkscape:path-effect
       effect="bspline"
       id="path-effect185911"
       is_visible="true"
       lpeversion="1"
       weight="33.333333"
       steps="2"
       helper_size="0"
       apply_no_weight="true"
       apply_with_weight="true"
       only_selected="false" /><inkscape:path-effect
       effect="bspline"
       id="path-effect185907"
       is_visible="true"
       lpeversion="1"
       weight="33.333333"
       steps="2"
       helper_size="0"
       apply_no_weight="true"
       apply_with_weight="true"
       only_selected="false" /><inkscape:path-effect
       effect="bspline"
       id="path-effect185903"
       is_visible="true"
       lpeversion="1"
       weight="33.333333"
       steps="2"
       helper_size="0"
       apply_no_weight="true"
       apply_with_weight="true"
       only_selected="false" /><inkscape:path-effect
       effect="spiro"
       id="path-effect186649-3"
       is_visible="true"
       lpeversion="1" /><inkscape:path-effect
       effect="spiro"
       id="path-effect186649-3-7"
       is_visible="true"
       lpeversion="1" /><inkscape:path-effect
       effect="spiro"
       id="path-effect186649-3-7-3"
       is_visible="true"
       lpeversion="1" /><inkscape:path-effect
       effect="spiro"
       id="path-effect186649-3-6"
       is_visible="true"
       lpeversion="1" /><inkscape:path-effect
       effect="spiro"
       id="path-effect186649-3-7-2"
       is_visible="true"
       lpeversion="1" /><inkscape:path-effect
       effect="spiro"
       id="path-effect186649-3-7-3-9"
       is_visible="true"
       lpeversion="1" /><inkscape:path-effect
       effect="spiro"
       id="path-effect186649-3-6-0"
       is_visible="true"
       lpeversion="1" /><inkscape:path-effect
       effect="spiro"
       id="path-effect186649-3-7-2-3"
       is_visible="true"
       lpeversion="1" /><inkscape:path-effect
       effect="spiro"
       id="path-effect186649-3-7-2-3-0"
       is_visible="true"
       lpeversion="1" /><inkscape:path-effect
       effect="spiro"
       id="path-effect186212-7"
       is_visible="true"
       lpeversion="1" /><inkscape:path-effect
       effect="spiro"
       id="path-effect186216-8"
       is_visible="true"
       lpeversion="1" /><inkscape:path-effect
       effect="spiro"
       id="path-effect186645-4"
       is_visible="true"
       lpeversion="1" /><inkscape:path-effect
       effect="spiro"
       id="path-effect186649-5"
       is_visible="true"
       lpeversion="1" /><inkscape:path-effect
       effect="spiro"
       id="path-effect186649-3-0"
       is_visible="true"
       lpeversion="1" /><inkscape:path-effect
       effect="spiro"
       id="path-effect186649-3-7-36"
       is_visible="true"
       lpeversion="1" /><inkscape:path-effect
       effect="spiro"
       id="path-effect186649-3-7-3-1"
       is_visible="true"
       lpeversion="1" /><inkscape:path-effect
       effect="spiro"
       id="path-effect186649-3-6-06"
       is_visible="true"
       lpeversion="1" /><inkscape:path-effect
       effect="spiro"
       id="path-effect186649-3-6-0-3"
       is_visible="true"
       lpeversion="1" /><inkscape:path-effect
       effect="spiro"
       id="path-effect186649-3-7-2-2"
       is_visible="true"
       lpeversion="1" /><inkscape:path-effect
       effect="spiro"
       id="path-effect186649-3-7-2-3-06"
       is_visible="true"
       lpeversion="1" /><inkscape:path-effect
       effect="spiro"
       id="path-effect186649-3-7-2-3-0-1"
       is_visible="true"
       lpeversion="1" /><inkscape:path-effect
       effect="spiro"
       id="path-effect186649-3-7-3-9-5"
       is_visible="true"
       lpeversion="1" /><inkscape:path-effect
       effect="spiro"
       id="path-effect186649-3-7-2-3-0-1-7"
       is_visible="true"
       lpeversion="1" /><inkscape:path-effect
       effect="spiro"
       id="path-effect186649-3-7-2-3-0-1-7-7"
       is_visible="true"
       lpeversion="1" /><inkscape:path-effect
       effect="spiro"
       id="path-effect186649-3-7-2-3-0-1-7-7-2"
       is_visible="true"
       lpeversion="1" /><inkscape:path-effect
       effect="spiro"
       id="path-effect186649-3-7-2-3-0-1-7-7-2-1"
       is_visible="true"
       lpeversion="1" /><inkscape:path-effect
       effect="spiro"
       id="path-effect186649-3-7-2-3-0-1-7-7-2-1-6"
       is_visible="true"
       lpeversion="1" /><inkscape:path-effect
       effect="spiro"
       id="path-effect186649-3-7-2-3-0-1-7-7-2-1-6-5"
       is_visible="true"
       lpeversion="1" /><inkscape:path-effect
       effect="spiro"
       id="path-effect186649-3-7-2-3-0-1-7-7-2-1-6-5-4"
       is_visible="true"
       lpeversion="1" /><inkscape:path-effect
       effect="spiro"
       id="path-effect186212-73"
       is_visible="true"
       lpeversion="1" /><inkscape:path-effect
       effect="spiro"
       id="path-effect186216-6"
       is_visible="true"
       lpeversion="1" /><inkscape:path-effect
       effect="spiro"
       id="path-effect186645-5"
       is_visible="true"
       lpeversion="1" /><inkscape:path-effect
       effect="spiro"
       id="path-effect186649-6"
       is_visible="true"
       lpeversion="1" /><inkscape:path-effect
       effect="spiro"
       id="path-effect186649-3-3"
       is_visible="true"
       lpeversion="1" /><inkscape:path-effect
       effect="spiro"
       id="path-effect186649-3-7-9"
       is_visible="true"
       lpeversion="1" /><inkscape:path-effect
       effect="spiro"
       id="path-effect186649-3-7-3-4"
       is_visible="true"
       lpeversion="1" /><inkscape:path-effect
       effect="spiro"
       id="path-effect186649-3-6-8"
       is_visible="true"
       lpeversion="1" /><inkscape:path-effect
       effect="spiro"
       id="path-effect186649-3-6-0-1"
       is_visible="true"
       lpeversion="1" /><inkscape:path-effect
       effect="spiro"
       id="path-effect186649-3-7-2-29"
       is_visible="true"
       lpeversion="1" /><inkscape:path-effect
       effect="spiro"
       id="path-effect186649-3-7-2-3-3"
       is_visible="true"
       lpeversion="1" /><inkscape:path-effect
       effect="spiro"
       id="path-effect186649-3-7-2-3-0-9"
       is_visible="true"
       lpeversion="1" /><inkscape:path-effect
       effect="spiro"
       id="path-effect186649-3-7-3-9-0"
       is_visible="true"
       lpeversion="1" /><inkscape:path-effect
       effect="spiro"
       id="path-effect186649-3-7-2-3-0-1-7-3"
       is_visible="true"
       lpeversion="1" /><inkscape:path-effect
       effect="spiro"
       id="path-effect186649-3-7-2-3-0-1-7-7-8"
       is_visible="true"
       lpeversion="1" /><inkscape:path-effect
       effect="spiro"
       id="path-effect186649-3-7-2-3-0-1-7-7-2-5"
       is_visible="true"
       lpeversion="1" /><inkscape:path-effect
       effect="spiro"
       id="path-effect186649-3-7-2-3-0-1-7-7-2-1-61"
       is_visible="true"
       lpeversion="1" /><inkscape:path-effect
       effect="spiro"
       id="path-effect186649-3-7-2-3-0-1-7-7-2-1-6-1"
       is_visible="true"
       lpeversion="1" /><inkscape:path-effect
       effect="spiro"
       id="path-effect186649-3-7-2-3-0-1-7-7-2-1-6-5-5"
       is_visible="true"
       lpeversion="1" /><inkscape:path-effect
       effect="spiro"
       id="path-effect186649-3-7-2-3-0-1-7-7-2-1-6-5-4-9"
       is_visible="true"
       lpeversion="1" /><clipPath
       clipPathUnits="userSpaceOnUse"
       id="clipPath202592"><rect
         style="fill:none;fill-opacity:0.260274;stroke:#000000;stroke-width:0.754049;stroke-linecap:round;stroke-dasharray:none;stroke-opacity:1"
         id="rect202594"
         width="283.29364"
         height="99.892906"
         x="37.451324"
         y="392.8822"
         ry="36.683743"
         rx="0" /></clipPath><inkscape:path-effect
       effect="spiro"
       id="path-effect186212-9"
       is_visible="true"
       lpeversion="1" /><inkscape:path-effect
       effect="spiro"
       id="path-effect186216-3"
       is_visible="true"
       lpeversion="1" /><inkscape:path-effect
       effect="spiro"
       id="path-effect186645-6"
       is_visible="true"
       lpeversion="1" /><inkscape:path-effect
       effect="spiro"
       id="path-effect186649-0"
       is_visible="true"
       lpeversion="1" /><inkscape:path-effect
       effect="spiro"
       id="path-effect186649-3-6-6"
       is_visible="true"
       lpeversion="1" /><inkscape:path-effect
       effect="spiro"
       id="path-effect186649-3-6-0-2"
       is_visible="true"
       lpeversion="1" /><inkscape:path-effect
       effect="spiro"
       id="path-effect186649-3-7-2-6"
       is_visible="true"
       lpeversion="1" /><inkscape:path-effect
       effect="spiro"
       id="path-effect186649-3-7-2-3-1"
       is_visible="true"
       lpeversion="1" /><inkscape:path-effect
       effect="spiro"
       id="path-effect186649-3-7-2-3-0-8"
       is_visible="true"
       lpeversion="1" /><inkscape:path-effect
       effect="spiro"
       id="path-effect186649-3-7-3-9-7"
       is_visible="true"
       lpeversion="1" /><marker
       style="overflow:visible"
       id="Arrow4-6"
       refX="0"
       refY="0"
       orient="auto-start-reverse"
       inkscape:stockid="Arrow4"
       markerWidth="5"
       markerHeight="6"
       viewBox="0 0 5 6"
       inkscape:isstock="true"
       inkscape:collect="always"
       preserveAspectRatio="xMidYMid"><path
         style="fill:context-stroke;fill-rule:evenodd;stroke:none"
         d="m 1,0 -3,3 h -2 l 3,-3 -3,-3 h 2 z"
         id="path1741-1" /></marker><inkscape:path-effect
       effect="spiro"
       id="path-effect3861-5"
       is_visible="true"
       lpeversion="1" /><inkscape:path-effect
       effect="bspline"
       id="path-effect5287-6"
       is_visible="true"
       lpeversion="1"
       weight="33.333333"
       steps="2"
       helper_size="0"
       apply_no_weight="true"
       apply_with_weight="true"
       only_selected="false" /><inkscape:path-effect
       effect="bspline"
       id="path-effect5592-7"
       is_visible="true"
       lpeversion="1"
       weight="33.333333"
       steps="2"
       helper_size="0"
       apply_no_weight="true"
       apply_with_weight="true"
       only_selected="false" /><inkscape:path-effect
       effect="spiro"
       id="path-effect3861-50"
       is_visible="true"
       lpeversion="1" /><inkscape:path-effect
       effect="spiro"
       id="path-effect3861-5-7"
       is_visible="true"
       lpeversion="1" /><inkscape:path-effect
       effect="spiro"
       id="path-effect3861-50-5"
       is_visible="true"
       lpeversion="1" /><inkscape:path-effect
       effect="spiro"
       id="path-effect3861-5-7-9"
       is_visible="true"
       lpeversion="1" /><inkscape:path-effect
       effect="spiro"
       id="path-effect3861-50-7"
       is_visible="true"
       lpeversion="1" /><inkscape:path-effect
       effect="spiro"
       id="path-effect3861-5-7-5"
       is_visible="true"
       lpeversion="1" /><inkscape:path-effect
       effect="spiro"
       id="path-effect3861-50-0"
       is_visible="true"
       lpeversion="1" /><inkscape:path-effect
       effect="spiro"
       id="path-effect3861-5-7-8"
       is_visible="true"
       lpeversion="1" /><inkscape:path-effect
       effect="spiro"
       id="path-effect3861-50-4"
       is_visible="true"
       lpeversion="1" /><inkscape:path-effect
       effect="spiro"
       id="path-effect3861-5-7-7"
       is_visible="true"
       lpeversion="1" /></defs><g
     inkscape:label="Layer 1"
     inkscape:groupmode="layer"
     id="layer1"
     transform="translate(-59.687092,-124.66053)"><rect
       style="fill:#ffffff;fill-opacity:1;stroke:#000000;stroke-width:1;stroke-linecap:round;stroke-dasharray:none;stroke-opacity:1"
       id="rect5444-4"
       width="261.08255"
       height="36.139969"
       x="60.192406"
       y="175.87584"
       ry="0"
       rx="0" /><rect
       style="fill:#ffffff;fill-opacity:1;stroke:#000000;stroke-width:1;stroke-linecap:round;stroke-dasharray:none;stroke-opacity:1"
       id="rect5444-4-3"
       width="261.08255"
       height="36.139969"
       x="60.187092"
       y="125.16053"
       ry="0"
       rx="0" /><rect
       style="fill:#ffffff;fill-opacity:1;stroke:#000000;stroke-width:1;stroke-linecap:round;stroke-dasharray:none;stroke-opacity:1"
       id="rect5444"
       width="261.52191"
       height="99.135384"
       x="60.381668"
       y="216.24844"
       ry="21.809816"
       rx="0" /><rect
       style="fill:#ffffff;fill-opacity:1;stroke:#000000;stroke-width:1;stroke-linecap:round;stroke-dasharray:none;stroke-opacity:1"
       id="rect5444-4-4"
       width="195.60957"
       height="36.273415"
       x="60.439293"
       y="325.19867"
       ry="0"
       rx="0" /><rect
       style="fill:#ffffff;fill-opacity:1;stroke:#000000;stroke-width:1;stroke-linecap:round;stroke-dasharray:none;stroke-opacity:1"
       id="rect5444-4-4-2"
       width="62.344059"
       height="36.619015"
       x="259.98471"
       y="325.11365"
       ry="0"
       rx="0" /><text
       xml:space="preserve"
       style="font-size:13.1591px;font-family:'IBM Plex Sans';-inkscape-font-specification:'IBM Plex Sans, Normal';text-align:center;text-anchor:middle;fill:#000000;fill-opacity:1;stroke:none;stroke-width:0.799999;stroke-linecap:round;stroke-dasharray:none;stroke-opacity:1"
       x="64.095619"
       y="76.279495"
       id="text194595"><tspan
         sodipodi:role="line"
         id="tspan194593"
         style="fill:#000000;fill-opacity:1;stroke-width:0.8"
         x="64.095619"
         y="76.279495" /></text><rect
       style="fill:#808000;fill-opacity:0.260274;stroke:#000000;stroke-width:0.750001;stroke-linecap:round;stroke-dasharray:none;stroke-opacity:1"
       id="rect199882"
       width="226.13095"
       height="77.331703"
       x="75.109558"
       y="229.57607"
       ry="38.665852" /><path
       style="fill:#00ffff;fill-opacity:0.260274;stroke:#000000;stroke-width:0.634069;stroke-linecap:round;stroke-dasharray:none;stroke-opacity:1"
       id="path199960"
       d="m 125.20966,245.18895 c -2.05502,-0.63199 -4.12084,-1.23279 -6.18268,-1.84424 -1.50387,-0.41982 -3.03108,-0.90961 -4.59548,-0.65243 -2.18354,0.66307 -3.29363,2.15326 -4.20104,4.14518 -0.63961,1.7988 -0.91278,3.70444 -0.84012,5.60808 0.0547,1.50619 0.51133,2.85237 1.55189,3.94557 1.6216,1.46433 3.38456,2.31792 5.46351,2.40371 1.53629,-0.10517 2.98922,0.0771 4.46264,0.50601 0.36897,0.13896 0.74261,0.26611 1.10691,0.41688 0.38775,0.16047 0.77066,0.33307 1.14814,0.51639 0.3719,0.18061 1.44719,0.7979 1.09902,0.57493 -3.79977,-2.43347 -0.96406,-0.44581 -0.22782,0.14985 1.20589,1.10563 1.60225,2.61861 1.80919,4.18057 0.16928,1.25851 0.0132,2.51036 -0.30801,3.73006 -0.28181,0.96939 -0.77403,1.86099 -1.14188,2.80114 -0.46756,1.11412 -1.14412,2.13622 -1.83158,3.12643 -0.72936,1.15576 -1.48471,2.2878 -2.39115,3.31169 -1.08351,1.22446 -2.46001,1.64797 -4.01633,1.92338 -1.48576,0.21728 -2.98982,0.22351 -4.48794,0.22476 -0.10733,-0.009 -1.1304,-0.0902 -1.24773,-0.11958 -0.1991,-0.0499 -0.74767,-0.3349 -0.57108,-0.23028 4.21081,2.49441 2.02072,1.10934 1.10753,0.14418 -1.13991,-1.62658 -2.07586,-3.40722 -2.58004,-5.33354 -0.24802,-1.39247 0.71294,-1.31668 1.81099,-1.42485 1.20709,-0.0756 2.41744,-0.0473 3.62585,-0.0291 1.35264,0.0626 4.49104,2.07642 -0.006,-0.5024 1.61462,0.89407 2.89499,2.20053 4.11811,3.55723 1.41838,1.7425 2.97313,3.36033 4.50395,5.00179 1.24908,1.50641 2.84823,2.60202 4.49339,3.62494 2.62644,1.94438 5.06059,2.86076 7.95748,3.94106 1.42612,0.52483 2.91917,0.73294 4.42597,0.83139 1.82652,0.22734 3.29661,-0.62538 4.7905,-1.54991 1.79234,-1.16156 3.15992,-2.85783 4.38355,-4.58326 1.57259,-1.84248 2.14386,-4.09144 2.55971,-6.41829 0.44526,-2.52587 0.35513,-5.06177 -0.13021,-7.56822 -0.52565,-2.44348 -1.83773,-4.49925 -3.35637,-6.4349 -1.84777,-2.22247 -4.37784,-3.40855 -6.86302,-4.80437 -1.17357,-0.56975 -2.43936,-0.85363 -3.72645,-1.00557 -0.92257,-0.0602 -2.00028,-0.28902 -2.73744,0.45337 -0.20694,0.20842 -0.33997,0.47904 -0.50995,0.71856 -1.04748,2.81036 -1.01317,5.91306 -0.86902,8.87338 0.23629,2.77391 0.93744,5.48542 1.42592,8.22343 0.51566,2.98109 0.71448,6.00189 0.81964,9.02136 0.16753,1.78457 -0.0293,2.87485 -0.92658,4.39945 -0.8228,1.29632 -2.1837,2.06094 -3.43397,2.8858 -1.84653,1.23427 -3.90665,1.89258 -6.06525,2.31178 -1.97643,0.28684 -3.98605,0.42311 -5.97922,0.27466 0.48647,0.36693 -2.82089,-1.0787 -2.09552,-0.86625 0.58041,0.17001 1.22789,1.12918 1.66789,0.71424 0.4038,-0.38081 -0.75436,-0.81614 -1.09589,-1.25367 -0.91928,-1.1777 -1.10793,-1.62258 -1.83452,-2.91038 -1.52512,-2.97955 -2.05438,-6.26397 -2.37972,-9.55524 -0.23963,-2.8879 -0.36744,-5.77179 0.3313,-8.60016 0.79604,-2.6622 2.20592,-5.01876 4.01517,-7.10458 1.804,-1.85492 3.99027,-3.26822 6.23925,-4.51923 1.44412,-0.76894 3.04014,-1.15902 4.57672,-1.69379 1.70954,-0.44142 3.386,-0.99567 5.05975,-1.55517 2.07505,-0.60589 3.99676,-1.48881 5.85823,-2.57824 2.0272,-1.29037 3.27962,-3.1639 4.06532,-5.38883 0.60924,-1.926 0.50866,-3.79166 -0.57068,-5.50552 -1.79089,-2.02508 -4.36235,-3.21352 -6.82438,-4.25698 -1.60635,-0.78194 -3.28571,-1.3928 -5.00689,-1.86425 -1.42045,-0.37411 -2.88195,-0.50734 -4.34453,-0.56293 -0.223,0.0521 -0.47098,0.0412 -0.669,0.15619 -1.436,0.83413 -1.7972,3.55843 -2.05636,5.02094 -0.15095,1.65465 -0.43777,3.26874 -1.35467,4.67689 -0.64945,0.76328 -1.60056,0.86166 -2.53967,0.92747 -0.89893,0.0719 -1.7612,0.021 -2.63459,-0.18323 -0.96856,-0.24736 -1.96264,-0.3089 -2.95678,-0.34728 -1.89979,-0.0237 -3.80146,-0.0708 -5.69779,0.0567 -2.7314,0.1419 -5.33186,1.10786 -7.82273,2.17404 -2.499583,1.04183 -3.671043,2.60757 -4.591387,5.07628 -0.642192,1.92773 -0.74267,3.95336 -0.790039,5.96626 -0.002,1.79782 0.601055,3.39786 1.608771,4.85875 1.335501,1.79965 3.409145,3.17071 5.582495,3.73122 0.70256,0.31523 1.46405,0.41804 2.22379,0.48215 0.74813,0.0487 1.49831,0.0442 2.24761,0.0427 0.94903,-0.004 1.89806,-0.006 2.8471,-0.007 0.91862,-6.8e-4 1.83724,1.4e-4 2.75586,0.002 0.93667,0.0669 1.70088,-0.29265 2.45428,-0.80588 1.35308,-1.07144 2.55703,-2.31908 3.78005,-3.53348 1.38162,-1.65142 2.52923,-3.49907 3.47452,-5.43068 0.86769,-1.90863 1.61887,-3.86788 2.22248,-5.87558 0.39815,-1.66297 0.85513,-3.31047 1.15979,-4.99419 0,0 -2.94111,-1.56203 -2.94111,-1.56203 v 0 c -0.27198,1.68031 -0.71153,3.32214 -1.1091,4.97577 -0.5956,1.991 -1.33478,3.93814 -2.19013,5.83206 -0.92748,1.8989 -2.06208,3.7133 -3.42434,5.33203 -1.21369,1.19789 -2.41239,2.43009 -3.77992,3.45464 -0.73555,0.45932 -1.47414,0.70676 -2.35405,0.64024 -0.91662,0.002 -1.83323,0.003 -2.74984,0.003 -0.95127,6.7e-4 -1.90253,0.003 -2.85378,0.002 -0.74353,-0.003 -1.48863,-0.002 -2.22966,-0.0709 -0.74928,-0.0882 -1.47665,-0.25276 -2.181086,-0.52888 -1.32613,-0.44928 -0.36556,-0.15597 2.004046,1.30275 0.15462,0.0952 -0.32901,-0.1557 -0.48274,-0.25231 -0.57832,-0.36348 -1.0223,-0.87322 -1.41753,-1.42329 -1.047503,-1.37613 -1.670706,-2.91941 -1.709193,-4.66899 0.03961,-1.97974 0.114534,-3.97513 0.721702,-5.87863 0.881154,-2.40035 2.021061,-3.8512 4.439971,-4.85668 2.4756,-1.05109 5.05762,-1.97071 7.77217,-2.07225 1.90376,-0.0989 3.81122,-0.0565 5.71626,4e-5 0.98792,0.0539 1.97073,0.15461 2.93253,0.39871 0.89045,0.17823 1.78933,0.17017 2.69363,0.10126 1.03257,-0.11093 2.02314,-0.32287 2.69658,-1.18899 0.91658,-1.46161 1.25046,-3.10773 1.37365,-4.81653 0.21077,-1.24764 0.55159,-4.04563 1.88602,-4.65643 0.19244,-0.0881 0.41893,-0.0606 0.62839,-0.0909 1.44139,0.0677 2.87998,0.21888 4.27515,0.60697 1.71526,0.49551 3.38039,1.13704 4.99118,1.90902 1.05329,0.46984 3.5174,1.90567 -0.69821,-0.60101 -0.79287,-0.47146 2.61394,1.53617 1.8855,1.47712 1.22365,1.62415 1.27742,3.31815 0.73045,5.23897 -0.77103,2.22949 -1.92265,3.90345 -3.94616,5.18913 -1.85195,1.07044 -3.77714,1.91233 -5.83406,2.5121 -1.68194,0.54879 -3.36137,1.10645 -5.07541,1.54896 -1.55125,0.52292 -3.14456,0.96052 -4.58337,1.76164 -2.26416,1.28677 -4.4587,2.74679 -6.27513,4.63028 -1.83584,2.13053 -3.28235,4.52163 -4.09694,7.23352 -0.73895,2.91372 -0.60628,5.73368 -0.36206,8.70956 0.31568,3.32497 0.82797,6.65172 2.3286,9.67822 0.59932,1.0949 1.88946,3.51708 2.86197,4.26937 1.23214,0.95314 2.58697,1.73819 3.91948,2.54505 0.81276,0.49215 1.29827,0.55063 2.18795,0.77834 2.01168,0.0997 4.0342,-0.0145 6.02153,-0.35032 2.18538,-0.46018 4.27203,-1.16485 6.15182,-2.40556 1.29646,-0.85055 2.68214,-1.66061 3.52727,-3.00681 0.89271,-1.52378 1.19965,-2.80357 0.97792,-4.58616 -0.138,-3.03766 -0.33317,-6.07862 -0.84138,-9.0806 -0.46804,-2.72542 -1.11613,-5.4257 -1.41409,-8.17502 -0.18335,-2.88367 -0.25565,-5.91982 0.79938,-8.65354 0.15099,-0.19899 0.26758,-0.42955 0.45295,-0.59695 0.69739,-0.62976 1.79185,-0.30336 2.61578,-0.26773 1.26748,0.17972 2.50578,0.49979 3.65171,1.08748 -5.28966,-3.1532 0.49213,0.16206 1.24853,1.43825 1.53041,1.89001 2.864,3.88659 3.42395,6.2945 0.51205,2.46709 0.62239,4.96847 0.19355,7.46347 -0.39946,2.28361 -0.97577,4.46848 -2.50379,6.28312 -1.20466,1.68869 -2.55366,3.3418 -4.32313,4.46408 -1.47692,0.88905 -2.91376,1.62268 -4.69321,1.36757 -1.48804,-0.11876 -2.95795,-0.36451 -4.36073,-0.89727 -0.86606,-0.30874 -1.73634,-0.58537 -2.57369,-0.96888 -1.04788,-0.47994 -2.43144,-1.28797 1.10032,0.75679 0.27164,0.15727 -0.53192,-0.33339 -0.79787,-0.50008 -1.6486,-1.00007 -3.28225,-2.04673 -4.53182,-3.54463 -1.53227,-1.64233 -3.11113,-3.23983 -4.51541,-4.99726 -1.19794,-1.37891 -2.45482,-2.71698 -4.05032,-3.64347 -1.82707,-1.05391 -3.60612,-2.51978 -5.78856,-2.65261 -1.21402,-0.0118 -2.43089,-0.034 -3.6419,0.0699 -1.19865,0.15848 -2.35537,0.44629 -2.09113,1.91651 0.48907,1.97325 1.44981,3.76789 2.52302,5.48404 1.61817,1.87927 3.90016,3.48456 6.45169,3.43996 1.50703,-0.0127 3.02046,-0.0283 4.51057,-0.28239 1.61043,-0.32011 3.03376,-0.82476 4.14427,-2.10126 0.91467,-1.03412 1.68136,-2.17386 2.41568,-3.34221 0.70397,-1.01067 1.39595,-2.05361 1.88399,-3.18711 0.3694,-0.95272 0.86878,-1.85476 1.15306,-2.83649 0.3432,-1.25396 0.51109,-2.55013 0.36047,-3.84849 -0.19532,-1.61218 -0.55456,-3.21394 -1.72783,-4.41767 -2.57574,-2.17737 -5.64269,-3.76269 -8.80495,-4.90412 -1.50021,-0.39623 -2.99001,-0.52037 -4.54034,-0.47596 -1.77674,-0.1328 -3.23211,-1.24429 0.74442,1.10994 0.14489,0.0858 -0.28752,-0.17533 -0.43129,-0.26299 -1.1127,-0.97261 -1.61236,-2.25201 -1.675,-3.72637 -0.12304,-1.853 0.14917,-3.72118 0.7464,-5.47972 0.83833,-1.86773 1.95101,-3.3443 4.0438,-3.84532 1.53584,-0.1282 3.02203,0.33186 4.49036,0.74421 2.0772,0.61599 4.16497,1.20344 6.21996,1.88958 0,0 -2.64055,-2.05388 -2.64055,-2.05388 z" /><g
       id="g200873"
       transform="translate(12.299272,9.697801)" /><g
       id="g4964"
       transform="rotate(-12.186712,228.98763,266.55895)"><path
         style="fill:none;stroke:#000000;stroke-width:1.228;stroke-linecap:round;stroke-dasharray:none;stroke-opacity:1;marker-end:url(#Arrow4)"
         d="m 213.74819,266.98789 c -0.20899,3.28643 0.73789,6.63499 2.63694,9.32533 1.89905,2.69034 4.73717,4.70392 7.90383,5.60756 3.16666,0.90364 6.64003,0.69112 9.6729,-0.59184 3.03288,-1.28296 5.60435,-3.62752 7.16124,-6.52931 0.64017,-1.19317 1.11285,-2.47606 1.39987,-3.79935"
         id="path3859"
         inkscape:path-effect="#path-effect3861"
         inkscape:original-d="m 213.74819,266.98789 c 9.12523,2.60417 18.2502,5.20809 27.37491,7.81174 9.12471,2.60365 0.93351,-2.53264 1.39987,-3.79935" /><path
         style="fill:none;stroke:#000000;stroke-width:1.228;stroke-linecap:round;stroke-dasharray:none;stroke-opacity:1;marker-end:url(#Arrow4-6)"
         d="m 244.22707,266.13001 c 0.20899,-3.28643 -0.73789,-6.63499 -2.63694,-9.32533 -1.89905,-2.69034 -4.73717,-4.70392 -7.90383,-5.60756 -3.16666,-0.90364 -6.64003,-0.69112 -9.6729,0.59184 -3.03288,1.28296 -5.60435,3.62752 -7.16124,6.52931 -0.64017,1.19317 -1.11285,2.47606 -1.39987,3.79935"
         id="path3859-5"
         inkscape:path-effect="#path-effect3861-5"
         inkscape:original-d="m 244.22707,266.13001 c -9.12523,-2.60418 -18.2502,-5.20809 -27.37491,-7.81174 -9.12471,-2.60365 -0.93351,2.53264 -1.39987,3.79935" /></g><text
       xml:space="preserve"
       style="font-style:normal;font-variant:normal;font-weight:normal;font-stretch:normal;font-size:8.25762px;font-family:Lato;-inkscape-font-specification:Lato;text-align:center;text-anchor:middle;white-space:pre;inline-size:20.9463;display:inline;fill:#000000;fill-opacity:1;stroke:none;stroke-width:0.502017;stroke-linecap:round;stroke-dasharray:none;stroke-opacity:1"
       x="176.16333"
       y="121.61835"
       id="text195119-8-4"
       transform="matrix(1.3634031,0,0,1.3634031,5.4066793,82.965683)"><tspan
         x="176.16333"
         y="121.61835"
         id="tspan28625"><tspan
           style="stroke-width:0.502018"
           id="tspan28623">GltA</tspan></tspan></text><text
       xml:space="preserve"
       style="font-style:normal;font-variant:normal;font-weight:normal;font-stretch:normal;font-size:8.25762px;font-family:Lato;-inkscape-font-specification:Lato;text-align:center;text-anchor:middle;white-space:pre;inline-size:35.0097;display:inline;fill:#000000;fill-opacity:1;stroke:none;stroke-width:0.502017;stroke-linecap:round;stroke-dasharray:none;stroke-opacity:1"
       x="176.16333"
       y="121.61835"
       id="text195119-8-4-3-4"
       transform="matrix(1.3634031,0,0,1.3634031,-11.175669,31.261593)"><tspan
         x="176.16333"
         y="121.61835"
         id="tspan28627">Acetate</tspan></text><text
       xml:space="preserve"
       style="font-style:normal;font-variant:normal;font-weight:normal;font-stretch:normal;font-size:8.25762px;font-family:Lato;-inkscape-font-specification:Lato;text-align:center;text-anchor:middle;white-space:pre;inline-size:101.214;display:inline;fill:#000000;fill-opacity:1;stroke:none;stroke-width:0.502017;stroke-linecap:round;stroke-dasharray:none;stroke-opacity:1"
       x="176.16333"
       y="121.61835"
       id="text195119-8-4-3-5"
       transform="matrix(1.3634031,0,0,1.3634031,-142.07569,24.546631)"><tspan
         x="176.16333"
         y="121.61835"
         id="tspan28629">Bulk media</tspan></text><text
       xml:space="preserve"
       style="font-style:normal;font-variant:normal;font-weight:normal;font-stretch:normal;font-size:8.25762px;font-family:Lato;-inkscape-font-specification:Lato;text-align:center;text-anchor:middle;white-space:pre;inline-size:101.214;display:inline;fill:#000000;fill-opacity:1;stroke:none;stroke-width:0.502017;stroke-linecap:round;stroke-dasharray:none;stroke-opacity:1"
       x="176.16333"
       y="121.61835"
       id="text195119-8-4-3-5-2"
       transform="matrix(1.3634031,0,0,1.3634031,-123.079,61.382208)"><tspan
         x="176.16333"
         y="121.61835"
         id="tspan28631">Geobacter biofilm</tspan></text><text
       xml:space="preserve"
       style="font-style:normal;font-variant:normal;font-weight:normal;font-stretch:normal;font-size:8.25762px;font-family:Lato;-inkscape-font-specification:Lato;text-align:center;text-anchor:middle;white-space:pre;inline-size:32.6917;display:inline;fill:#000000;fill-opacity:1;stroke:none;stroke-width:0.502017;stroke-linecap:round;stroke-dasharray:none;stroke-opacity:1"
       x="176.16333"
       y="121.61835"
       id="text195119-8-4-6"
       transform="matrix(1.3634031,0,0,1.3634031,-46.773114,105.03661)"><tspan
         x="176.16333"
         y="121.61835"
         id="tspan28633">NADH</tspan></text><text
       xml:space="preserve"
       style="font-style:normal;font-variant:normal;font-weight:normal;font-stretch:normal;font-size:8.25762px;font-family:Lato;-inkscape-font-specification:Lato;text-align:center;text-anchor:middle;white-space:pre;inline-size:32.6917;display:inline;fill:#000000;fill-opacity:1;stroke:none;stroke-width:0.502017;stroke-linecap:round;stroke-dasharray:none;stroke-opacity:1"
       x="176.16333"
       y="121.61835"
       id="text195119-8-4-6-5"
       transform="matrix(1.3634031,0,0,1.3634031,24.200505,104.66789)"><tspan
         x="176.16333"
         y="121.61835"
         id="tspan28635">NAD+</tspan></text><text
       xml:space="preserve"
       style="font-style:normal;font-variant:normal;font-weight:normal;font-stretch:normal;font-size:8.25762px;font-family:Lato;-inkscape-font-specification:Lato;text-align:center;text-anchor:middle;white-space:pre;inline-size:20.9463;display:inline;fill:#000000;fill-opacity:1;stroke:none;stroke-width:0.502017;stroke-linecap:round;stroke-dasharray:none;stroke-opacity:1"
       x="176.16333"
       y="121.61835"
       id="text195119-8-7"
       transform="translate(52.416272,142.83855)"><tspan
         x="176.16333"
         y="121.61835"
         id="tspan28637">TCA
</tspan><tspan
         x="176.16333"
         y="131.94037"
         id="tspan28639">cycle</tspan></text><path
       style="fill:none;stroke:#000000;stroke-width:1.228;stroke-linecap:round;stroke-dasharray:none;stroke-opacity:1"
       d="m 228.24213,212.83275 c 0.21476,11.02299 0.4295,22.04546 -1.28088,29.25482 -1.71038,7.20937 -5.34574,10.60529 -8.98119,14.00131"
       id="path5285"
       inkscape:path-effect="#path-effect5287"
       inkscape:original-d="m 228.24213,212.83275 c 0.21502,11.02298 0.42976,22.04545 0.64425,33.06812 -3.63525,3.39634 -7.27061,6.79227 -10.90632,10.18801"
       sodipodi:nodetypes="ccc" /><path
       style="fill:none;stroke:#000000;stroke-width:1.228;stroke-linecap:round;stroke-dasharray:none;stroke-opacity:1;marker-start:url(#Arrow4)"
       d="m 230.16804,323.38999 c 0.21476,-11.02299 0.4295,-22.04546 -1.28088,-29.25482 -1.71038,-7.20937 -5.34574,-10.60529 -8.98119,-14.00131"
       id="path5285-9"
       inkscape:path-effect="#path-effect5287-6"
       inkscape:original-d="m 230.16804,323.38999 c 0.21502,-11.02298 0.42976,-22.04545 0.64425,-33.06812 -3.63525,-3.39634 -7.27061,-6.79227 -10.90632,-10.18801"
       sodipodi:nodetypes="ccc" /><text
       xml:space="preserve"
       style="font-style:normal;font-variant:normal;font-weight:normal;font-stretch:normal;font-size:8.25762px;font-family:Lato;-inkscape-font-specification:Lato;text-align:center;text-anchor:middle;white-space:pre;inline-size:35.0097;display:inline;fill:#000000;fill-opacity:1;stroke:none;stroke-width:0.502017;stroke-linecap:round;stroke-dasharray:none;stroke-opacity:1"
       x="176.16333"
       y="121.61835"
       id="text195119-8-4-3-4-7"
       transform="matrix(1.3634031,0,0,1.3634031,-10.725229,174.9309)"><tspan
         x="176.16333"
         y="121.61835"
         id="tspan28641">Current</tspan></text><text
       xml:space="preserve"
       style="font-style:normal;font-variant:normal;font-weight:normal;font-stretch:normal;font-size:8.25762px;font-family:Lato;-inkscape-font-specification:Lato;text-align:start;text-anchor:start;white-space:pre;inline-size:101.214;display:inline;fill:#000000;fill-opacity:1;stroke:none;stroke-width:0.502017;stroke-linecap:round;stroke-dasharray:none;stroke-opacity:1"
       x="141.07671"
       y="121.61835"
       id="text195119-8-4-3-5-4"
       transform="matrix(1.3634031,0,0,1.3634031,-126.13262,173.40693)"><tspan
         x="141.07671"
         y="121.61835"
         id="tspan28643">Anode:
</tspan><tspan
         x="141.07671"
         y="131.94037"
         id="tspan28645">Flat graphite poised</tspan></text><text
       xml:space="preserve"
       style="font-style:normal;font-variant:normal;font-weight:normal;font-stretch:normal;font-size:8.25762px;font-family:Lato;-inkscape-font-specification:Lato;text-align:start;text-anchor:start;white-space:pre;inline-size:101.214;display:inline;fill:#000000;fill-opacity:1;stroke:none;stroke-width:0.502017;stroke-linecap:round;stroke-dasharray:none;stroke-opacity:1"
       x="141.07671"
       y="121.61835"
       id="text195119-8-4-3-5-4-80"
       transform="matrix(1.3634031,0,0,1.3634031,-127.59526,-28.402868)"><tspan
         x="141.07671"
         y="121.61835"
         id="tspan28647">Cathode:
</tspan><tspan
         x="141.07671"
         y="131.94037"
         id="tspan28649">Platinized titanium mesh</tspan></text><text
       xml:space="preserve"
       style="font-style:normal;font-variant:normal;font-weight:normal;font-stretch:normal;font-size:8.25762px;font-family:Lato;-inkscape-font-specification:Lato;text-align:start;text-anchor:start;white-space:pre;inline-size:101.214;display:inline;fill:#000000;fill-opacity:1;stroke:none;stroke-width:0.502017;stroke-linecap:round;stroke-dasharray:none;stroke-opacity:1"
       x="141.07671"
       y="121.61835"
       id="text195119-8-4-3-5-4-8"
       transform="matrix(1.3634031,0,0,1.3634031,73.463669,172.74325)"><tspan
         x="141.07671"
         y="121.61835"
         id="tspan28651">Reference:
</tspan><tspan
         x="141.07671"
         y="131.94037"
         id="tspan28653">Gel</tspan></text><text
       xml:space="preserve"
       style="font-style:normal;font-variant:normal;font-weight:normal;font-stretch:normal;font-size:8.25762px;font-family:Lato;-inkscape-font-specification:Lato;text-align:center;text-anchor:middle;white-space:pre;inline-size:20.9463;display:inline;fill:#000000;fill-opacity:1;stroke:none;stroke-width:0.502017;stroke-linecap:round;stroke-dasharray:none;stroke-opacity:1"
       x="176.16333"
       y="121.61835"
       id="text195119-8-1"
       transform="rotate(66.068876,56.948068,176.57662)"><tspan
         x="176.16333"
         y="121.61835"
         id="tspan28657"><tspan
           style="stroke-width:0.502018"
           id="tspan28655">gltA</tspan></tspan></text><path
       style="fill:#ffffff;stroke:#f20505;stroke-width:1.228;stroke-linecap:round;stroke-dasharray:none;stroke-opacity:1"
       d="m 141.98244,260.55773 15.45789,11.59974"
       id="path2364" /><path
       style="fill:#ffffff;stroke:#f20505;stroke-width:1.228;stroke-linecap:round;stroke-dasharray:none;stroke-opacity:1"
       d="M 149.18326,275.49092 149.66345,255.571"
       id="path2364-0"
       sodipodi:nodetypes="cc" /></g></svg>
