<?xml version="1.0" encoding="UTF-8" standalone="no"?>
<!-- Created with Inkscape (http://www.inkscape.org/) -->

<svg
   width="284.04764mm"
   height="246.30804mm"
   viewBox="0 0 284.04764 246.30805"
   version="1.1"
   id="svg185107"
   inkscape:version="1.2.2 (b0a8486541, 2022-12-01)"
   sodipodi:docname="lovely-plasmids.svg"
   xml:space="preserve"
   xmlns:inkscape="http://www.inkscape.org/namespaces/inkscape"
   xmlns:sodipodi="http://sodipodi.sourceforge.net/DTD/sodipodi-0.dtd"
   xmlns="http://www.w3.org/2000/svg"
   xmlns:svg="http://www.w3.org/2000/svg"><sodipodi:namedview
     id="namedview185109"
     pagecolor="#ffffff"
     bordercolor="#000000"
     borderopacity="0.25"
     inkscape:showpageshadow="2"
     inkscape:pageopacity="0.0"
     inkscape:pagecheckerboard="0"
     inkscape:deskcolor="#d1d1d1"
     inkscape:document-units="mm"
     showgrid="false"
     inkscape:zoom="0.77593294"
     inkscape:cx="515.50847"
     inkscape:cy="573.50317"
     inkscape:window-width="2560"
     inkscape:window-height="1407"
     inkscape:window-x="1920"
     inkscape:window-y="33"
     inkscape:window-maximized="1"
     inkscape:current-layer="layer1" /><defs
     id="defs185104"><marker
       style="overflow:visible"
       id="Arrow1"
       refX="0"
       refY="0"
       orient="auto-start-reverse"
       inkscape:stockid="Arrow1"
       markerWidth="4.0606599"
       markerHeight="6.7071066"
       viewBox="0 0 4.0606602 6.7071068"
       inkscape:isstock="true"
       inkscape:collect="always"
       preserveAspectRatio="xMidYMid"><path
         style="fill:none;stroke:context-stroke;stroke-width:1;stroke-linecap:butt"
         d="M 3,-3 0,0 3,3"
         id="path5057"
         transform="rotate(180,0.125,0)"
         sodipodi:nodetypes="ccc" /></marker><inkscape:path-effect
       effect="spiro"
       id="path-effect186649"
       is_visible="true"
       lpeversion="1" /><inkscape:path-effect
       effect="spiro"
       id="path-effect186645"
       is_visible="true"
       lpeversion="1" /><inkscape:path-effect
       effect="spiro"
       id="path-effect186216"
       is_visible="true"
       lpeversion="1" /><inkscape:path-effect
       effect="spiro"
       id="path-effect186212"
       is_visible="true"
       lpeversion="1" /><inkscape:path-effect
       effect="spiro"
       id="path-effect186036"
       is_visible="true"
       lpeversion="1" /><inkscape:path-effect
       effect="spiro"
       id="path-effect185929"
       is_visible="true"
       lpeversion="1" /><inkscape:path-effect
       effect="spiro"
       id="path-effect185925"
       is_visible="true"
       lpeversion="1" /><inkscape:path-effect
       effect="bspline"
       id="path-effect185915"
       is_visible="true"
       lpeversion="1"
       weight="33.333333"
       steps="2"
       helper_size="0"
       apply_no_weight="true"
       apply_with_weight="true"
       only_selected="false" /><inkscape:path-effect
       effect="bspline"
       id="path-effect185911"
       is_visible="true"
       lpeversion="1"
       weight="33.333333"
       steps="2"
       helper_size="0"
       apply_no_weight="true"
       apply_with_weight="true"
       only_selected="false" /><inkscape:path-effect
       effect="bspline"
       id="path-effect185907"
       is_visible="true"
       lpeversion="1"
       weight="33.333333"
       steps="2"
       helper_size="0"
       apply_no_weight="true"
       apply_with_weight="true"
       only_selected="false" /><inkscape:path-effect
       effect="bspline"
       id="path-effect185903"
       is_visible="true"
       lpeversion="1"
       weight="33.333333"
       steps="2"
       helper_size="0"
       apply_no_weight="true"
       apply_with_weight="true"
       only_selected="false" /><inkscape:path-effect
       effect="spiro"
       id="path-effect186649-3"
       is_visible="true"
       lpeversion="1" /><inkscape:path-effect
       effect="spiro"
       id="path-effect186649-3-7"
       is_visible="true"
       lpeversion="1" /><inkscape:path-effect
       effect="spiro"
       id="path-effect186649-3-7-3"
       is_visible="true"
       lpeversion="1" /><inkscape:path-effect
       effect="spiro"
       id="path-effect186649-3-6"
       is_visible="true"
       lpeversion="1" /><inkscape:path-effect
       effect="spiro"
       id="path-effect186649-3-7-2"
       is_visible="true"
       lpeversion="1" /><inkscape:path-effect
       effect="spiro"
       id="path-effect186649-3-7-3-9"
       is_visible="true"
       lpeversion="1" /><inkscape:path-effect
       effect="spiro"
       id="path-effect186649-3-6-0"
       is_visible="true"
       lpeversion="1" /><inkscape:path-effect
       effect="spiro"
       id="path-effect186649-3-7-2-3"
       is_visible="true"
       lpeversion="1" /><inkscape:path-effect
       effect="spiro"
       id="path-effect186649-3-7-2-3-0"
       is_visible="true"
       lpeversion="1" /><marker
       style="overflow:visible"
       id="Arrow1-3"
       refX="0"
       refY="0"
       orient="auto-start-reverse"
       inkscape:stockid="Arrow1"
       markerWidth="4.0606604"
       markerHeight="6.7071066"
       viewBox="0 0 4.0606602 6.7071068"
       inkscape:isstock="true"
       inkscape:collect="always"
       preserveAspectRatio="xMidYMid"><path
         style="fill:none;stroke:context-stroke;stroke-width:1;stroke-linecap:butt"
         d="M 3,-3 0,0 3,3"
         id="path5057-1"
         transform="rotate(180,0.125,0)"
         sodipodi:nodetypes="ccc" /></marker><inkscape:path-effect
       effect="spiro"
       id="path-effect186212-7"
       is_visible="true"
       lpeversion="1" /><inkscape:path-effect
       effect="spiro"
       id="path-effect186216-8"
       is_visible="true"
       lpeversion="1" /><inkscape:path-effect
       effect="spiro"
       id="path-effect186645-4"
       is_visible="true"
       lpeversion="1" /><inkscape:path-effect
       effect="spiro"
       id="path-effect186649-5"
       is_visible="true"
       lpeversion="1" /><inkscape:path-effect
       effect="spiro"
       id="path-effect186649-3-0"
       is_visible="true"
       lpeversion="1" /><inkscape:path-effect
       effect="spiro"
       id="path-effect186649-3-7-36"
       is_visible="true"
       lpeversion="1" /><inkscape:path-effect
       effect="spiro"
       id="path-effect186649-3-7-3-1"
       is_visible="true"
       lpeversion="1" /><inkscape:path-effect
       effect="spiro"
       id="path-effect186649-3-6-06"
       is_visible="true"
       lpeversion="1" /><inkscape:path-effect
       effect="spiro"
       id="path-effect186649-3-6-0-3"
       is_visible="true"
       lpeversion="1" /><inkscape:path-effect
       effect="spiro"
       id="path-effect186649-3-7-2-2"
       is_visible="true"
       lpeversion="1" /><inkscape:path-effect
       effect="spiro"
       id="path-effect186649-3-7-2-3-06"
       is_visible="true"
       lpeversion="1" /><inkscape:path-effect
       effect="spiro"
       id="path-effect186649-3-7-2-3-0-1"
       is_visible="true"
       lpeversion="1" /><inkscape:path-effect
       effect="spiro"
       id="path-effect186649-3-7-3-9-5"
       is_visible="true"
       lpeversion="1" /><inkscape:path-effect
       effect="spiro"
       id="path-effect186649-3-7-2-3-0-1-7"
       is_visible="true"
       lpeversion="1" /><inkscape:path-effect
       effect="spiro"
       id="path-effect186649-3-7-2-3-0-1-7-7"
       is_visible="true"
       lpeversion="1" /><inkscape:path-effect
       effect="spiro"
       id="path-effect186649-3-7-2-3-0-1-7-7-2"
       is_visible="true"
       lpeversion="1" /><inkscape:path-effect
       effect="spiro"
       id="path-effect186649-3-7-2-3-0-1-7-7-2-1"
       is_visible="true"
       lpeversion="1" /><inkscape:path-effect
       effect="spiro"
       id="path-effect186649-3-7-2-3-0-1-7-7-2-1-6"
       is_visible="true"
       lpeversion="1" /><inkscape:path-effect
       effect="spiro"
       id="path-effect186649-3-7-2-3-0-1-7-7-2-1-6-5"
       is_visible="true"
       lpeversion="1" /><inkscape:path-effect
       effect="spiro"
       id="path-effect186649-3-7-2-3-0-1-7-7-2-1-6-5-4"
       is_visible="true"
       lpeversion="1" /><inkscape:path-effect
       effect="spiro"
       id="path-effect186212-73"
       is_visible="true"
       lpeversion="1" /><inkscape:path-effect
       effect="spiro"
       id="path-effect186216-6"
       is_visible="true"
       lpeversion="1" /><inkscape:path-effect
       effect="spiro"
       id="path-effect186645-5"
       is_visible="true"
       lpeversion="1" /><inkscape:path-effect
       effect="spiro"
       id="path-effect186649-6"
       is_visible="true"
       lpeversion="1" /><inkscape:path-effect
       effect="spiro"
       id="path-effect186649-3-3"
       is_visible="true"
       lpeversion="1" /><inkscape:path-effect
       effect="spiro"
       id="path-effect186649-3-7-9"
       is_visible="true"
       lpeversion="1" /><inkscape:path-effect
       effect="spiro"
       id="path-effect186649-3-7-3-4"
       is_visible="true"
       lpeversion="1" /><inkscape:path-effect
       effect="spiro"
       id="path-effect186649-3-6-8"
       is_visible="true"
       lpeversion="1" /><inkscape:path-effect
       effect="spiro"
       id="path-effect186649-3-6-0-1"
       is_visible="true"
       lpeversion="1" /><inkscape:path-effect
       effect="spiro"
       id="path-effect186649-3-7-2-29"
       is_visible="true"
       lpeversion="1" /><inkscape:path-effect
       effect="spiro"
       id="path-effect186649-3-7-2-3-3"
       is_visible="true"
       lpeversion="1" /><inkscape:path-effect
       effect="spiro"
       id="path-effect186649-3-7-2-3-0-9"
       is_visible="true"
       lpeversion="1" /><inkscape:path-effect
       effect="spiro"
       id="path-effect186649-3-7-3-9-0"
       is_visible="true"
       lpeversion="1" /><inkscape:path-effect
       effect="spiro"
       id="path-effect186649-3-7-2-3-0-1-7-3"
       is_visible="true"
       lpeversion="1" /><inkscape:path-effect
       effect="spiro"
       id="path-effect186649-3-7-2-3-0-1-7-7-8"
       is_visible="true"
       lpeversion="1" /><inkscape:path-effect
       effect="spiro"
       id="path-effect186649-3-7-2-3-0-1-7-7-2-5"
       is_visible="true"
       lpeversion="1" /><inkscape:path-effect
       effect="spiro"
       id="path-effect186649-3-7-2-3-0-1-7-7-2-1-61"
       is_visible="true"
       lpeversion="1" /><inkscape:path-effect
       effect="spiro"
       id="path-effect186649-3-7-2-3-0-1-7-7-2-1-6-1"
       is_visible="true"
       lpeversion="1" /><inkscape:path-effect
       effect="spiro"
       id="path-effect186649-3-7-2-3-0-1-7-7-2-1-6-5-5"
       is_visible="true"
       lpeversion="1" /><inkscape:path-effect
       effect="spiro"
       id="path-effect186649-3-7-2-3-0-1-7-7-2-1-6-5-4-9"
       is_visible="true"
       lpeversion="1" /><clipPath
       clipPathUnits="userSpaceOnUse"
       id="clipPath202592"><rect
         style="fill:none;fill-opacity:0.260274;stroke:#000000;stroke-width:0.754049;stroke-linecap:round;stroke-dasharray:none;stroke-opacity:1"
         id="rect202594"
         width="283.29364"
         height="99.892906"
         x="37.451324"
         y="392.8822"
         ry="36.683743"
         rx="0" /></clipPath><inkscape:path-effect
       effect="spiro"
       id="path-effect186212-9"
       is_visible="true"
       lpeversion="1" /><inkscape:path-effect
       effect="spiro"
       id="path-effect186216-3"
       is_visible="true"
       lpeversion="1" /><inkscape:path-effect
       effect="spiro"
       id="path-effect186645-6"
       is_visible="true"
       lpeversion="1" /><inkscape:path-effect
       effect="spiro"
       id="path-effect186649-0"
       is_visible="true"
       lpeversion="1" /><inkscape:path-effect
       effect="spiro"
       id="path-effect186649-3-6-6"
       is_visible="true"
       lpeversion="1" /><inkscape:path-effect
       effect="spiro"
       id="path-effect186649-3-6-0-2"
       is_visible="true"
       lpeversion="1" /><inkscape:path-effect
       effect="spiro"
       id="path-effect186649-3-7-2-6"
       is_visible="true"
       lpeversion="1" /><inkscape:path-effect
       effect="spiro"
       id="path-effect186649-3-7-2-3-1"
       is_visible="true"
       lpeversion="1" /><inkscape:path-effect
       effect="spiro"
       id="path-effect186649-3-7-2-3-0-8"
       is_visible="true"
       lpeversion="1" /><inkscape:path-effect
       effect="spiro"
       id="path-effect186649-3-7-3-9-7"
       is_visible="true"
       lpeversion="1" /><marker
       style="overflow:visible"
       id="Arrow1-9"
       refX="0"
       refY="0"
       orient="auto-start-reverse"
       inkscape:stockid="Arrow1"
       markerWidth="4.0606599"
       markerHeight="6.7071066"
       viewBox="0 0 4.0606602 6.7071068"
       inkscape:isstock="true"
       inkscape:collect="always"
       preserveAspectRatio="xMidYMid"><path
         style="fill:none;stroke:context-stroke;stroke-width:1;stroke-linecap:butt"
         d="M 3,-3 0,0 3,3"
         id="path5057-2"
         transform="rotate(180,0.125,0)"
         sodipodi:nodetypes="ccc" /></marker><marker
       style="overflow:visible"
       id="Arrow1-3-0"
       refX="0"
       refY="0"
       orient="auto-start-reverse"
       inkscape:stockid="Arrow1"
       markerWidth="4.0606604"
       markerHeight="6.7071066"
       viewBox="0 0 4.0606602 6.7071068"
       inkscape:isstock="true"
       inkscape:collect="always"
       preserveAspectRatio="xMidYMid"><path
         style="fill:none;stroke:context-stroke;stroke-width:1;stroke-linecap:butt"
         d="M 3,-3 0,0 3,3"
         id="path5057-1-2"
         transform="rotate(180,0.125,0)"
         sodipodi:nodetypes="ccc" /></marker></defs><g
     inkscape:label="Layer 1"
     inkscape:groupmode="layer"
     id="layer1"
     transform="translate(-46.151214,-81.293232)"><rect
       style="fill:#ffffff;fill-opacity:1;stroke:none;stroke-width:0.8191;stroke-linecap:round;stroke-dasharray:none;stroke-opacity:1"
       id="rect201572-5"
       width="283.22855"
       height="117.8989"
       x="46.560764"
       y="209.29282"
       ry="43.296097"
       rx="0" /><rect
       style="fill:#ffffff;fill-opacity:1;stroke:none;stroke-width:0.8191;stroke-linecap:round;stroke-dasharray:none;stroke-opacity:1"
       id="rect201572"
       width="283.22855"
       height="117.8989"
       x="46.560764"
       y="81.702782"
       ry="43.296097"
       rx="0" /><text
       xml:space="preserve"
       style="font-size:13.1591px;font-family:'IBM Plex Sans';-inkscape-font-specification:'IBM Plex Sans, Normal';text-align:center;text-anchor:middle;fill:#000000;fill-opacity:1;stroke:none;stroke-width:0.799999;stroke-linecap:round;stroke-dasharray:none;stroke-opacity:1"
       x="64.095619"
       y="76.279495"
       id="text194595"><tspan
         sodipodi:role="line"
         id="tspan194593"
         style="fill:#000000;fill-opacity:1;stroke-width:0.8"
         x="64.095619"
         y="76.279495" /></text><circle
       style="fill:none;stroke:#000000;stroke-width:0.8;stroke-linecap:round;stroke-dasharray:none;stroke-opacity:1"
       id="path186094"
       cx="127.80183"
       cy="142.57999"
       r="49.475769" /><circle
       style="fill:none;stroke:#000000;stroke-width:0.75594;stroke-linecap:round;stroke-dasharray:none;stroke-opacity:1"
       id="path186096"
       cx="127.80183"
       cy="142.57999"
       r="42.122028" /><path
       style="fill:none;stroke:#000000;stroke-width:0.799999;stroke-linecap:round;stroke-dasharray:none;stroke-opacity:1"
       d="m 83.857905,119.84713 6.65735,3.13755"
       id="path186210"
       inkscape:path-effect="#path-effect186212"
       inkscape:original-d="m 83.857905,119.84713 6.65735,3.13755"
       sodipodi:nodetypes="cc" /><path
       style="fill:none;stroke:#000000;stroke-width:0.799999;stroke-linecap:round;stroke-dasharray:none;stroke-opacity:1"
       d="m 103.20204,99.653279 4.1314,6.112171"
       id="path186214"
       inkscape:path-effect="#path-effect186216"
       inkscape:original-d="m 103.20204,99.653279 4.1314,6.112171"
       sodipodi:nodetypes="cc" /><path
       style="fill:#a6a6a6;fill-opacity:1;stroke:#000000;stroke-width:0.799999;stroke-linecap:round;stroke-dasharray:none;stroke-opacity:1"
       d="m 80.81103,127.09723 6.803061,1.834"
       id="path186643"
       inkscape:path-effect="#path-effect186645"
       inkscape:original-d="m 80.81103,127.09723 c 2.357956,0.67862 4.445634,1.15591 6.803061,1.834"
       sodipodi:nodetypes="cc" /><path
       style="fill:#a6a6a6;fill-opacity:1;stroke:#000000;stroke-width:0.799999;stroke-linecap:round;stroke-dasharray:none;stroke-opacity:1"
       d="m 85.701838,168.04734 5.986455,-3.20991"
       id="path186647"
       inkscape:path-effect="#path-effect186649"
       inkscape:original-d="m 85.701838,168.04734 c 2.457596,-0.53269 3.529389,-2.67669 5.986455,-3.20991"
       sodipodi:nodetypes="cc" /><path
       style="fill:#a6a6a6;fill-opacity:1;stroke:#000000;stroke-width:0.799999;stroke-linecap:round;stroke-dasharray:none;stroke-opacity:1"
       d="m 141.74369,189.7534 -1.77143,-6.40126"
       id="path186647-6-1"
       inkscape:path-effect="#path-effect186649-3-6"
       inkscape:original-d="m 141.74369,189.7534 c 0.32153,-2.49403 -2.09225,-3.90756 -1.77143,-6.40126"
       sodipodi:nodetypes="cc" /><path
       style="fill:#a6a6a6;fill-opacity:1;stroke:#000000;stroke-width:0.799999;stroke-linecap:round;stroke-dasharray:none;stroke-opacity:1"
       d="m 177.27761,142.57999 h -7.35374"
       id="path186647-6-1-9"
       inkscape:path-effect="#path-effect186649-3-6-0"
       inkscape:original-d="m 177.27761,142.57999 c 0.32153,-2.49403 -7.67456,2.4937 -7.35374,0"
       sodipodi:nodetypes="cc" /><path
       style="fill:#a6a6a6;fill-opacity:1;stroke:#000000;stroke-width:0.799999;stroke-linecap:round;stroke-dasharray:none;stroke-opacity:1"
       d="m 166.39683,173.53605 -5.9609,-4.32731"
       id="path186647-6-5-2"
       inkscape:path-effect="#path-effect186649-3-7-2"
       inkscape:original-d="m 166.39683,173.53605 c 0.32152,-2.49401 -6.28174,-1.83356 -5.9609,-4.32731"
       sodipodi:nodetypes="cc" /><path
       style="fill:#a6a6a6;fill-opacity:1;stroke:#000000;stroke-width:0.799999;stroke-linecap:round;stroke-dasharray:none;stroke-opacity:1"
       d="m 168.29119,114.14648 -6.17965,3.99768"
       id="path186647-6-5-2-6"
       inkscape:path-effect="#path-effect186649-3-7-2-3"
       inkscape:original-d="m 168.29119,114.14648 c 0.32152,-2.49401 -6.50049,6.49143 -6.17965,3.99768"
       sodipodi:nodetypes="cc" /><path
       style="fill:#a6a6a6;fill-opacity:1;stroke:#000000;stroke-width:0.799999;stroke-linecap:round;stroke-dasharray:none;stroke-opacity:1"
       d="m 161.99577,106.8221 -5.57688,4.84948"
       id="path186647-6-5-2-6-6"
       inkscape:path-effect="#path-effect186649-3-7-2-3-0"
       inkscape:original-d="m 161.99577,106.8221 c 0.32152,-2.49401 -5.89772,7.34323 -5.57688,4.84948"
       sodipodi:nodetypes="cc" /><path
       style="fill:#a6a6a6;fill-opacity:1;stroke:#000000;stroke-width:0.799999;stroke-linecap:round;stroke-dasharray:none;stroke-opacity:1"
       d="m 171.608,165.57719 -6.65339,-3.14936"
       id="path186647-6-5-5-7"
       inkscape:path-effect="#path-effect186649-3-7-3-9"
       inkscape:original-d="m 171.608,165.57719 c 2.5681,1.36166 -5.85037,1.27317 -6.65339,-3.14936"
       sodipodi:nodetypes="cc" /><path
       style="fill:#a6a6a6;fill-opacity:1;stroke:none;stroke-width:0.729038;stroke-linecap:round;stroke-dasharray:none;stroke-opacity:1"
       d="m 84.647678,165.5808 c -3.105375,-6.05683 -4.589407,-10.76273 -5.401714,-17.12892 -0.484259,-3.79522 -0.365853,-10.35832 0.248861,-13.79402 0.37197,-2.07897 1.494438,-6.62697 1.681814,-6.81435 0.08433,-0.0843 5.699834,1.37985 5.894041,1.53681 0.04954,0.04 -0.152403,1.02342 -0.448758,2.18529 -2.618464,10.26586 -1.578911,20.63316 2.997576,29.89432 1.714093,3.46871 1.886619,2.8822 -1.361678,4.62904 -1.021503,0.54934 -2.077831,0.99879 -2.347394,0.99879 -0.358053,0 -0.698307,-0.40606 -1.262748,-1.50696 z"
       id="path187004" /><path
       style="fill:#a6a6a6;fill-opacity:1;stroke:none;stroke-width:0.515509;stroke-linecap:round;stroke-dasharray:none;stroke-opacity:1"
       d="m 87.337806,120.93716 c -2.79412,-1.31114 -2.801372,-1.32238 -1.892888,-2.93316 2.603908,-4.61685 7.286252,-10.07193 11.633279,-13.55313 2.240889,-1.79455 5.338643,-3.85102 5.800963,-3.85102 0.28765,0 0.72631,0.52958 1.94178,2.34429 0.86361,1.28936 1.57004,2.43166 1.56986,2.53844 -1.7e-4,0.10678 -0.86345,0.77 -1.91838,1.47383 -3.69805,2.46725 -6.775743,5.20439 -9.372539,8.33544 -1.402463,1.69101 -3.325074,4.43146 -4.195505,5.98019 -0.307457,0.54705 -0.565664,0.80895 -0.796047,0.80743 -0.187545,-0.001 -1.43428,-0.51528 -2.770523,-1.14231 z"
       id="path187006" /><path
       style="fill:#008000;fill-opacity:1;stroke:none;stroke-width:0.515509;stroke-linecap:round;stroke-dasharray:none;stroke-opacity:1"
       d="m 170.32561,140.78865 c 0,-1.70824 -0.4369,-5.10311 -0.95929,-7.45401 -1.05325,-4.73996 -3.01182,-9.52728 -5.46025,-13.34644 -0.40766,-0.63589 -0.7412,-1.3308 -0.7412,-1.54425 0,-0.31047 0.43479,-0.66751 2.17349,-1.78487 1.37838,-0.8858 2.34553,-1.39677 2.64377,-1.39677 0.39629,0 0.59663,0.19448 1.27335,1.23608 1.21103,1.86401 3.6442,6.78112 4.45034,8.99355 1.76784,4.85173 2.68534,9.30666 3.02856,14.70507 l 0.11652,1.83281 h -3.26265 -3.26264 z"
       id="path193634" /><path
       style="fill:#ff0000;fill-opacity:1;stroke:none;stroke-width:0.515509;stroke-linecap:round;stroke-dasharray:none;stroke-opacity:1"
       d="m 141.36413,186.53646 c -0.40963,-1.51276 -0.75488,-2.86863 -0.76722,-3.01303 -0.0157,-0.18326 0.4507,-0.43268 1.54406,-0.82578 6.35996,-2.28662 12.59185,-6.42209 17.02885,-11.30029 0.61835,-0.67984 1.26213,-1.23608 1.4306,-1.23608 0.5056,0 4.78087,3.20928 4.78087,3.58881 0,0.19153 -0.97776,1.33473 -2.34429,2.74097 -4.43229,4.56108 -8.52761,7.53548 -14.0231,10.18487 -2.51852,1.21418 -5.45654,2.37654 -6.38825,2.52736 l -0.51675,0.0836 z"
       id="path193705" /><path
       style="fill:#ffaaaa;fill-opacity:1;stroke:none;stroke-width:0.515509;stroke-linecap:round;stroke-dasharray:none;stroke-opacity:1"
       d="m 163.67635,170.95261 c -1.29471,-0.95637 -2.14875,-1.705 -2.17597,-1.90739 -0.0256,-0.19025 0.42849,-0.99127 1.05868,-1.86758 0.60692,-0.84394 1.3943,-2.05054 1.74974,-2.68133 0.49202,-0.87317 0.73678,-1.14783 1.02557,-1.15083 0.4007,-0.004 5.50272,2.35598 5.50272,2.54551 0,0.24133 -1.96964,3.42431 -3.09014,4.99373 -0.90294,1.26469 -1.27776,1.66092 -1.56354,1.65281 -0.20674,-0.006 -1.33491,-0.71908 -2.50706,-1.58492 z"
       id="path194537" /><path
       style="fill:#ffaaaa;fill-opacity:1;stroke:none;stroke-width:0.515509;stroke-linecap:round;stroke-dasharray:none;stroke-opacity:1"
       d="m 160.64635,115.47543 c -0.75809,-0.91427 -1.76747,-2.04304 -2.24306,-2.50837 -0.5136,-0.50253 -0.86471,-0.99626 -0.86471,-1.21596 0,-0.25873 0.59237,-0.88839 1.9709,-2.09496 2.53664,-2.22022 2.49715,-2.21809 4.31573,-0.23324 1.4048,1.53323 3.80167,4.50312 3.70904,4.59575 -0.39771,0.39772 -4.89132,3.1167 -5.15258,3.11771 -0.24448,0.001 -0.79132,-0.52245 -1.73532,-1.66093 z"
       id="path194539" /><text
       xml:space="preserve"
       style="font-style:normal;font-variant:normal;font-weight:normal;font-stretch:normal;font-size:8.25762px;font-family:Lato;-inkscape-font-specification:Lato;text-align:center;text-anchor:middle;white-space:pre;inline-size:20.9463;display:inline;fill:#000000;fill-opacity:1;stroke:none;stroke-width:0.502017;stroke-linecap:round;stroke-dasharray:none;stroke-opacity:1"
       x="176.16333"
       y="121.61835"
       id="text195119-8"
       transform="translate(8.0156204,4.6971556)"><tspan
         x="176.16333"
         y="121.61835"
         id="tspan752"><tspan
           style="stroke-width:0.502018"
           id="tspan750">gltA</tspan></tspan></text><text
       xml:space="preserve"
       style="font-style:normal;font-variant:normal;font-weight:normal;font-stretch:normal;font-size:8.25762px;font-family:Lato;-inkscape-font-specification:Lato;text-align:center;text-anchor:middle;white-space:pre;inline-size:118.489;display:inline;fill:#000000;fill-opacity:1;stroke:none;stroke-width:0.502017;stroke-linecap:round;stroke-dasharray:none;stroke-opacity:1"
       x="176.16333"
       y="121.61835"
       id="text195119-8-32"
       transform="translate(-45.061689,102.80638)"><tspan
         x="176.16333"
         y="121.61835"
         id="tspan756"><tspan
           style="stroke-width:0.502018"
           id="tspan754">gltA deficient Geobacter strain</tspan></tspan></text><text
       xml:space="preserve"
       style="font-style:normal;font-variant:normal;font-weight:normal;font-stretch:normal;font-size:8.25762px;font-family:Lato;-inkscape-font-specification:Lato;text-align:center;text-anchor:middle;white-space:pre;inline-size:154.314;display:inline;fill:#000000;fill-opacity:1;stroke:none;stroke-width:0.502017;stroke-linecap:round;stroke-dasharray:none;stroke-opacity:1"
       x="176.16333"
       y="121.61835"
       id="text195119-8-9"
       transform="translate(71.602325,23.172555)"><tspan
         x="176.16333"
         y="121.61835"
         id="tspan760"><tspan
           style="stroke-width:0.502018"
           id="tspan758">LacI regulates GltA 
</tspan></tspan></text><text
       xml:space="preserve"
       style="font-style:normal;font-variant:normal;font-weight:normal;font-stretch:normal;font-size:8.25762px;font-family:Lato;-inkscape-font-specification:Lato;text-align:center;text-anchor:middle;white-space:pre;inline-size:154.314;display:inline;fill:#000000;fill-opacity:1;stroke:none;stroke-width:0.502017;stroke-linecap:round;stroke-dasharray:none;stroke-opacity:1"
       x="176.16333"
       y="121.61835"
       id="text195119-8-9-0"
       transform="translate(73.291002,-3.9319236)"><tspan
         x="176.16333"
         y="121.61835"
         id="tspan764"><tspan
           style="stroke-width:0.502018"
           id="tspan762">IPTG regulates LacI 
</tspan></tspan></text><text
       xml:space="preserve"
       style="font-style:normal;font-variant:normal;font-weight:normal;font-stretch:normal;font-size:8.25762px;font-family:Lato;-inkscape-font-specification:Lato;text-align:center;text-anchor:middle;white-space:pre;inline-size:154.314;display:inline;fill:#000000;fill-opacity:1;stroke:none;stroke-width:0.502017;stroke-linecap:round;stroke-dasharray:none;stroke-opacity:1"
       x="176.16333"
       y="121.61835"
       id="text195119-8-9-2"
       transform="translate(91.106824,50.277031)"><tspan
         x="176.16333"
         y="121.61835"
         id="tspan768"><tspan
           style="stroke-width:0.502018"
           id="tspan766">GltA regulates current output 
</tspan></tspan></text><text
       xml:space="preserve"
       style="font-style:normal;font-variant:normal;font-weight:normal;font-stretch:normal;font-size:8.25762px;font-family:Lato;-inkscape-font-specification:Lato;text-align:center;text-anchor:middle;white-space:pre;inline-size:20.9463;display:inline;fill:#000000;fill-opacity:1;stroke:none;stroke-width:0.502017;stroke-linecap:round;stroke-dasharray:none;stroke-opacity:1"
       x="176.16333"
       y="121.61835"
       id="text195119-8-3"
       transform="translate(-14.069553,69.472962)"><tspan
         x="176.16333"
         y="121.61835"
         id="tspan770">lacI</tspan></text><text
       xml:space="preserve"
       style="font-style:normal;font-variant:normal;font-weight:normal;font-stretch:normal;font-size:8.25762px;font-family:Lato;-inkscape-font-specification:Lato;text-align:center;text-anchor:middle;fill:#000000;fill-opacity:1;stroke:none;stroke-width:0.502017;stroke-linecap:round;stroke-dasharray:none;stroke-opacity:1"
       x="127.71719"
       y="145.58783"
       id="text195119-2-1"><tspan
         sodipodi:role="line"
         id="tspan195117-6-8"
         style="font-style:normal;font-variant:normal;font-weight:normal;font-stretch:normal;font-family:Lato;-inkscape-font-specification:Lato;stroke-width:0.502018"
         x="127.71719"
         y="145.58783">Plasmid</tspan></text><path
       style="fill:none;fill-opacity:1;stroke:#000000;stroke-width:0.8;stroke-linecap:round;stroke-dasharray:none;stroke-opacity:1;marker-end:url(#Arrow1)"
       d="m 169.38146,169.3939 4.22608,2.26041 -1.94204,3.36371"
       id="path195317" /><path
       style="fill:none;fill-opacity:1;stroke:#000000;stroke-width:0.8;stroke-linecap:round;stroke-dasharray:none;stroke-opacity:1;marker-end:url(#Arrow1-3)"
       d="m 165.38924,110.15305 3.67883,-3.07171 2.39138,3.06061"
       id="path195317-94" /><rect
       style="fill:#808000;fill-opacity:0.260274;stroke:#000000;stroke-width:0.750001;stroke-linecap:round;stroke-dasharray:none;stroke-opacity:1"
       id="rect199882"
       width="226.13095"
       height="77.331703"
       x="75.109558"
       y="229.57607"
       ry="38.665852" /><path
       style="fill:#00ffff;fill-opacity:0.260274;stroke:#000000;stroke-width:0.750001;stroke-linecap:round;stroke-dasharray:none;stroke-opacity:1"
       id="path199960"
       d="m 130.49023,241.18142 c -2.43075,-0.74754 -4.87428,-1.45819 -7.31311,-2.18144 -1.77883,-0.49658 -3.58528,-1.07592 -5.43571,-0.77172 -2.58278,0.78431 -3.89583,2.54696 -4.96915,4.90308 -0.75656,2.12769 -1.07968,4.38176 -0.99373,6.63346 0.0647,1.78158 0.60482,3.37389 1.83564,4.66697 1.91809,1.73207 4.00338,2.74172 6.46245,2.8432 1.81718,-0.1244 3.53576,0.0912 5.27858,0.59853 0.43643,0.16437 0.87839,0.31476 1.3093,0.4931 0.45864,0.18981 0.91156,0.39397 1.35806,0.61081 0.4399,0.21363 1.71179,0.94378 1.29997,0.68004 -4.49452,-2.8784 -1.14033,-0.52732 -0.26948,0.17725 1.42637,1.30779 1.8952,3.0974 2.13998,4.94495 0.20023,1.48861 0.0156,2.96935 -0.36432,4.41205 -0.33334,1.14664 -0.91556,2.20125 -1.35066,3.3133 -0.55305,1.31782 -1.35331,2.52681 -2.16647,3.69807 -0.86271,1.36707 -1.75617,2.70609 -2.82834,3.91719 -1.28162,1.44834 -2.9098,1.94928 -4.75068,2.27505 -1.75741,0.25701 -3.53647,0.26437 -5.3085,0.26585 -0.12696,-0.0107 -1.33709,-0.10665 -1.47587,-0.14144 -0.2355,-0.059 -0.88437,-0.39613 -0.67549,-0.27239 4.9807,2.95049 2.39018,1.31218 1.31003,0.17055 -1.34834,-1.92398 -2.45541,-4.0302 -3.05178,-6.30872 -0.29336,-1.64707 0.8433,-1.55742 2.14211,-1.68537 1.42779,-0.0894 2.85945,-0.056 4.2888,-0.0344 1.59996,0.074 5.31218,2.45607 -0.007,-0.59425 1.90983,1.05754 3.4243,2.60287 4.87106,4.20763 1.67771,2.06109 3.51673,3.97472 5.32744,5.91631 1.47747,1.78184 3.369,3.07777 5.31496,4.28772 3.10666,2.29989 5.98586,3.38382 9.41242,4.66164 1.68687,0.62078 3.4529,0.86695 5.23521,0.9834 2.16048,0.2689 3.89936,-0.73973 5.66638,-1.8333 2.12005,-1.37394 3.73768,-3.38035 5.18504,-5.42125 1.86012,-2.17936 2.53584,-4.83952 3.02772,-7.59181 0.52667,-2.98769 0.42007,-5.98726 -0.15402,-8.95198 -0.62175,-2.89025 -2.17373,-5.32189 -3.97004,-7.61145 -2.18561,-2.62883 -5.17828,-4.03177 -8.11784,-5.6828 -1.38815,-0.67392 -2.88537,-1.0097 -4.40779,-1.18943 -1.09126,-0.0712 -2.36602,-0.34186 -3.23795,0.53627 -0.24478,0.24653 -0.40213,0.56663 -0.6032,0.84994 -1.23899,3.3242 -1.19841,6.9942 -1.02791,10.49578 0.2795,3.28109 1.10885,6.48837 1.68664,9.72699 0.60994,3.52615 0.84511,7.09927 0.9695,10.67082 0.19816,2.11085 -0.0346,3.40048 -1.09599,5.20384 -0.97324,1.53333 -2.58297,2.43775 -4.06184,3.41343 -2.18414,1.45994 -4.62094,2.23862 -7.17421,2.73447 -2.3378,0.33928 -4.71485,0.50046 -7.07245,0.32487 0.57541,0.43402 -3.33666,-1.27593 -2.47867,-1.02463 0.68654,0.20109 1.4524,1.33564 1.97285,0.84483 0.47763,-0.45044 -0.89229,-0.96536 -1.29626,-1.48289 -1.08736,-1.39303 -1.3105,-1.91925 -2.16994,-3.44251 -1.80398,-3.52433 -2.43,-7.40927 -2.81483,-11.30231 -0.28344,-3.41592 -0.43462,-6.8271 0.39188,-10.1726 0.94158,-3.14896 2.60924,-5.93639 4.74929,-8.40358 2.13385,-2.19407 4.71985,-3.86577 7.38003,-5.34552 1.70816,-0.90953 3.596,-1.37093 5.41352,-2.00348 2.02211,-0.52213 4.0051,-1.17771 5.98487,-1.83951 2.45445,-0.71667 4.72752,-1.76102 6.92934,-3.04965 2.39786,-1.52629 3.87927,-3.74238 4.80862,-6.37411 0.72063,-2.27815 0.60167,-4.48492 -0.67502,-6.51214 -2.11834,-2.39535 -5.15996,-3.80108 -8.07214,-5.03533 -1.90006,-0.9249 -3.88647,-1.64746 -5.92235,-2.2051 -1.68016,-0.44251 -3.40888,-0.60011 -5.13888,-0.66586 -0.26377,0.0616 -0.55709,0.0487 -0.79131,0.18475 -1.69856,0.98664 -2.1258,4.20905 -2.43235,5.93896 -0.17855,1.95719 -0.51781,3.86639 -1.60235,5.53201 -0.7682,0.90284 -1.89321,1.0192 -3.00402,1.09705 -1.06329,0.085 -2.08322,0.0248 -3.1163,-0.21674 -1.14565,-0.29258 -2.32149,-0.36538 -3.49739,-0.41077 -2.24715,-0.028 -4.49652,-0.0838 -6.73957,0.0671 -3.23081,0.16785 -6.30673,1.31042 -9.25303,2.57154 -2.956605,1.23232 -4.342254,3.08434 -5.430872,6.00442 -0.75961,2.28019 -0.878459,4.67619 -0.934489,7.05713 -0.0024,2.12652 0.710951,4.01912 1.902917,5.74711 1.579682,2.1287 4.032464,3.75044 6.603194,4.41343 0.83102,0.37287 1.73174,0.49448 2.63039,0.57031 0.88491,0.0576 1.77225,0.0523 2.65855,0.0505 1.12255,-0.005 2.24511,-0.007 3.36767,-0.008 1.08658,-8e-4 2.17316,1.6e-4 3.25974,0.002 1.10792,0.0791 2.01186,-0.34616 2.90301,-0.95323 1.60048,-1.26734 3.02456,-2.7431 4.47119,-4.17954 1.63424,-1.95336 2.99167,-4.13883 4.1098,-6.42361 1.02634,-2.25761 1.91486,-4.57508 2.62884,-6.94987 0.47094,-1.96702 1.01148,-3.91575 1.37184,-5.90732 0,0 -3.47886,-1.84763 -3.47886,-1.84763 v 0 c -0.32171,1.98754 -0.84162,3.92956 -1.31188,5.88553 -0.7045,2.35504 -1.57883,4.65819 -2.59058,6.89839 -1.09706,2.24609 -2.4391,4.39224 -4.05044,6.30693 -1.4356,1.41691 -2.85347,2.87441 -4.47103,4.08629 -0.87004,0.5433 -1.74367,0.83598 -2.78447,0.7573 -1.08421,0.002 -2.16841,0.003 -3.25262,0.004 -1.12519,7.9e-4 -2.25038,0.004 -3.37556,0.002 -0.87947,-0.004 -1.7608,-0.002 -2.63732,-0.0838 -0.88628,-0.10429 -1.74664,-0.29897 -2.57988,-0.62558 -1.568599,-0.53143 -0.432399,-0.18449 2.37047,1.54094 0.18289,0.11259 -0.38917,-0.18416 -0.57101,-0.29844 -0.68406,-0.42994 -1.20922,-1.03287 -1.67671,-1.68352 -1.239028,-1.62774 -1.976176,-3.45319 -2.0217,-5.52266 0.04685,-2.34172 0.135475,-4.70194 0.853657,-6.95348 1.042263,-2.83922 2.390593,-4.55534 5.251773,-5.74467 2.92824,-1.24327 5.98235,-2.33103 9.19323,-2.45113 2.25183,-0.11698 4.50805,-0.0668 6.76141,5e-5 1.16855,0.0637 2.33105,0.18287 3.46871,0.47161 1.05326,0.21081 2.11649,0.20128 3.18613,0.11977 1.22136,-0.13121 2.39305,-0.3819 3.18962,-1.40639 1.08416,-1.72884 1.47909,-3.67594 1.6248,-5.69717 0.24931,-1.47576 0.65245,-4.78533 2.23086,-5.50781 0.22763,-0.1042 0.49553,-0.0717 0.74329,-0.10749 1.70493,0.0801 3.40655,0.2589 5.05681,0.71795 2.02888,0.58611 3.99846,1.34494 5.90376,2.25807 1.24588,0.55574 4.16052,2.2541 -0.82587,-0.7109 -0.93784,-0.55766 3.09187,1.81704 2.23025,1.74719 1.44737,1.92111 1.51098,3.92484 0.864,6.19686 -0.91201,2.63713 -2.27419,4.61715 -4.66767,6.13791 -2.19056,1.26615 -4.46775,2.26197 -6.90076,2.97141 -1.98946,0.64913 -3.97595,1.30875 -6.00339,1.83217 -1.83488,0.61852 -3.71951,1.13614 -5.42139,2.08373 -2.67813,1.52204 -5.27392,3.24901 -7.42246,5.47688 -2.17151,2.52007 -3.88249,5.34835 -4.84602,8.55609 -0.87406,3.44645 -0.71713,6.78201 -0.42826,10.302 0.3734,3.9329 0.97936,7.86791 2.75436,11.44777 0.7089,1.2951 2.23493,4.16014 3.38525,5.04998 1.45742,1.12741 3.05997,2.056 4.63611,3.01039 0.96136,0.58213 1.53565,0.6513 2.58799,0.92065 2.3795,0.11795 4.77181,-0.0172 7.1225,-0.41437 2.58495,-0.54433 5.05312,-1.37784 7.27661,-2.84539 1.53351,-1.00607 3.17254,-1.96424 4.1722,-3.55658 1.05593,-1.80238 1.41899,-3.31617 1.15672,-5.42468 -0.16323,-3.59307 -0.39409,-7.19003 -0.99522,-10.74089 -0.55361,-3.22373 -1.3202,-6.41773 -1.67264,-9.66973 -0.21687,-3.41092 -0.30239,-7.0022 0.94554,-10.23575 0.17859,-0.23537 0.3165,-0.50808 0.53577,-0.70609 0.82489,-0.74491 2.11946,-0.35883 3.09404,-0.31668 1.49923,0.21258 2.96393,0.59117 4.31939,1.28631 -6.25682,-3.72973 0.58211,0.19169 1.4768,1.70122 1.81023,2.23557 3.38766,4.59721 4.04999,7.44538 0.60567,2.91817 0.73618,5.8769 0.22894,8.82808 -0.4725,2.70114 -1.15418,5.28549 -2.96158,7.43192 -1.42492,1.99745 -3.02057,3.95281 -5.11357,5.28028 -1.74696,1.05161 -3.44651,1.91937 -5.55131,1.61762 -1.76012,-0.14047 -3.49878,-0.43116 -5.15804,-1.06133 -1.02441,-0.36518 -2.05381,-0.69239 -3.04427,-1.14603 -1.23947,-0.56769 -2.87599,-1.52345 1.30151,0.89517 0.3213,0.18602 -0.62918,-0.39435 -0.94376,-0.59152 -1.95002,-1.18292 -3.88237,-2.42095 -5.36041,-4.19272 -1.81243,-1.94262 -3.67996,-3.8322 -5.341,-5.91096 -1.41697,-1.63103 -2.90366,-3.21375 -4.79088,-4.30963 -2.16113,-1.24661 -4.26545,-2.9805 -6.84693,-3.13761 -1.43599,-0.014 -2.87535,-0.0402 -4.30778,0.0827 -1.41781,0.18745 -2.78602,0.52789 -2.47347,2.26692 0.57849,2.33404 1.71489,4.45681 2.98433,6.48674 1.91403,2.22287 4.61326,4.12167 7.63131,4.06891 1.78257,-0.015 3.57271,-0.0335 5.33527,-0.33402 1.90488,-0.37864 3.58845,-0.97555 4.90201,-2.48545 1.08191,-1.2232 1.98878,-2.57132 2.85736,-3.9533 0.83268,-1.19546 1.65118,-2.42909 2.22845,-3.76983 0.43694,-1.12692 1.02763,-2.19388 1.36389,-3.35511 0.40595,-1.48323 0.60454,-3.01639 0.42638,-4.55215 -0.23104,-1.90694 -0.65596,-3.80157 -2.04375,-5.22539 -3.04668,-2.57547 -6.67439,-4.45065 -10.41484,-5.80078 -1.7745,-0.46868 -3.5367,-0.61551 -5.37049,-0.56298 -2.10159,-0.15709 -3.82306,-1.4718 0.88053,1.31288 0.17139,0.10146 -0.34009,-0.20739 -0.51014,-0.31108 -1.31615,-1.15044 -1.90716,-2.66376 -1.98126,-4.4077 -0.14553,-2.1918 0.17645,-4.40155 0.88287,-6.48162 0.99161,-2.20923 2.30773,-3.95577 4.78317,-4.54839 1.81665,-0.15165 3.57457,0.39253 5.31137,0.88028 2.45699,0.72861 4.92649,1.42347 7.35721,2.23506 0,0 -3.12335,-2.42941 -3.12335,-2.42941 z" /><g
       id="g200873"
       transform="translate(12.299272,9.697801)" /><circle
       style="fill:none;stroke:#000000;stroke-width:0.515167;stroke-linecap:round;stroke-dasharray:none;stroke-opacity:1"
       id="path186094-3"
       cx="230.90445"
       cy="268.36319"
       r="31.860367" /><circle
       style="fill:none;stroke:#000000;stroke-width:0.486794;stroke-linecap:round;stroke-dasharray:none;stroke-opacity:1"
       id="path186096-7"
       cx="230.90445"
       cy="268.36319"
       r="27.124859" /><path
       style="fill:none;stroke:#000000;stroke-width:0.515167;stroke-linecap:round;stroke-dasharray:none;stroke-opacity:1"
       d="m 202.60636,253.72416 4.28706,2.02046"
       id="path186210-5"
       inkscape:path-effect="#path-effect186212-9"
       inkscape:original-d="m 202.60636,253.72416 4.28706,2.02046"
       sodipodi:nodetypes="cc" /><path
       style="fill:none;stroke:#000000;stroke-width:0.515167;stroke-linecap:round;stroke-dasharray:none;stroke-opacity:1"
       d="m 215.06319,240.72015 2.66045,3.93599"
       id="path186214-9"
       inkscape:path-effect="#path-effect186216-3"
       inkscape:original-d="m 215.06319,240.72015 2.66045,3.93599"
       sodipodi:nodetypes="cc" /><path
       style="fill:#a6a6a6;fill-opacity:1;stroke:#000000;stroke-width:0.515167;stroke-linecap:round;stroke-dasharray:none;stroke-opacity:1"
       d="m 200.6443,258.39292 4.38089,1.18103"
       id="path186643-2"
       inkscape:path-effect="#path-effect186645-6"
       inkscape:original-d="m 200.6443,258.39292 c 1.51843,0.43701 2.8628,0.74437 4.38089,1.18103"
       sodipodi:nodetypes="cc" /><path
       style="fill:#a6a6a6;fill-opacity:1;stroke:#000000;stroke-width:0.515167;stroke-linecap:round;stroke-dasharray:none;stroke-opacity:1"
       d="m 203.79378,284.76312 3.85503,-2.06705"
       id="path186647-2"
       inkscape:path-effect="#path-effect186649-0"
       inkscape:original-d="m 203.79378,284.76312 c 1.58259,-0.34303 2.27278,-1.72368 3.85503,-2.06705"
       sodipodi:nodetypes="cc" /><path
       style="fill:#a6a6a6;fill-opacity:1;stroke:#000000;stroke-width:0.515167;stroke-linecap:round;stroke-dasharray:none;stroke-opacity:1"
       d="m 239.88243,298.74093 -1.14073,-4.12215"
       id="path186647-6-1-8"
       inkscape:path-effect="#path-effect186649-3-6-6"
       inkscape:original-d="m 239.88243,298.74093 c 0.20706,-1.60605 -1.34732,-2.5163 -1.14073,-4.12215"
       sodipodi:nodetypes="cc" /><path
       style="fill:#a6a6a6;fill-opacity:1;stroke:#000000;stroke-width:0.515167;stroke-linecap:round;stroke-dasharray:none;stroke-opacity:1"
       d="m 262.76482,268.36319 h -4.73551"
       id="path186647-6-1-9-9"
       inkscape:path-effect="#path-effect186649-3-6-0-2"
       inkscape:original-d="m 262.76482,268.36319 c 0.20705,-1.60606 -4.9421,1.60584 -4.73551,0"
       sodipodi:nodetypes="cc" /><path
       style="fill:#a6a6a6;fill-opacity:1;stroke:#000000;stroke-width:0.515167;stroke-linecap:round;stroke-dasharray:none;stroke-opacity:1"
       d="m 255.75804,288.29762 -3.83857,-2.78661"
       id="path186647-6-5-2-7"
       inkscape:path-effect="#path-effect186649-3-7-2-6"
       inkscape:original-d="m 255.75804,288.29762 c 0.20705,-1.60604 -4.04518,-1.18074 -3.83857,-2.78661"
       sodipodi:nodetypes="cc" /><path
       style="fill:#a6a6a6;fill-opacity:1;stroke:#000000;stroke-width:0.515167;stroke-linecap:round;stroke-dasharray:none;stroke-opacity:1"
       d="m 256.97793,250.05318 -3.97944,2.57434"
       id="path186647-6-5-2-6-3"
       inkscape:path-effect="#path-effect186649-3-7-2-3-1"
       inkscape:original-d="m 256.97793,250.05318 c 0.20705,-1.60604 -4.18604,4.18021 -3.97944,2.57434"
       sodipodi:nodetypes="cc" /><path
       style="fill:#a6a6a6;fill-opacity:1;stroke:#000000;stroke-width:0.515167;stroke-linecap:round;stroke-dasharray:none;stroke-opacity:1"
       d="m 252.92394,245.33657 -3.59128,3.12287"
       id="path186647-6-5-2-6-6-6"
       inkscape:path-effect="#path-effect186649-3-7-2-3-0-8"
       inkscape:original-d="m 252.92394,245.33657 c 0.20705,-1.60604 -3.79789,4.72874 -3.59128,3.12287"
       sodipodi:nodetypes="cc" /><path
       style="fill:#a6a6a6;fill-opacity:1;stroke:#000000;stroke-width:0.515167;stroke-linecap:round;stroke-dasharray:none;stroke-opacity:1"
       d="m 259.11382,283.17245 -4.28451,-2.02807"
       id="path186647-6-5-5-7-1"
       inkscape:path-effect="#path-effect186649-3-7-3-9-7"
       inkscape:original-d="m 259.11382,283.17245 c 1.65376,0.87685 -3.76739,0.81986 -4.28451,-2.02807"
       sodipodi:nodetypes="cc" /><path
       style="fill:#a6a6a6;fill-opacity:1;stroke:none;stroke-width:0.469471;stroke-linecap:round;stroke-dasharray:none;stroke-opacity:1"
       d="m 203.11494,283.17477 c -1.99973,-3.90035 -2.95539,-6.93075 -3.47848,-11.03032 -0.31185,-2.44397 -0.2356,-6.67033 0.16025,-8.88278 0.23954,-1.33878 0.96236,-4.2675 1.08303,-4.38817 0.0543,-0.0543 3.67045,0.88857 3.79552,0.98965 0.0319,0.0258 -0.0981,0.65903 -0.28899,1.40723 -1.68618,6.6108 -1.01675,13.28691 1.93032,19.25072 1.1038,2.23371 1.21491,1.85602 -0.87686,2.98091 -0.65781,0.35376 -1.33804,0.64318 -1.51163,0.64318 -0.23057,0 -0.44968,-0.26148 -0.81316,-0.97042 z"
       id="path187004-2" /><path
       style="fill:#a6a6a6;fill-opacity:1;stroke:none;stroke-width:0.331967;stroke-linecap:round;stroke-dasharray:none;stroke-opacity:1"
       d="m 204.84728,254.4261 c -1.7993,-0.84432 -1.80398,-0.85156 -1.21895,-1.88884 1.67681,-2.97306 4.69205,-6.48591 7.49136,-8.72766 1.44304,-1.15562 3.43786,-2.4799 3.73558,-2.4799 0.18523,0 0.46771,0.34103 1.25043,1.50963 0.55612,0.83029 1.01104,1.56589 1.01092,1.63465 -1.1e-4,0.0688 -0.55603,0.49585 -1.23536,0.94908 -2.38139,1.58881 -4.3633,3.35142 -6.03553,5.36769 -0.90313,1.08894 -2.14121,2.85368 -2.70173,3.851 -0.19799,0.35227 -0.36427,0.52092 -0.51262,0.51994 -0.12078,-6.4e-4 -0.92362,-0.33182 -1.7841,-0.73559 z"
       id="path187006-9" /><path
       style="fill:#008000;fill-opacity:1;stroke:none;stroke-width:0.331967;stroke-linecap:round;stroke-dasharray:none;stroke-opacity:1"
       d="m 258.28802,267.20964 c 0,-1.10004 -0.28135,-3.28619 -0.61775,-4.80008 -0.67825,-3.05234 -1.93948,-6.13518 -3.51617,-8.59456 -0.26252,-0.40949 -0.47731,-0.85698 -0.47731,-0.99443 0,-0.19993 0.27999,-0.42985 1.39964,-1.14938 0.88762,-0.57042 1.51043,-0.89947 1.70248,-0.89947 0.2552,0 0.38421,0.12524 0.81999,0.79599 0.77985,1.20034 2.34671,4.36676 2.86583,5.79147 1.13842,3.12432 1.72925,5.99311 1.95027,9.46947 l 0.075,1.18025 h -2.10102 -2.101 z"
       id="path193634-3" /><path
       style="fill:#ff0000;fill-opacity:1;stroke:none;stroke-width:0.331967;stroke-linecap:round;stroke-dasharray:none;stroke-opacity:1"
       d="m 239.63801,296.66936 c -0.26378,-0.97416 -0.48611,-1.84728 -0.49406,-1.94027 -0.0101,-0.11801 0.29024,-0.27863 0.99432,-0.53177 4.09555,-1.47249 8.10863,-4.13556 10.96588,-7.27692 0.39819,-0.43779 0.81276,-0.79599 0.92124,-0.79599 0.32559,0 3.07869,2.06665 3.07869,2.31105 0,0.12334 -0.62964,0.85951 -1.50963,1.76507 -2.85421,2.93715 -5.49143,4.85254 -9.0303,6.55864 -1.62182,0.78188 -3.51379,1.5304 -4.11377,1.62752 l -0.33277,0.0538 z"
       id="path193705-1" /><path
       style="fill:#ffaaaa;fill-opacity:1;stroke:none;stroke-width:0.331967;stroke-linecap:round;stroke-dasharray:none;stroke-opacity:1"
       d="m 254.00617,286.63399 c -0.83374,-0.61586 -1.38371,-1.09795 -1.40124,-1.22828 -0.0165,-0.12251 0.27593,-0.63833 0.68175,-1.20264 0.39083,-0.54347 0.89787,-1.32047 1.12676,-1.72667 0.31684,-0.56228 0.47446,-0.73916 0.66042,-0.74109 0.25804,-0.003 3.54353,1.51716 3.54353,1.63921 0,0.1554 -1.26837,2.20511 -1.98992,3.21575 -0.58146,0.81441 -0.82283,1.06957 -1.00686,1.06434 -0.13313,-0.004 -0.85963,-0.46305 -1.61444,-1.02062 z"
       id="path194537-9" /><path
       style="fill:#ffaaaa;fill-opacity:1;stroke:none;stroke-width:0.331967;stroke-linecap:round;stroke-dasharray:none;stroke-opacity:1"
       d="m 252.05497,250.90896 c -0.48818,-0.58875 -1.13818,-1.31563 -1.44444,-1.61528 -0.33073,-0.32361 -0.55684,-0.64155 -0.55684,-0.78303 0,-0.16661 0.38147,-0.57209 1.26918,-1.34907 1.6335,-1.42973 1.60807,-1.42836 2.77916,-0.1502 0.90463,0.98734 2.44812,2.89983 2.38847,2.95948 -0.25611,0.25611 -3.14981,2.00703 -3.31805,2.00768 -0.15744,6.4e-4 -0.50958,-0.33644 -1.11748,-1.06958 z"
       id="path194539-4" /><path
       style="fill:none;fill-opacity:1;stroke:#000000;stroke-width:0.515167;stroke-linecap:round;stroke-dasharray:none;stroke-opacity:1;marker-end:url(#Arrow1-9)"
       d="m 257.68002,285.63025 2.72143,1.45561 -1.2506,2.1661"
       id="path195317-0" /><path
       style="fill:none;fill-opacity:1;stroke:#000000;stroke-width:0.515167;stroke-linecap:round;stroke-dasharray:none;stroke-opacity:1;marker-end:url(#Arrow1-3-0)"
       d="m 255.1092,247.48157 2.36901,-1.97806 1.53995,1.97091"
       id="path195317-94-3" /><text
       xml:space="preserve"
       style="font-style:normal;font-variant:normal;font-weight:normal;font-stretch:normal;font-size:8.25762px;font-family:Lato;-inkscape-font-specification:Lato;text-align:center;text-anchor:middle;white-space:pre;inline-size:20.9463;display:inline;fill:#000000;fill-opacity:1;stroke:none;stroke-width:0.502017;stroke-linecap:round;stroke-dasharray:none;stroke-opacity:1"
       x="176.16333"
       y="121.61835"
       id="text195119-8-1"
       transform="rotate(66.068876,60.049515,183.72527)"><tspan
         x="176.16333"
         y="121.61835"
         id="tspan774"><tspan
           style="stroke-width:0.502018"
           id="tspan772">gltA</tspan></tspan></text><path
       style="fill:#ffffff;stroke-width:1.228;stroke-linecap:round;stroke:#f20505;stroke-opacity:1;stroke-dasharray:none"
       d="m 150.35994,261.97179 15.45789,11.59974"
       id="path2364" /><path
       style="fill:#ffffff;stroke:#f20505;stroke-width:1.228;stroke-linecap:round;stroke-opacity:1;stroke-dasharray:none"
       d="m 157.56076,276.90498 0.48019,-19.91992"
       id="path2364-0"
       sodipodi:nodetypes="cc" /></g></svg>
