<?xml version="1.0" encoding="UTF-8" standalone="no"?>
<!-- Created with Inkscape (http://www.inkscape.org/) -->

<svg
   width="284.04764mm"
   height="246.30804mm"
   viewBox="0 0 284.04764 246.30805"
   version="1.1"
   id="svg185107"
   inkscape:version="1.2.2 (b0a8486541, 2022-12-01)"
   sodipodi:docname="lovely-plasmids.svg"
   xml:space="preserve"
   xmlns:inkscape="http://www.inkscape.org/namespaces/inkscape"
   xmlns:sodipodi="http://sodipodi.sourceforge.net/DTD/sodipodi-0.dtd"
   xmlns="http://www.w3.org/2000/svg"
   xmlns:svg="http://www.w3.org/2000/svg"><sodipodi:namedview
     id="namedview185109"
     pagecolor="#ffffff"
     bordercolor="#000000"
     borderopacity="0.25"
     inkscape:showpageshadow="2"
     inkscape:pageopacity="0.0"
     inkscape:pagecheckerboard="0"
     inkscape:deskcolor="#d1d1d1"
     inkscape:document-units="mm"
     showgrid="false"
     inkscape:zoom="0.38796647"
     inkscape:cx="30.930508"
     inkscape:cy="242.28898"
     inkscape:window-width="2548"
     inkscape:window-height="1395"
     inkscape:window-x="1926"
     inkscape:window-y="39"
     inkscape:window-maximized="0"
     inkscape:current-layer="layer1" /><defs
     id="defs185104"><marker
       style="overflow:visible"
       id="Arrow1"
       refX="0"
       refY="0"
       orient="auto-start-reverse"
       inkscape:stockid="Arrow1"
       markerWidth="4.0606599"
       markerHeight="6.7071066"
       viewBox="0 0 4.0606602 6.7071068"
       inkscape:isstock="true"
       inkscape:collect="always"
       preserveAspectRatio="xMidYMid"><path
         style="fill:none;stroke:context-stroke;stroke-width:1;stroke-linecap:butt"
         d="M 3,-3 0,0 3,3"
         id="path5057"
         transform="rotate(180,0.125,0)"
         sodipodi:nodetypes="ccc" /></marker><inkscape:path-effect
       effect="spiro"
       id="path-effect186649"
       is_visible="true"
       lpeversion="1" /><inkscape:path-effect
       effect="spiro"
       id="path-effect186645"
       is_visible="true"
       lpeversion="1" /><inkscape:path-effect
       effect="spiro"
       id="path-effect186216"
       is_visible="true"
       lpeversion="1" /><inkscape:path-effect
       effect="spiro"
       id="path-effect186212"
       is_visible="true"
       lpeversion="1" /><inkscape:path-effect
       effect="spiro"
       id="path-effect186036"
       is_visible="true"
       lpeversion="1" /><inkscape:path-effect
       effect="spiro"
       id="path-effect185929"
       is_visible="true"
       lpeversion="1" /><inkscape:path-effect
       effect="spiro"
       id="path-effect185925"
       is_visible="true"
       lpeversion="1" /><inkscape:path-effect
       effect="bspline"
       id="path-effect185915"
       is_visible="true"
       lpeversion="1"
       weight="33.333333"
       steps="2"
       helper_size="0"
       apply_no_weight="true"
       apply_with_weight="true"
       only_selected="false" /><inkscape:path-effect
       effect="bspline"
       id="path-effect185911"
       is_visible="true"
       lpeversion="1"
       weight="33.333333"
       steps="2"
       helper_size="0"
       apply_no_weight="true"
       apply_with_weight="true"
       only_selected="false" /><inkscape:path-effect
       effect="bspline"
       id="path-effect185907"
       is_visible="true"
       lpeversion="1"
       weight="33.333333"
       steps="2"
       helper_size="0"
       apply_no_weight="true"
       apply_with_weight="true"
       only_selected="false" /><inkscape:path-effect
       effect="bspline"
       id="path-effect185903"
       is_visible="true"
       lpeversion="1"
       weight="33.333333"
       steps="2"
       helper_size="0"
       apply_no_weight="true"
       apply_with_weight="true"
       only_selected="false" /><inkscape:path-effect
       effect="spiro"
       id="path-effect186649-3"
       is_visible="true"
       lpeversion="1" /><inkscape:path-effect
       effect="spiro"
       id="path-effect186649-3-7"
       is_visible="true"
       lpeversion="1" /><inkscape:path-effect
       effect="spiro"
       id="path-effect186649-3-7-3"
       is_visible="true"
       lpeversion="1" /><inkscape:path-effect
       effect="spiro"
       id="path-effect186649-3-6"
       is_visible="true"
       lpeversion="1" /><inkscape:path-effect
       effect="spiro"
       id="path-effect186649-3-7-2"
       is_visible="true"
       lpeversion="1" /><inkscape:path-effect
       effect="spiro"
       id="path-effect186649-3-7-3-9"
       is_visible="true"
       lpeversion="1" /><inkscape:path-effect
       effect="spiro"
       id="path-effect186649-3-6-0"
       is_visible="true"
       lpeversion="1" /><inkscape:path-effect
       effect="spiro"
       id="path-effect186649-3-7-2-3"
       is_visible="true"
       lpeversion="1" /><inkscape:path-effect
       effect="spiro"
       id="path-effect186649-3-7-2-3-0"
       is_visible="true"
       lpeversion="1" /><marker
       style="overflow:visible"
       id="Arrow1-3"
       refX="0"
       refY="0"
       orient="auto-start-reverse"
       inkscape:stockid="Arrow1"
       markerWidth="4.0606604"
       markerHeight="6.7071066"
       viewBox="0 0 4.0606602 6.7071068"
       inkscape:isstock="true"
       inkscape:collect="always"
       preserveAspectRatio="xMidYMid"><path
         style="fill:none;stroke:context-stroke;stroke-width:1;stroke-linecap:butt"
         d="M 3,-3 0,0 3,3"
         id="path5057-1"
         transform="rotate(180,0.125,0)"
         sodipodi:nodetypes="ccc" /></marker><inkscape:path-effect
       effect="spiro"
       id="path-effect186212-7"
       is_visible="true"
       lpeversion="1" /><inkscape:path-effect
       effect="spiro"
       id="path-effect186216-8"
       is_visible="true"
       lpeversion="1" /><inkscape:path-effect
       effect="spiro"
       id="path-effect186645-4"
       is_visible="true"
       lpeversion="1" /><inkscape:path-effect
       effect="spiro"
       id="path-effect186649-5"
       is_visible="true"
       lpeversion="1" /><inkscape:path-effect
       effect="spiro"
       id="path-effect186649-3-0"
       is_visible="true"
       lpeversion="1" /><inkscape:path-effect
       effect="spiro"
       id="path-effect186649-3-7-36"
       is_visible="true"
       lpeversion="1" /><inkscape:path-effect
       effect="spiro"
       id="path-effect186649-3-7-3-1"
       is_visible="true"
       lpeversion="1" /><inkscape:path-effect
       effect="spiro"
       id="path-effect186649-3-6-06"
       is_visible="true"
       lpeversion="1" /><inkscape:path-effect
       effect="spiro"
       id="path-effect186649-3-6-0-3"
       is_visible="true"
       lpeversion="1" /><inkscape:path-effect
       effect="spiro"
       id="path-effect186649-3-7-2-2"
       is_visible="true"
       lpeversion="1" /><inkscape:path-effect
       effect="spiro"
       id="path-effect186649-3-7-2-3-06"
       is_visible="true"
       lpeversion="1" /><inkscape:path-effect
       effect="spiro"
       id="path-effect186649-3-7-2-3-0-1"
       is_visible="true"
       lpeversion="1" /><inkscape:path-effect
       effect="spiro"
       id="path-effect186649-3-7-3-9-5"
       is_visible="true"
       lpeversion="1" /><inkscape:path-effect
       effect="spiro"
       id="path-effect186649-3-7-2-3-0-1-7"
       is_visible="true"
       lpeversion="1" /><inkscape:path-effect
       effect="spiro"
       id="path-effect186649-3-7-2-3-0-1-7-7"
       is_visible="true"
       lpeversion="1" /><inkscape:path-effect
       effect="spiro"
       id="path-effect186649-3-7-2-3-0-1-7-7-2"
       is_visible="true"
       lpeversion="1" /><inkscape:path-effect
       effect="spiro"
       id="path-effect186649-3-7-2-3-0-1-7-7-2-1"
       is_visible="true"
       lpeversion="1" /><inkscape:path-effect
       effect="spiro"
       id="path-effect186649-3-7-2-3-0-1-7-7-2-1-6"
       is_visible="true"
       lpeversion="1" /><inkscape:path-effect
       effect="spiro"
       id="path-effect186649-3-7-2-3-0-1-7-7-2-1-6-5"
       is_visible="true"
       lpeversion="1" /><inkscape:path-effect
       effect="spiro"
       id="path-effect186649-3-7-2-3-0-1-7-7-2-1-6-5-4"
       is_visible="true"
       lpeversion="1" /><marker
       style="overflow:visible"
       id="Arrow1-3-5-0"
       refX="0"
       refY="0"
       orient="auto-start-reverse"
       inkscape:stockid="Arrow1"
       markerWidth="4.0606604"
       markerHeight="6.7071066"
       viewBox="0 0 4.0606602 6.7071068"
       inkscape:isstock="true"
       inkscape:collect="always"
       preserveAspectRatio="xMidYMid"><path
         style="fill:none;stroke:context-stroke;stroke-width:1;stroke-linecap:butt"
         d="M 3,-3 0,0 3,3"
         id="path5057-1-6-9"
         transform="rotate(180,0.125,0)"
         sodipodi:nodetypes="ccc" /></marker><inkscape:path-effect
       effect="spiro"
       id="path-effect186212-73"
       is_visible="true"
       lpeversion="1" /><inkscape:path-effect
       effect="spiro"
       id="path-effect186216-6"
       is_visible="true"
       lpeversion="1" /><inkscape:path-effect
       effect="spiro"
       id="path-effect186645-5"
       is_visible="true"
       lpeversion="1" /><inkscape:path-effect
       effect="spiro"
       id="path-effect186649-6"
       is_visible="true"
       lpeversion="1" /><inkscape:path-effect
       effect="spiro"
       id="path-effect186649-3-3"
       is_visible="true"
       lpeversion="1" /><inkscape:path-effect
       effect="spiro"
       id="path-effect186649-3-7-9"
       is_visible="true"
       lpeversion="1" /><inkscape:path-effect
       effect="spiro"
       id="path-effect186649-3-7-3-4"
       is_visible="true"
       lpeversion="1" /><inkscape:path-effect
       effect="spiro"
       id="path-effect186649-3-6-8"
       is_visible="true"
       lpeversion="1" /><inkscape:path-effect
       effect="spiro"
       id="path-effect186649-3-6-0-1"
       is_visible="true"
       lpeversion="1" /><inkscape:path-effect
       effect="spiro"
       id="path-effect186649-3-7-2-29"
       is_visible="true"
       lpeversion="1" /><inkscape:path-effect
       effect="spiro"
       id="path-effect186649-3-7-2-3-3"
       is_visible="true"
       lpeversion="1" /><inkscape:path-effect
       effect="spiro"
       id="path-effect186649-3-7-2-3-0-9"
       is_visible="true"
       lpeversion="1" /><inkscape:path-effect
       effect="spiro"
       id="path-effect186649-3-7-3-9-0"
       is_visible="true"
       lpeversion="1" /><inkscape:path-effect
       effect="spiro"
       id="path-effect186649-3-7-2-3-0-1-7-3"
       is_visible="true"
       lpeversion="1" /><inkscape:path-effect
       effect="spiro"
       id="path-effect186649-3-7-2-3-0-1-7-7-8"
       is_visible="true"
       lpeversion="1" /><inkscape:path-effect
       effect="spiro"
       id="path-effect186649-3-7-2-3-0-1-7-7-2-5"
       is_visible="true"
       lpeversion="1" /><inkscape:path-effect
       effect="spiro"
       id="path-effect186649-3-7-2-3-0-1-7-7-2-1-61"
       is_visible="true"
       lpeversion="1" /><inkscape:path-effect
       effect="spiro"
       id="path-effect186649-3-7-2-3-0-1-7-7-2-1-6-1"
       is_visible="true"
       lpeversion="1" /><inkscape:path-effect
       effect="spiro"
       id="path-effect186649-3-7-2-3-0-1-7-7-2-1-6-5-5"
       is_visible="true"
       lpeversion="1" /><inkscape:path-effect
       effect="spiro"
       id="path-effect186649-3-7-2-3-0-1-7-7-2-1-6-5-4-9"
       is_visible="true"
       lpeversion="1" /><clipPath
       clipPathUnits="userSpaceOnUse"
       id="clipPath202592"><rect
         style="fill:none;fill-opacity:0.260274;stroke:#000000;stroke-width:0.754049;stroke-linecap:round;stroke-dasharray:none;stroke-opacity:1"
         id="rect202594"
         width="283.29364"
         height="99.892906"
         x="37.451324"
         y="392.8822"
         ry="36.683743"
         rx="0" /></clipPath></defs><g
     inkscape:label="Layer 1"
     inkscape:groupmode="layer"
     id="layer1"
     transform="translate(-46.151214,-81.293232)"><rect
       style="fill:#ffffff;fill-opacity:1;stroke:none;stroke-width:0.8191;stroke-linecap:round;stroke-dasharray:none;stroke-opacity:1"
       id="rect201572-5"
       width="283.22855"
       height="117.8989"
       x="46.560764"
       y="209.29282"
       ry="43.296097"
       rx="0" /><rect
       style="fill:#ffffff;fill-opacity:1;stroke:none;stroke-width:0.8191;stroke-linecap:round;stroke-dasharray:none;stroke-opacity:1"
       id="rect201572"
       width="283.22855"
       height="117.8989"
       x="46.560764"
       y="81.702782"
       ry="43.296097"
       rx="0" /><text
       xml:space="preserve"
       style="font-size:13.1591px;font-family:'IBM Plex Sans';-inkscape-font-specification:'IBM Plex Sans, Normal';text-align:center;text-anchor:middle;fill:#000000;fill-opacity:1;stroke:none;stroke-width:0.799999;stroke-linecap:round;stroke-dasharray:none;stroke-opacity:1"
       x="64.095619"
       y="76.279495"
       id="text194595"><tspan
         sodipodi:role="line"
         id="tspan194593"
         style="fill:#000000;fill-opacity:1;stroke-width:0.8"
         x="64.095619"
         y="76.279495" /></text><circle
       style="fill:none;stroke:#000000;stroke-width:0.8;stroke-linecap:round;stroke-dasharray:none;stroke-opacity:1"
       id="path186094"
       cx="127.80183"
       cy="142.57999"
       r="49.475769" /><circle
       style="fill:none;stroke:#000000;stroke-width:0.75594;stroke-linecap:round;stroke-dasharray:none;stroke-opacity:1"
       id="path186096"
       cx="127.80183"
       cy="142.57999"
       r="42.122028" /><path
       style="fill:none;stroke:#000000;stroke-width:0.799999;stroke-linecap:round;stroke-dasharray:none;stroke-opacity:1"
       d="m 83.857905,119.84713 6.65735,3.13755"
       id="path186210"
       inkscape:path-effect="#path-effect186212"
       inkscape:original-d="m 83.857905,119.84713 6.65735,3.13755"
       sodipodi:nodetypes="cc" /><path
       style="fill:none;stroke:#000000;stroke-width:0.799999;stroke-linecap:round;stroke-dasharray:none;stroke-opacity:1"
       d="m 103.20204,99.653279 4.1314,6.112171"
       id="path186214"
       inkscape:path-effect="#path-effect186216"
       inkscape:original-d="m 103.20204,99.653279 4.1314,6.112171"
       sodipodi:nodetypes="cc" /><path
       style="fill:#a6a6a6;fill-opacity:1;stroke:#000000;stroke-width:0.799999;stroke-linecap:round;stroke-dasharray:none;stroke-opacity:1"
       d="m 80.81103,127.09723 6.803061,1.834"
       id="path186643"
       inkscape:path-effect="#path-effect186645"
       inkscape:original-d="m 80.81103,127.09723 c 2.357956,0.67862 4.445634,1.15591 6.803061,1.834"
       sodipodi:nodetypes="cc" /><path
       style="fill:#a6a6a6;fill-opacity:1;stroke:#000000;stroke-width:0.799999;stroke-linecap:round;stroke-dasharray:none;stroke-opacity:1"
       d="m 85.701838,168.04734 5.986455,-3.20991"
       id="path186647"
       inkscape:path-effect="#path-effect186649"
       inkscape:original-d="m 85.701838,168.04734 c 2.457596,-0.53269 3.529389,-2.67669 5.986455,-3.20991"
       sodipodi:nodetypes="cc" /><path
       style="fill:#a6a6a6;fill-opacity:1;stroke:#000000;stroke-width:0.799999;stroke-linecap:round;stroke-dasharray:none;stroke-opacity:1"
       d="m 141.74369,189.7534 -1.77143,-6.40126"
       id="path186647-6-1"
       inkscape:path-effect="#path-effect186649-3-6"
       inkscape:original-d="m 141.74369,189.7534 c 0.32153,-2.49403 -2.09225,-3.90756 -1.77143,-6.40126"
       sodipodi:nodetypes="cc" /><path
       style="fill:#a6a6a6;fill-opacity:1;stroke:#000000;stroke-width:0.799999;stroke-linecap:round;stroke-dasharray:none;stroke-opacity:1"
       d="m 177.27761,142.57999 h -7.35374"
       id="path186647-6-1-9"
       inkscape:path-effect="#path-effect186649-3-6-0"
       inkscape:original-d="m 177.27761,142.57999 c 0.32153,-2.49403 -7.67456,2.4937 -7.35374,0"
       sodipodi:nodetypes="cc" /><path
       style="fill:#a6a6a6;fill-opacity:1;stroke:#000000;stroke-width:0.799999;stroke-linecap:round;stroke-dasharray:none;stroke-opacity:1"
       d="m 166.39683,173.53605 -5.9609,-4.32731"
       id="path186647-6-5-2"
       inkscape:path-effect="#path-effect186649-3-7-2"
       inkscape:original-d="m 166.39683,173.53605 c 0.32152,-2.49401 -6.28174,-1.83356 -5.9609,-4.32731"
       sodipodi:nodetypes="cc" /><path
       style="fill:#a6a6a6;fill-opacity:1;stroke:#000000;stroke-width:0.799999;stroke-linecap:round;stroke-dasharray:none;stroke-opacity:1"
       d="m 168.29119,114.14648 -6.17965,3.99768"
       id="path186647-6-5-2-6"
       inkscape:path-effect="#path-effect186649-3-7-2-3"
       inkscape:original-d="m 168.29119,114.14648 c 0.32152,-2.49401 -6.50049,6.49143 -6.17965,3.99768"
       sodipodi:nodetypes="cc" /><path
       style="fill:#a6a6a6;fill-opacity:1;stroke:#000000;stroke-width:0.799999;stroke-linecap:round;stroke-dasharray:none;stroke-opacity:1"
       d="m 161.99577,106.8221 -5.57688,4.84948"
       id="path186647-6-5-2-6-6"
       inkscape:path-effect="#path-effect186649-3-7-2-3-0"
       inkscape:original-d="m 161.99577,106.8221 c 0.32152,-2.49401 -5.89772,7.34323 -5.57688,4.84948"
       sodipodi:nodetypes="cc" /><path
       style="fill:#a6a6a6;fill-opacity:1;stroke:#000000;stroke-width:0.799999;stroke-linecap:round;stroke-dasharray:none;stroke-opacity:1"
       d="m 171.608,165.57719 -6.65339,-3.14936"
       id="path186647-6-5-5-7"
       inkscape:path-effect="#path-effect186649-3-7-3-9"
       inkscape:original-d="m 171.608,165.57719 c 2.5681,1.36166 -5.85037,1.27317 -6.65339,-3.14936"
       sodipodi:nodetypes="cc" /><path
       style="fill:#a6a6a6;fill-opacity:1;stroke:none;stroke-width:0.729038;stroke-linecap:round;stroke-dasharray:none;stroke-opacity:1"
       d="m 84.647678,165.5808 c -3.105375,-6.05683 -4.589407,-10.76273 -5.401714,-17.12892 -0.484259,-3.79522 -0.365853,-10.35832 0.248861,-13.79402 0.37197,-2.07897 1.494438,-6.62697 1.681814,-6.81435 0.08433,-0.0843 5.699834,1.37985 5.894041,1.53681 0.04954,0.04 -0.152403,1.02342 -0.448758,2.18529 -2.618464,10.26586 -1.578911,20.63316 2.997576,29.89432 1.714093,3.46871 1.886619,2.8822 -1.361678,4.62904 -1.021503,0.54934 -2.077831,0.99879 -2.347394,0.99879 -0.358053,0 -0.698307,-0.40606 -1.262748,-1.50696 z"
       id="path187004" /><path
       style="fill:#a6a6a6;fill-opacity:1;stroke:none;stroke-width:0.515509;stroke-linecap:round;stroke-dasharray:none;stroke-opacity:1"
       d="m 87.337806,120.93716 c -2.79412,-1.31114 -2.801372,-1.32238 -1.892888,-2.93316 2.603908,-4.61685 7.286252,-10.07193 11.633279,-13.55313 2.240889,-1.79455 5.338643,-3.85102 5.800963,-3.85102 0.28765,0 0.72631,0.52958 1.94178,2.34429 0.86361,1.28936 1.57004,2.43166 1.56986,2.53844 -1.7e-4,0.10678 -0.86345,0.77 -1.91838,1.47383 -3.69805,2.46725 -6.775743,5.20439 -9.372539,8.33544 -1.402463,1.69101 -3.325074,4.43146 -4.195505,5.98019 -0.307457,0.54705 -0.565664,0.80895 -0.796047,0.80743 -0.187545,-0.001 -1.43428,-0.51528 -2.770523,-1.14231 z"
       id="path187006" /><path
       style="fill:#0000ff;fill-opacity:1;stroke:none;stroke-width:0.515509;stroke-linecap:round;stroke-dasharray:none;stroke-opacity:1"
       d="m 170.32561,140.78865 c 0,-1.70824 -0.4369,-5.10311 -0.95929,-7.45401 -1.05325,-4.73996 -3.01182,-9.52728 -5.46025,-13.34644 -0.40766,-0.63589 -0.7412,-1.3308 -0.7412,-1.54425 0,-0.31047 0.43479,-0.66751 2.17349,-1.78487 1.37838,-0.8858 2.34553,-1.39677 2.64377,-1.39677 0.39629,0 0.59663,0.19448 1.27335,1.23608 1.21103,1.86401 3.6442,6.78112 4.45034,8.99355 1.76784,4.85173 2.68534,9.30666 3.02856,14.70507 l 0.11652,1.83281 h -3.26265 -3.26264 z"
       id="path193634" /><path
       style="fill:#ff0000;fill-opacity:1;stroke:none;stroke-width:0.515509;stroke-linecap:round;stroke-dasharray:none;stroke-opacity:1"
       d="m 141.36413,186.53646 c -0.40963,-1.51276 -0.75488,-2.86863 -0.76722,-3.01303 -0.0157,-0.18326 0.4507,-0.43268 1.54406,-0.82578 6.35996,-2.28662 12.59185,-6.42209 17.02885,-11.30029 0.61835,-0.67984 1.26213,-1.23608 1.4306,-1.23608 0.5056,0 4.78087,3.20928 4.78087,3.58881 0,0.19153 -0.97776,1.33473 -2.34429,2.74097 -4.43229,4.56108 -8.52761,7.53548 -14.0231,10.18487 -2.51852,1.21418 -5.45654,2.37654 -6.38825,2.52736 l -0.51675,0.0836 z"
       id="path193705" /><path
       style="fill:#ffaaaa;fill-opacity:1;stroke:none;stroke-width:0.515509;stroke-linecap:round;stroke-dasharray:none;stroke-opacity:1"
       d="m 163.67635,170.95261 c -1.29471,-0.95637 -2.14875,-1.705 -2.17597,-1.90739 -0.0256,-0.19025 0.42849,-0.99127 1.05868,-1.86758 0.60692,-0.84394 1.3943,-2.05054 1.74974,-2.68133 0.49202,-0.87317 0.73678,-1.14783 1.02557,-1.15083 0.4007,-0.004 5.50272,2.35598 5.50272,2.54551 0,0.24133 -1.96964,3.42431 -3.09014,4.99373 -0.90294,1.26469 -1.27776,1.66092 -1.56354,1.65281 -0.20674,-0.006 -1.33491,-0.71908 -2.50706,-1.58492 z"
       id="path194537" /><path
       style="fill:#ffaaaa;fill-opacity:1;stroke:none;stroke-width:0.515509;stroke-linecap:round;stroke-dasharray:none;stroke-opacity:1"
       d="m 160.64635,115.47543 c -0.75809,-0.91427 -1.76747,-2.04304 -2.24306,-2.50837 -0.5136,-0.50253 -0.86471,-0.99626 -0.86471,-1.21596 0,-0.25873 0.59237,-0.88839 1.9709,-2.09496 2.53664,-2.22022 2.49715,-2.21809 4.31573,-0.23324 1.4048,1.53323 3.80167,4.50312 3.70904,4.59575 -0.39771,0.39772 -4.89132,3.1167 -5.15258,3.11771 -0.24448,0.001 -0.79132,-0.52245 -1.73532,-1.66093 z"
       id="path194539" /><text
       xml:space="preserve"
       style="font-style:normal;font-variant:normal;font-weight:normal;font-stretch:normal;font-size:8.25762px;font-family:Lato;-inkscape-font-specification:Lato;text-align:center;text-anchor:middle;white-space:pre;inline-size:20.9463;display:inline;fill:#000000;fill-opacity:1;stroke:none;stroke-width:0.502017;stroke-linecap:round;stroke-dasharray:none;stroke-opacity:1"
       x="176.16333"
       y="121.61835"
       id="text195119-8"
       transform="translate(8.0156204,4.6971556)"><tspan
         id="tspan195117-9"
         style="font-style:normal;font-variant:normal;font-weight:normal;font-stretch:normal;font-family:Lato;-inkscape-font-specification:Lato;stroke-width:0.502018"
         x="176.16333"
         y="121.61835">gltA</tspan></text><text
       xml:space="preserve"
       style="font-style:normal;font-variant:normal;font-weight:normal;font-stretch:normal;font-size:8.25762px;font-family:Lato;-inkscape-font-specification:Lato;text-align:center;text-anchor:middle;white-space:pre;inline-size:154.314;display:inline;fill:#000000;fill-opacity:1;stroke:none;stroke-width:0.502017;stroke-linecap:round;stroke-dasharray:none;stroke-opacity:1"
       x="176.16333"
       y="121.61835"
       id="text195119-8-9"
       transform="translate(93.867875,12.596287)"><tspan
         x="176.16333"
         y="121.61835"
         id="tspan204341"><tspan
           style="stroke-width:0.502018"
           id="tspan204339">LacI regulates GltA 
</tspan></tspan></text><text
       xml:space="preserve"
       style="font-style:normal;font-variant:normal;font-weight:normal;font-stretch:normal;font-size:8.25762px;font-family:Lato;-inkscape-font-specification:Lato;text-align:center;text-anchor:middle;white-space:pre;inline-size:20.9463;display:inline;fill:#000000;fill-opacity:1;stroke:none;stroke-width:0.502017;stroke-linecap:round;stroke-dasharray:none;stroke-opacity:1"
       x="176.16333"
       y="121.61835"
       id="text195119-8-3"
       transform="translate(-14.069553,69.472962)"><tspan
         x="176.16333"
         y="121.61835"
         id="tspan195270">lacI<tspan
   style="stroke-width:0.502018"
   id="tspan195268" /></tspan></text><text
       xml:space="preserve"
       style="font-style:normal;font-variant:normal;font-weight:normal;font-stretch:normal;font-size:8.25762px;font-family:Lato;-inkscape-font-specification:Lato;text-align:center;text-anchor:middle;fill:#000000;fill-opacity:1;stroke:none;stroke-width:0.502017;stroke-linecap:round;stroke-dasharray:none;stroke-opacity:1"
       x="127.71719"
       y="145.58783"
       id="text195119-2-1"><tspan
         sodipodi:role="line"
         id="tspan195117-6-8"
         style="font-style:normal;font-variant:normal;font-weight:normal;font-stretch:normal;font-family:Lato;-inkscape-font-specification:Lato;stroke-width:0.502018"
         x="127.71719"
         y="145.58783">Plasmid</tspan></text><path
       style="fill:none;fill-opacity:1;stroke:#000000;stroke-width:0.8;stroke-linecap:round;stroke-dasharray:none;stroke-opacity:1;marker-end:url(#Arrow1)"
       d="m 169.38146,169.3939 4.22608,2.26041 -1.94204,3.36371"
       id="path195317" /><path
       style="fill:none;fill-opacity:1;stroke:#000000;stroke-width:0.8;stroke-linecap:round;stroke-dasharray:none;stroke-opacity:1;marker-end:url(#Arrow1-3)"
       d="m 165.38924,110.15305 3.67883,-3.07171 2.39138,3.06061"
       id="path195317-94" /><g
       id="g199988"
       transform="translate(8.3216636,-117.26494)"><circle
         style="fill:none;stroke:#000000;stroke-width:0.75594;stroke-linecap:round;stroke-dasharray:none;stroke-opacity:1"
         id="path186096-3-7"
         cx="262.06216"
         cy="136.68677"
         r="42.122028" /><circle
         style="fill:none;stroke:#000000;stroke-width:0.622539;stroke-linecap:round;stroke-dasharray:none;stroke-opacity:1"
         id="path186096-3-7-1"
         cx="262.06216"
         cy="136.68677"
         r="34.688732" /><path
         style="fill:#a6a6a6;fill-opacity:1;stroke:#000000;stroke-width:0.799999;stroke-linecap:round;stroke-dasharray:none;stroke-opacity:1"
         d="m 293.27255,108.39934 -5.57688,4.84948"
         id="path186647-6-5-2-6-6-8-2"
         inkscape:path-effect="#path-effect186649-3-7-2-3-0-1-7"
         inkscape:original-d="m 293.27255,108.39934 c 0.32153,-2.49401 -5.89771,7.34323 -5.57688,4.84948"
         sodipodi:nodetypes="cc" /><path
         style="fill:#a6a6a6;fill-opacity:1;stroke:#000000;stroke-width:0.799999;stroke-linecap:round;stroke-dasharray:none;stroke-opacity:1"
         d="m 298.00281,114.72005 -6.3247,3.90554"
         id="path186647-6-5-2-6-6-8-2-2"
         inkscape:path-effect="#path-effect186649-3-7-2-3-0-1-7-7"
         inkscape:original-d="m 298.00281,114.72005 c 0.32153,-2.49401 -6.64555,6.39929 -6.3247,3.90554"
         sodipodi:nodetypes="cc" /><path
         style="fill:#a6a6a6;fill-opacity:1;stroke:#000000;stroke-width:0.799999;stroke-linecap:round;stroke-dasharray:none;stroke-opacity:1"
         d="m 301.67114,151.0184 -6.98383,-2.54567"
         id="path186647-6-5-2-6-6-8-2-2-6"
         inkscape:path-effect="#path-effect186649-3-7-2-3-0-1-7-7-2"
         inkscape:original-d="m 301.67114,151.0184 c 0.32152,-2.49402 -7.30467,-0.0519 -6.98383,-2.54567"
         sodipodi:nodetypes="cc" /><path
         style="fill:#a6a6a6;fill-opacity:1;stroke:#000000;stroke-width:0.799999;stroke-linecap:round;stroke-dasharray:none;stroke-opacity:1"
         d="m 272.545,177.48352 -1.66652,-7.06959"
         id="path186647-6-5-2-6-6-8-2-2-6-0"
         inkscape:path-effect="#path-effect186649-3-7-2-3-0-1-7-7-2-1"
         inkscape:original-d="m 272.545,177.48352 c 0.32153,-2.49401 -1.98736,-4.57584 -1.66652,-7.06959"
         sodipodi:nodetypes="cc" /><path
         style="fill:#a6a6a6;fill-opacity:1;stroke:#000000;stroke-width:0.799999;stroke-linecap:round;stroke-dasharray:none;stroke-opacity:1"
         d="m 236.33846,170.04175 5.04261,-5.5054"
         id="path186647-6-5-2-6-6-8-2-2-6-0-1"
         inkscape:path-effect="#path-effect186649-3-7-2-3-0-1-7-7-2-1-6"
         inkscape:original-d="m 236.33846,170.04175 c 0.32152,-2.49401 4.72177,-3.01165 5.04261,-5.5054"
         sodipodi:nodetypes="cc" /><path
         style="fill:#a6a6a6;fill-opacity:1;stroke:#000000;stroke-width:0.799999;stroke-linecap:round;stroke-dasharray:none;stroke-opacity:1"
         d="m 220.72387,144.77438 7.30911,-1.3555"
         id="path186647-6-5-2-6-6-8-2-2-6-0-1-9"
         inkscape:path-effect="#path-effect186649-3-7-2-3-0-1-7-7-2-1-6-5"
         inkscape:original-d="m 220.72387,144.77438 c 0.32152,-2.49402 6.98827,1.13825 7.30911,-1.3555"
         sodipodi:nodetypes="cc" /><path
         style="fill:#a6a6a6;fill-opacity:1;stroke:#000000;stroke-width:0.799999;stroke-linecap:round;stroke-dasharray:none;stroke-opacity:1"
         d="m 230.28411,109.03862 6.05178,4.37871"
         id="path186647-6-5-2-6-6-8-2-2-6-0-1-9-9"
         inkscape:path-effect="#path-effect186649-3-7-2-3-0-1-7-7-2-1-6-5-4"
         inkscape:original-d="m 230.28411,109.03862 c 0.32152,-2.49401 5.73094,6.87246 6.05178,4.37871"
         sodipodi:nodetypes="cc" /><text
         xml:space="preserve"
         style="font-style:normal;font-variant:normal;font-weight:normal;font-stretch:normal;font-size:8.25762px;font-family:Lato;-inkscape-font-specification:Lato;text-align:center;text-anchor:middle;fill:#000000;fill-opacity:1;stroke:none;stroke-width:0.502017;stroke-linecap:round;stroke-dasharray:none;stroke-opacity:1"
         x="213.33389"
         y="122.75018"
         id="text195119-0-1"><tspan
           sodipodi:role="line"
           id="tspan195117-68-5"
           style="font-style:normal;font-variant:normal;font-weight:normal;font-stretch:normal;font-family:Lato;-inkscape-font-specification:Lato;stroke-width:0.502018"
           x="213.33389"
           y="122.75018">kan</tspan></text><text
         xml:space="preserve"
         style="font-style:normal;font-variant:normal;font-weight:normal;font-stretch:normal;font-size:8.25762px;font-family:Lato;-inkscape-font-specification:Lato;text-align:center;text-anchor:middle;fill:#000000;fill-opacity:1;stroke:none;stroke-width:0.502017;stroke-linecap:round;stroke-dasharray:none;stroke-opacity:1"
         x="249.73357"
         y="187.05992"
         id="text195119-0-1-9"><tspan
           sodipodi:role="line"
           id="tspan195117-68-5-7"
           style="font-style:normal;font-variant:normal;font-weight:normal;font-stretch:normal;font-family:Lato;-inkscape-font-specification:Lato;stroke-width:0.502018"
           x="249.73357"
           y="187.05992">ori</tspan></text><text
         xml:space="preserve"
         style="font-style:normal;font-variant:normal;font-weight:normal;font-stretch:normal;font-size:8.25762px;font-family:Lato;-inkscape-font-specification:Lato;text-align:center;text-anchor:middle;white-space:pre;inline-size:20.9463;display:inline;fill:#000000;fill-opacity:1;stroke:none;stroke-width:0.502017;stroke-linecap:round;stroke-dasharray:none;stroke-opacity:1"
         x="176.16333"
         y="121.61835"
         id="text195119-8-3-2-1"
         transform="translate(137.82014,14.252175)"><tspan
           x="176.16333"
           y="121.61835"
           id="tspan199406">YFP</tspan></text><text
         xml:space="preserve"
         style="font-style:normal;font-variant:normal;font-weight:normal;font-stretch:normal;font-size:8.25762px;font-family:Lato;-inkscape-font-specification:Lato;text-align:center;text-anchor:middle;fill:#000000;fill-opacity:1;stroke:none;stroke-width:0.502017;stroke-linecap:round;stroke-dasharray:none;stroke-opacity:1"
         x="261.91147"
         y="139.69461"
         id="text195119-2-1-9-7"><tspan
           sodipodi:role="line"
           id="tspan195117-6-8-5-7"
           style="font-style:normal;font-variant:normal;font-weight:normal;font-stretch:normal;font-family:Lato;-inkscape-font-specification:Lato;stroke-width:0.502018"
           x="261.91147"
           y="139.69461">Plasmid 2</tspan></text><path
         style="fill:none;fill-opacity:1;stroke:#000000;stroke-width:0.8;stroke-linecap:round;stroke-dasharray:none;stroke-opacity:1;marker-end:url(#Arrow1-3-5-0)"
         d="m 296.33962,111.15394 4.00138,-2.63782 2.03145,3.31048"
         id="path195317-94-8-1" /><path
         style="fill:#ffaaaa;fill-opacity:1;stroke:none;stroke-width:1.03102;stroke-linecap:round;stroke-dasharray:none;stroke-opacity:1"
         d="m 290.41933,115.86409 c -1.44907,-2.0558 -1.39768,-2.87082 0.27633,-4.38319 2.02544,-1.82987 3.02991,-1.70583 4.76179,0.58803 0.75623,1.00165 1.37499,2.00294 1.37499,2.22509 0,0.48524 -4.03874,3.10664 -4.79343,3.11124 -0.2921,0.002 -1.02095,-0.69174 -1.61968,-1.54117 z"
         id="path196850" /><path
         style="fill:#ffff00;fill-opacity:1;stroke:none;stroke-width:1.03102;stroke-linecap:round;stroke-dasharray:none;stroke-opacity:1"
         d="m 297.79028,149.00276 c -1.0673,-0.41332 -2.01422,-0.82514 -2.10423,-0.91517 -0.09,-0.09 0.13822,-1.39057 0.50721,-2.8901 0.88879,-3.61193 1.19157,-9.83029 0.6568,-13.48778 -0.47641,-3.25809 -1.76012,-7.57611 -2.95577,-9.94228 -1.28122,-2.53554 -1.13407,-3.09137 1.19259,-4.50473 1.10289,-0.66998 2.25153,-1.21815 2.55248,-1.21815 0.67017,0 2.14396,2.84087 3.56723,6.87626 2.78784,7.90426 3.14415,16.29809 1.02891,24.23884 -0.65657,2.46485 -0.76451,2.64103 -1.60431,2.61862 -0.49519,-0.0132 -1.77361,-0.3622 -2.84091,-0.77551 z"
         id="path197323" /><path
         style="fill:#a6a6a6;fill-opacity:1;stroke:none;stroke-width:1.03102;stroke-linecap:round;stroke-dasharray:none;stroke-opacity:1"
         d="m 254.03853,177.43619 c -5.12173,-1.08152 -8.63328,-2.46412 -13.72474,-5.40386 -1.81798,-1.04968 -2.13117,-1.37155 -2.13117,-2.19024 0,-1.11035 2.4558,-4.01338 3.39509,-4.01338 0.31919,0 1.78732,0.68782 3.26251,1.5285 7.11556,4.05497 16.31969,5.45923 24.55307,3.74603 l 1.03328,-0.215 0.69514,3.08208 0.69514,3.08208 -1.55795,0.38545 c -0.85685,0.21199 -4.16647,0.44415 -7.3547,0.51591 -4.75451,0.107 -6.34857,0.0139 -8.86567,-0.51757 z"
         id="path197601" /><path
         style="fill:#a6a6a6;fill-opacity:1;stroke:none;stroke-width:1.03102;stroke-linecap:round;stroke-dasharray:none;stroke-opacity:1"
         d="m 220.90105,142.76067 c -0.51026,-2.42838 -0.29032,-10.98599 0.36059,-14.03005 1.22912,-5.74812 3.59049,-11.29324 6.67289,-15.66971 1.41011,-2.00212 1.91187,-2.47216 2.63901,-2.47216 0.71421,0 2.78961,1.26358 4.85632,2.95669 0.0801,0.0656 -0.24256,0.53968 -0.71701,1.05347 -2.24141,2.42719 -4.83988,7.26941 -6.17813,11.51283 -1.2833,4.06923 -1.73209,7.84322 -1.50479,12.65393 l 0.19739,4.1776 -1.76832,0.34808 c -4.56758,0.89906 -4.24974,0.93607 -4.55795,-0.53068 z"
         id="path197603" /></g><rect
       style="fill:#808000;fill-opacity:0.260274;stroke:#000000;stroke-width:0.750001;stroke-linecap:round;stroke-dasharray:none;stroke-opacity:1"
       id="rect199882"
       width="226.13095"
       height="77.331703"
       x="75.109558"
       y="229.57607"
       ry="38.665852" /><path
       style="fill:#00ffff;fill-opacity:0.260274;stroke:#000000;stroke-width:0.750001;stroke-linecap:round;stroke-dasharray:none;stroke-opacity:1"
       id="path199960"
       d="m 130.49023,241.18142 c -2.43075,-0.74754 -4.87428,-1.45819 -7.31311,-2.18144 -1.77883,-0.49658 -3.58528,-1.07592 -5.43571,-0.77172 -2.58278,0.78431 -3.89583,2.54696 -4.96915,4.90308 -0.75656,2.12769 -1.07968,4.38176 -0.99373,6.63346 0.0647,1.78158 0.60482,3.37389 1.83564,4.66697 1.91809,1.73207 4.00338,2.74172 6.46245,2.8432 1.81718,-0.1244 3.53576,0.0912 5.27858,0.59853 0.43643,0.16437 0.87839,0.31476 1.3093,0.4931 0.45864,0.18981 0.91156,0.39397 1.35806,0.61081 0.4399,0.21363 1.71179,0.94378 1.29997,0.68004 -4.49452,-2.8784 -1.14033,-0.52732 -0.26948,0.17725 1.42637,1.30779 1.8952,3.0974 2.13998,4.94495 0.20023,1.48861 0.0156,2.96935 -0.36432,4.41205 -0.33334,1.14664 -0.91556,2.20125 -1.35066,3.3133 -0.55305,1.31782 -1.35331,2.52681 -2.16647,3.69807 -0.86271,1.36707 -1.75617,2.70609 -2.82834,3.91719 -1.28162,1.44834 -2.9098,1.94928 -4.75068,2.27505 -1.75741,0.25701 -3.53647,0.26437 -5.3085,0.26585 -0.12696,-0.0107 -1.33709,-0.10665 -1.47587,-0.14144 -0.2355,-0.059 -0.88437,-0.39613 -0.67549,-0.27239 4.9807,2.95049 2.39018,1.31218 1.31003,0.17055 -1.34834,-1.92398 -2.45541,-4.0302 -3.05178,-6.30872 -0.29336,-1.64707 0.8433,-1.55742 2.14211,-1.68537 1.42779,-0.0894 2.85945,-0.056 4.2888,-0.0344 1.59996,0.074 5.31218,2.45607 -0.007,-0.59425 1.90983,1.05754 3.4243,2.60287 4.87106,4.20763 1.67771,2.06109 3.51673,3.97472 5.32744,5.91631 1.47747,1.78184 3.369,3.07777 5.31496,4.28772 3.10666,2.29989 5.98586,3.38382 9.41242,4.66164 1.68687,0.62078 3.4529,0.86695 5.23521,0.9834 2.16048,0.2689 3.89936,-0.73973 5.66638,-1.8333 2.12005,-1.37394 3.73768,-3.38035 5.18504,-5.42125 1.86012,-2.17936 2.53584,-4.83952 3.02772,-7.59181 0.52667,-2.98769 0.42007,-5.98726 -0.15402,-8.95198 -0.62175,-2.89025 -2.17373,-5.32189 -3.97004,-7.61145 -2.18561,-2.62883 -5.17828,-4.03177 -8.11784,-5.6828 -1.38815,-0.67392 -2.88537,-1.0097 -4.40779,-1.18943 -1.09126,-0.0712 -2.36602,-0.34186 -3.23795,0.53627 -0.24478,0.24653 -0.40213,0.56663 -0.6032,0.84994 -1.23899,3.3242 -1.19841,6.9942 -1.02791,10.49578 0.2795,3.28109 1.10885,6.48837 1.68664,9.72699 0.60994,3.52615 0.84511,7.09927 0.9695,10.67082 0.19816,2.11085 -0.0346,3.40048 -1.09599,5.20384 -0.97324,1.53333 -2.58297,2.43775 -4.06184,3.41343 -2.18414,1.45994 -4.62094,2.23862 -7.17421,2.73447 -2.3378,0.33928 -4.71485,0.50046 -7.07245,0.32487 0.57541,0.43402 -3.33666,-1.27593 -2.47867,-1.02463 0.68654,0.20109 1.4524,1.33564 1.97285,0.84483 0.47763,-0.45044 -0.89229,-0.96536 -1.29626,-1.48289 -1.08736,-1.39303 -1.3105,-1.91925 -2.16994,-3.44251 -1.80398,-3.52433 -2.43,-7.40927 -2.81483,-11.30231 -0.28344,-3.41592 -0.43462,-6.8271 0.39188,-10.1726 0.94158,-3.14896 2.60924,-5.93639 4.74929,-8.40358 2.13385,-2.19407 4.71985,-3.86577 7.38003,-5.34552 1.70816,-0.90953 3.596,-1.37093 5.41352,-2.00348 2.02211,-0.52213 4.0051,-1.17771 5.98487,-1.83951 2.45445,-0.71667 4.72752,-1.76102 6.92934,-3.04965 2.39786,-1.52629 3.87927,-3.74238 4.80862,-6.37411 0.72063,-2.27815 0.60167,-4.48492 -0.67502,-6.51214 -2.11834,-2.39535 -5.15996,-3.80108 -8.07214,-5.03533 -1.90006,-0.9249 -3.88647,-1.64746 -5.92235,-2.2051 -1.68016,-0.44251 -3.40888,-0.60011 -5.13888,-0.66586 -0.26377,0.0616 -0.55709,0.0487 -0.79131,0.18475 -1.69856,0.98664 -2.1258,4.20905 -2.43235,5.93896 -0.17855,1.95719 -0.51781,3.86639 -1.60235,5.53201 -0.7682,0.90284 -1.89321,1.0192 -3.00402,1.09705 -1.06329,0.085 -2.08322,0.0248 -3.1163,-0.21674 -1.14565,-0.29258 -2.32149,-0.36538 -3.49739,-0.41077 -2.24715,-0.028 -4.49652,-0.0838 -6.73957,0.0671 -3.23081,0.16785 -6.30673,1.31042 -9.25303,2.57154 -2.956605,1.23232 -4.342254,3.08434 -5.430872,6.00442 -0.75961,2.28019 -0.878459,4.67619 -0.934489,7.05713 -0.0024,2.12652 0.710951,4.01912 1.902917,5.74711 1.579682,2.1287 4.032464,3.75044 6.603194,4.41343 0.83102,0.37287 1.73174,0.49448 2.63039,0.57031 0.88491,0.0576 1.77225,0.0523 2.65855,0.0505 1.12255,-0.005 2.24511,-0.007 3.36767,-0.008 1.08658,-8e-4 2.17316,1.6e-4 3.25974,0.002 1.10792,0.0791 2.01186,-0.34616 2.90301,-0.95323 1.60048,-1.26734 3.02456,-2.7431 4.47119,-4.17954 1.63424,-1.95336 2.99167,-4.13883 4.1098,-6.42361 1.02634,-2.25761 1.91486,-4.57508 2.62884,-6.94987 0.47094,-1.96702 1.01148,-3.91575 1.37184,-5.90732 0,0 -3.47886,-1.84763 -3.47886,-1.84763 v 0 c -0.32171,1.98754 -0.84162,3.92956 -1.31188,5.88553 -0.7045,2.35504 -1.57883,4.65819 -2.59058,6.89839 -1.09706,2.24609 -2.4391,4.39224 -4.05044,6.30693 -1.4356,1.41691 -2.85347,2.87441 -4.47103,4.08629 -0.87004,0.5433 -1.74367,0.83598 -2.78447,0.7573 -1.08421,0.002 -2.16841,0.003 -3.25262,0.004 -1.12519,7.9e-4 -2.25038,0.004 -3.37556,0.002 -0.87947,-0.004 -1.7608,-0.002 -2.63732,-0.0838 -0.88628,-0.10429 -1.74664,-0.29897 -2.57988,-0.62558 -1.568599,-0.53143 -0.432399,-0.18449 2.37047,1.54094 0.18289,0.11259 -0.38917,-0.18416 -0.57101,-0.29844 -0.68406,-0.42994 -1.20922,-1.03287 -1.67671,-1.68352 -1.239028,-1.62774 -1.976176,-3.45319 -2.0217,-5.52266 0.04685,-2.34172 0.135475,-4.70194 0.853657,-6.95348 1.042263,-2.83922 2.390593,-4.55534 5.251773,-5.74467 2.92824,-1.24327 5.98235,-2.33103 9.19323,-2.45113 2.25183,-0.11698 4.50805,-0.0668 6.76141,5e-5 1.16855,0.0637 2.33105,0.18287 3.46871,0.47161 1.05326,0.21081 2.11649,0.20128 3.18613,0.11977 1.22136,-0.13121 2.39305,-0.3819 3.18962,-1.40639 1.08416,-1.72884 1.47909,-3.67594 1.6248,-5.69717 0.24931,-1.47576 0.65245,-4.78533 2.23086,-5.50781 0.22763,-0.1042 0.49553,-0.0717 0.74329,-0.10749 1.70493,0.0801 3.40655,0.2589 5.05681,0.71795 2.02888,0.58611 3.99846,1.34494 5.90376,2.25807 1.24588,0.55574 4.16052,2.2541 -0.82587,-0.7109 -0.93784,-0.55766 3.09187,1.81704 2.23025,1.74719 1.44737,1.92111 1.51098,3.92484 0.864,6.19686 -0.91201,2.63713 -2.27419,4.61715 -4.66767,6.13791 -2.19056,1.26615 -4.46775,2.26197 -6.90076,2.97141 -1.98946,0.64913 -3.97595,1.30875 -6.00339,1.83217 -1.83488,0.61852 -3.71951,1.13614 -5.42139,2.08373 -2.67813,1.52204 -5.27392,3.24901 -7.42246,5.47688 -2.17151,2.52007 -3.88249,5.34835 -4.84602,8.55609 -0.87406,3.44645 -0.71713,6.78201 -0.42826,10.302 0.3734,3.9329 0.97936,7.86791 2.75436,11.44777 0.7089,1.2951 2.23493,4.16014 3.38525,5.04998 1.45742,1.12741 3.05997,2.056 4.63611,3.01039 0.96136,0.58213 1.53565,0.6513 2.58799,0.92065 2.3795,0.11795 4.77181,-0.0172 7.1225,-0.41437 2.58495,-0.54433 5.05312,-1.37784 7.27661,-2.84539 1.53351,-1.00607 3.17254,-1.96424 4.1722,-3.55658 1.05593,-1.80238 1.41899,-3.31617 1.15672,-5.42468 -0.16323,-3.59307 -0.39409,-7.19003 -0.99522,-10.74089 -0.55361,-3.22373 -1.3202,-6.41773 -1.67264,-9.66973 -0.21687,-3.41092 -0.30239,-7.0022 0.94554,-10.23575 0.17859,-0.23537 0.3165,-0.50808 0.53577,-0.70609 0.82489,-0.74491 2.11946,-0.35883 3.09404,-0.31668 1.49923,0.21258 2.96393,0.59117 4.31939,1.28631 -6.25682,-3.72973 0.58211,0.19169 1.4768,1.70122 1.81023,2.23557 3.38766,4.59721 4.04999,7.44538 0.60567,2.91817 0.73618,5.8769 0.22894,8.82808 -0.4725,2.70114 -1.15418,5.28549 -2.96158,7.43192 -1.42492,1.99745 -3.02057,3.95281 -5.11357,5.28028 -1.74696,1.05161 -3.44651,1.91937 -5.55131,1.61762 -1.76012,-0.14047 -3.49878,-0.43116 -5.15804,-1.06133 -1.02441,-0.36518 -2.05381,-0.69239 -3.04427,-1.14603 -1.23947,-0.56769 -2.87599,-1.52345 1.30151,0.89517 0.3213,0.18602 -0.62918,-0.39435 -0.94376,-0.59152 -1.95002,-1.18292 -3.88237,-2.42095 -5.36041,-4.19272 -1.81243,-1.94262 -3.67996,-3.8322 -5.341,-5.91096 -1.41697,-1.63103 -2.90366,-3.21375 -4.79088,-4.30963 -2.16113,-1.24661 -4.26545,-2.9805 -6.84693,-3.13761 -1.43599,-0.014 -2.87535,-0.0402 -4.30778,0.0827 -1.41781,0.18745 -2.78602,0.52789 -2.47347,2.26692 0.57849,2.33404 1.71489,4.45681 2.98433,6.48674 1.91403,2.22287 4.61326,4.12167 7.63131,4.06891 1.78257,-0.015 3.57271,-0.0335 5.33527,-0.33402 1.90488,-0.37864 3.58845,-0.97555 4.90201,-2.48545 1.08191,-1.2232 1.98878,-2.57132 2.85736,-3.9533 0.83268,-1.19546 1.65118,-2.42909 2.22845,-3.76983 0.43694,-1.12692 1.02763,-2.19388 1.36389,-3.35511 0.40595,-1.48323 0.60454,-3.01639 0.42638,-4.55215 -0.23104,-1.90694 -0.65596,-3.80157 -2.04375,-5.22539 -3.04668,-2.57547 -6.67439,-4.45065 -10.41484,-5.80078 -1.7745,-0.46868 -3.5367,-0.61551 -5.37049,-0.56298 -2.10159,-0.15709 -3.82306,-1.4718 0.88053,1.31288 0.17139,0.10146 -0.34009,-0.20739 -0.51014,-0.31108 -1.31615,-1.15044 -1.90716,-2.66376 -1.98126,-4.4077 -0.14553,-2.1918 0.17645,-4.40155 0.88287,-6.48162 0.99161,-2.20923 2.30773,-3.95577 4.78317,-4.54839 1.81665,-0.15165 3.57457,0.39253 5.31137,0.88028 2.45699,0.72861 4.92649,1.42347 7.35721,2.23506 0,0 -3.12335,-2.42941 -3.12335,-2.42941 z" /><g
       id="g200873"
       transform="translate(12.299272,9.697801)" /></g></svg>
